<mxfile host="app.diagrams.net" modified="2023-03-01T02:25:21.513Z" agent="5.0 (Windows NT 10.0; Win64; x64) AppleWebKit/537.36 (KHTML, like Gecko) Chrome/99.0.4844.74 Safari/537.36" etag="u3sUkY4RHeEV9PLMRKIP" version="20.8.23" type="github">
  <diagram name="第 1 页" id="peecSaAL3MAONWQxxy4z">
    <mxGraphModel dx="1455" dy="719" grid="1" gridSize="10" guides="1" tooltips="1" connect="1" arrows="1" fold="1" page="0" pageScale="1" pageWidth="827" pageHeight="1169" math="0" shadow="0">
      <root>
        <mxCell id="0" />
        <mxCell id="1" parent="0" />
        <mxCell id="HKrr7W6Z35hLbdNPTzv4-3" value="" style="edgeStyle=orthogonalEdgeStyle;rounded=0;orthogonalLoop=1;jettySize=auto;html=1;exitX=0.5;exitY=0.88;exitDx=0;exitDy=0;exitPerimeter=0;" parent="1" source="ePlZsZqgeB8avTt7U2sY-1" target="HKrr7W6Z35hLbdNPTzv4-2" edge="1">
          <mxGeometry relative="1" as="geometry">
            <mxPoint x="110" y="400" as="sourcePoint" />
          </mxGeometry>
        </mxCell>
        <mxCell id="HKrr7W6Z35hLbdNPTzv4-27" style="edgeStyle=orthogonalEdgeStyle;rounded=0;orthogonalLoop=1;jettySize=auto;html=1;entryX=0.5;entryY=0;entryDx=0;entryDy=0;" parent="1" source="HKrr7W6Z35hLbdNPTzv4-2" target="HKrr7W6Z35hLbdNPTzv4-21" edge="1">
          <mxGeometry relative="1" as="geometry" />
        </mxCell>
        <mxCell id="HKrr7W6Z35hLbdNPTzv4-2" value="结构化数据" style="rounded=1;whiteSpace=wrap;html=1;" parent="1" vertex="1">
          <mxGeometry x="50" y="430" width="120" height="60" as="geometry" />
        </mxCell>
        <mxCell id="HKrr7W6Z35hLbdNPTzv4-24" value="" style="edgeStyle=orthogonalEdgeStyle;rounded=0;orthogonalLoop=1;jettySize=auto;html=1;dashed=1;" parent="1" source="HKrr7W6Z35hLbdNPTzv4-5" target="HKrr7W6Z35hLbdNPTzv4-23" edge="1">
          <mxGeometry relative="1" as="geometry" />
        </mxCell>
        <mxCell id="HKrr7W6Z35hLbdNPTzv4-30" style="edgeStyle=orthogonalEdgeStyle;rounded=0;orthogonalLoop=1;jettySize=auto;html=1;entryX=1;entryY=0.5;entryDx=0;entryDy=0;exitX=0.5;exitY=1;exitDx=0;exitDy=0;" parent="1" source="HKrr7W6Z35hLbdNPTzv4-5" target="HKrr7W6Z35hLbdNPTzv4-21" edge="1">
          <mxGeometry relative="1" as="geometry" />
        </mxCell>
        <mxCell id="HKrr7W6Z35hLbdNPTzv4-5" value="空间属性抽取" style="rounded=1;whiteSpace=wrap;html=1;" parent="1" vertex="1">
          <mxGeometry x="260" y="430" width="120" height="60" as="geometry" />
        </mxCell>
        <mxCell id="HKrr7W6Z35hLbdNPTzv4-7" value="数据抽取" style="text;html=1;strokeColor=none;fillColor=none;align=center;verticalAlign=middle;whiteSpace=wrap;rounded=0;" parent="1" vertex="1">
          <mxGeometry x="80" y="280" width="60" height="30" as="geometry" />
        </mxCell>
        <mxCell id="HKrr7W6Z35hLbdNPTzv4-8" value="知识抽取" style="text;html=1;strokeColor=none;fillColor=none;align=center;verticalAlign=middle;whiteSpace=wrap;rounded=0;" parent="1" vertex="1">
          <mxGeometry x="-60" y="460" width="60" height="30" as="geometry" />
        </mxCell>
        <mxCell id="HKrr7W6Z35hLbdNPTzv4-12" value="实体抽取" style="text;html=1;strokeColor=none;fillColor=none;align=center;verticalAlign=middle;whiteSpace=wrap;rounded=0;" parent="1" vertex="1">
          <mxGeometry x="290" y="280" width="60" height="30" as="geometry" />
        </mxCell>
        <mxCell id="HKrr7W6Z35hLbdNPTzv4-13" value="关系抽取" style="text;html=1;strokeColor=none;fillColor=none;align=center;verticalAlign=middle;whiteSpace=wrap;rounded=0;" parent="1" vertex="1">
          <mxGeometry x="-60" y="355" width="60" height="30" as="geometry" />
        </mxCell>
        <mxCell id="HKrr7W6Z35hLbdNPTzv4-14" value="知识加工" style="text;html=1;strokeColor=none;fillColor=none;align=center;verticalAlign=middle;whiteSpace=wrap;rounded=0;" parent="1" vertex="1">
          <mxGeometry x="-60" y="645" width="80" height="30" as="geometry" />
        </mxCell>
        <mxCell id="HKrr7W6Z35hLbdNPTzv4-19" value="" style="edgeStyle=orthogonalEdgeStyle;rounded=0;orthogonalLoop=1;jettySize=auto;html=1;" parent="1" source="HKrr7W6Z35hLbdNPTzv4-15" target="HKrr7W6Z35hLbdNPTzv4-18" edge="1">
          <mxGeometry relative="1" as="geometry" />
        </mxCell>
        <mxCell id="HKrr7W6Z35hLbdNPTzv4-15" value="通过实体提及过滤知识" style="rounded=1;whiteSpace=wrap;html=1;" parent="1" vertex="1">
          <mxGeometry x="50" y="630" width="120" height="60" as="geometry" />
        </mxCell>
        <mxCell id="HKrr7W6Z35hLbdNPTzv4-29" style="edgeStyle=orthogonalEdgeStyle;rounded=0;orthogonalLoop=1;jettySize=auto;html=1;entryX=0;entryY=0.5;entryDx=0;entryDy=0;" parent="1" source="HKrr7W6Z35hLbdNPTzv4-18" target="HKrr7W6Z35hLbdNPTzv4-23" edge="1">
          <mxGeometry relative="1" as="geometry" />
        </mxCell>
        <mxCell id="HKrr7W6Z35hLbdNPTzv4-18" value="通过关系提及过滤知识" style="rounded=1;whiteSpace=wrap;html=1;" parent="1" vertex="1">
          <mxGeometry x="50" y="730" width="120" height="60" as="geometry" />
        </mxCell>
        <mxCell id="HKrr7W6Z35hLbdNPTzv4-22" style="edgeStyle=orthogonalEdgeStyle;rounded=0;orthogonalLoop=1;jettySize=auto;html=1;entryX=0.5;entryY=0;entryDx=0;entryDy=0;" parent="1" source="HKrr7W6Z35hLbdNPTzv4-21" target="HKrr7W6Z35hLbdNPTzv4-15" edge="1">
          <mxGeometry relative="1" as="geometry" />
        </mxCell>
        <mxCell id="HKrr7W6Z35hLbdNPTzv4-21" value="获取地理实体相关三元组" style="rounded=1;whiteSpace=wrap;html=1;" parent="1" vertex="1">
          <mxGeometry x="50" y="525" width="120" height="60" as="geometry" />
        </mxCell>
        <mxCell id="HKrr7W6Z35hLbdNPTzv4-23" value="实体过滤" style="rounded=1;whiteSpace=wrap;html=1;" parent="1" vertex="1">
          <mxGeometry x="260" y="730" width="120" height="60" as="geometry" />
        </mxCell>
        <mxCell id="HKrr7W6Z35hLbdNPTzv4-31" value="地理知识图谱" style="text;html=1;strokeColor=none;fillColor=none;align=center;verticalAlign=middle;whiteSpace=wrap;rounded=0;" parent="1" vertex="1">
          <mxGeometry x="520" y="280" width="100" height="30" as="geometry" />
        </mxCell>
        <mxCell id="ePlZsZqgeB8avTt7U2sY-1" value="结构化数据" style="strokeWidth=2;html=1;shape=mxgraph.flowchart.multi-document;whiteSpace=wrap;" vertex="1" parent="1">
          <mxGeometry x="45" y="330" width="130" height="70" as="geometry" />
        </mxCell>
        <mxCell id="ePlZsZqgeB8avTt7U2sY-4" style="edgeStyle=orthogonalEdgeStyle;rounded=0;orthogonalLoop=1;jettySize=auto;html=1;entryX=0.5;entryY=0;entryDx=0;entryDy=0;exitX=0.5;exitY=0.88;exitDx=0;exitDy=0;exitPerimeter=0;" edge="1" parent="1" source="ePlZsZqgeB8avTt7U2sY-3" target="HKrr7W6Z35hLbdNPTzv4-5">
          <mxGeometry relative="1" as="geometry" />
        </mxCell>
        <mxCell id="ePlZsZqgeB8avTt7U2sY-3" value="半结构化数据" style="strokeWidth=2;html=1;shape=mxgraph.flowchart.multi-document;whiteSpace=wrap;" vertex="1" parent="1">
          <mxGeometry x="255" y="330" width="130" height="70" as="geometry" />
        </mxCell>
        <mxCell id="ePlZsZqgeB8avTt7U2sY-5" value="" style="shape=image;verticalLabelPosition=bottom;labelBackgroundColor=default;verticalAlign=top;aspect=fixed;imageAspect=0;image=data:image/png,iVBORw0KGgoAAAANSUhEUgAAAggAAAFLCAYAAACz2HQ8AAAAAXNSR0IArs4c6QAAIABJREFUeF7svQe4XWWVPv7ucso959b0ntAhoQQIvYoICIIggqKDY2HUccY2jn+e+Tk6zZEZZ8bujKMiOCpWFAURFCnSQgslJIEQQgipN7n9nr7L/3nX933n7HNybnIT0u7N3s+T3HvP2XXtb+/1fu9611pWGIYh4iW2QGyB2AKxBWILxBaILRCxgBUDhHg8xBaILRBbILZAbIHYAo0WiAFCPCZiC8QWiC0QWyC2QGyBbSwQA4R4UMQWiC0QWyC2QGyB2AIxQIjHQGyB2AKxBWILxBaILbBjC8QMwo5tFK8xhi0QIIRVleEGgBXUria01e+Rz8LAgmVZANR3oRUgDH21Gj8PLISWrdcJYKO27hg2U3zqsQViC8QWiBmEeAwcWBaoAQQDDogWCBIchBoEqL9DhPCBwJbPxfXboYADJvoQGzgCEAAvdADbgmt5sAUiJA4so8ZXG1sgtsABYYGYQTggbvOBe5EBfFgCABQLYJgBwNIAgUwBv+dPD9BZvxUrFJDAz60ghG2FAim4eLKtjwQ82FYSFpIHroHjK48tEFtg3FogBgjj9tbGFyYhAoYHJIRgAIKj2YNo+Q8dTuC6QQjYdP8BfAk1uLACCy7hhOUjtPidhTC0YMGHayVgg/uMl9gCsQViC4wvC8QAYXzdz/hqGixQAwgEBHTqDgLRDUS0CPovsg0ILSC04YcBCpUQQejAsYBMIoSrAYIKSDiwLEcCDK7sL15iC8QWiC0wviwQA4TxdT/jqxkJIIRGWEh9gdEhcGX+FQhc4L98YGP9ph6sf60fGzbmUa5YaO90MWdmFvNmTsSEbAJJ2wZEh0CQYGmhYmz62AKxBWILjC8LxABhfN3P+GoaAQLKGgRQSKj0BtQkMFtBxIcUImpdQc9AHn/40xNYuuo1OMmp8JDFxu4+dPf2wA+LOPqwmbj8vJNw0mFT0JpKSIaDzYyG2OqxBWILxBYYhxaIAcI4vKnxJdUsEFYBAnUCSmsgAMEPVDQBNrzARs/AEG791Z3wnBbMW7AQDz27EU8tXYMtg2UUPGC4WEFYHsLRszP4xLsvwBtOnI2WhA2SCW6sQYiHXGyB2ALj0AIxQBiHNzW+pChAqMgfSpKo6x5I6qLSIPiWg77hMn5x2x8Q2glc8OZz8eSyNfjsl3+N3lwLKkECvmPBdxzYITmFAo6el8HnPnoFTjliKlJ2iATc2OSxBWILxBYYdxaIAcK4u6XxBUUtUNMbaPYgVJkNgeXBD0N4cPHw48vxwKPLcd7FFyLd6mLJ8tfwD1+6AxW/XSSIgRPAs0k3BEiEZbRYg7js7MPxhU9chq60GwOEeMjFFogtMC4tEAOEcXlb44syFmBmgip0pFIRpaqi5YkssRKGGC4B37zpVsw58kQsfWkDNm4ZxqrXerBibRGB78ANQ/jUJFqhhCZs34drFzFvUoCb//laLDh4ahxiiIdbbIHYAuPSAjFAGJe3dd9eVLTCgDmTbYV89WmGtQJG2z93qYwYSVNU+9V1DOR3lcRoBImsWqBkiKZWgU5yDEOULQtrNg3jxp/8DpPnLcBNP74H3f0eKlYWFauF6gQ4YYiKpVIarcCXMENoh5jSMowvfeRNeMsbj0PC0qGLfWv2+OixBWILxBbYrRaIAcJuNef42xln32ahqE8559rS6Pi5Ptczi9QMCENVptjM4I0j15+pdUfnZAkQFCOgUhVlr6Ern7H8sVRDNBUQ4anPBSCoyokBMw+kB4OqsfjkC+tw6x+ew0vdPhY//QqKQQYVK4WAx5BaiiyOZCMMqUEglVBCaPmYlMrhH997Bq694jQkR3nu42901F/R6IDheLdCfH2xBcaPBWKAMH7u5R65kp0FCKqqgAIF4rs1WKA/J0iINk5STZHMMlqAUJEqhtXSyNwhaxKYFEapmqj/DiuSzshURt/3YDk2KpYFN2T1wwBeADz14kZ8/46nsfiFPqzZOAgfKfgCCNiUKYAVBlIoCT6FiOzTUIKNCia2FPBPf3Eu3nnJIqRjgKDudZMRGKeA7pHHMt5pbIG9YoEYIOwVM4/dg0QBQr1Db35NjQCBaxn2gL9TGMiFDIAT6g6JO8EghKggCNh4iXUNAgSWr9xzBImwdJEABmYrBAoshCjCtz1x/k6YlK6M5Qrwu8Wr8M1bH8PLm0MMDJTAaIF0ZmD2An8n44AAjgAEZj2Upezy9EwOX/37K3HOCXNjgKCHggEIMSgYu897fOaxBaIWiAFCPB62a4GdBwi+sATSq0AzBNGQQxQgRDmD0fYzCFCRhkpS6IghD4sKg0AdSx+Iv/O8fX5EJoCgJPThOBosBBaKHvDMi5vwnV88inuf3YBhP42wAnjcnw0kPQe+HcC3Q7ZmENSg+jD4yIYlHDsnge/++/sxq6slBgjxMxRbILbAuLRADBDG5W3dfRe1PYAQ/a52RC0+FKdsi88ORBuglpECCaOtR0iAQNkhnTadv6gEQqAiTpzaBAsJh+CEqYykvalJoNiQgQAKDS0MlSt46oV1+OGvF+O+pzdioGwhsBLCNlRY+YhhCAEEPG/SHJ4CJDyyHWBaKo9Pv+8iXPvmo9HistlzXAdh9424eE+xBWIL7C8WiAHC/nIn9uPziFLHzUFB7eQZt6+to7ML9IyeaxlWgd8I02BJQ+VRXT3rF3D/BAhBaKHk2+gdHMbaTb3Y2DOEYrGIlmQLpnS1Yc70SZgyMYuEXYKDMrwgjYrvoLe/iPufWoYf3L4Yz70ygGKQgGtZaEunEAQuBoqA7zB8QXRBx89wBuWMHqyghLZMiKvOOhKf/sC5mJxNCRgZif0wdhhNaGZUBhjjK+2qPZptt6v7ajTh9vazu44xxm9bfPoHsAVigHAA3/zRXvr2AEIjYKADl5k7MxciJYhNaEGFBZRYMapBaHSikg0RyaAw4IJhA+ocBvNlPL10NR595lnk/SzKYQs29+WwqXszrIqPmVM6cdFZJ+G0U+ZIqGH9xjyWPrcWTz79Ap5e/iL6i0V0dLbhyEPnYf6hszBtUhc838Hd9z2F51ZtQl8lhUqYRmDZSKKIFiuPWRMSeNPZx+E9b1mEw6ZkJcuBYYtmAKBO3ClZFwoEjQSwTFjE/Gx2b0azD7NdM9s1s3Gz9c16uwJsRutUqyLWJvdYZano0JA+we3ZhatQlyJjTsJIIy8SevJ92b/rKuanVCph8eLFmDVrFg455JC6eyRjtU5MO9qnJl4vtsDYt0AMEMb+PdzjV9AMIDRmNxjnxxoBpP99HfunQNHjy1u6KKuXrcNkSWYlRl7+jSxCI0AwL+mKpcDBfX96FstXr8G8w4/Ea90VLH5mHV7dOoyBUhHlYglBPocZ7UkcdMg0+GEFvb0FdG8poJQvoavDxUnHH4zzz1qAYw6egmkTMkilLHiejdXr+/DA4nX4n1/cjw0DLnw7iayTxxtOnINr3rwQJx45DdPbE3CCMgInJb0YmjEIxmHtyLkYZ7gjpxYFB81+NwCqGQjhudg2+0bUB3iagTBzHrviGFXVytrClNiRuCFjHzpr/l6pVMRR828uqVQKLS0t4sTNuZgxZ67H2I7bLlu2DENDQzjmmGPQ2dlZPYmofbndunXr8MADD+Cggw7CKaecgkQigYGBAVx//fV405vehLe//e1yPlGQtKN7uMcfwPgAsQX2kQVigLCPDD+WDjsSQKgmDkRAAB09X8oU+1UCH3m/gnLgwa8EUi+gPZ1Gi6sqB3Bmz8XFti2To86Lv9O50QHlQuC+h5ZgyVNL8ea3XIyBQoivfvcuPL1yK3JhGp5DhsGGEzhwRX/AhUcros2t4Kg5bXjr+Qtx/pnHYPqEDNIWsywqIkYM4CAIHXQPlPCNW+7D//16CYp2Ow6aauET156Dt529ABkHcGwPQeAhtBy4lgMbDEnUL5JpoZfGWXUUXBnnZ9bfHhsRZRlGGj+NLEN0m5FYmpHYhtE6RjM+lFy0ZnH+NhJIIBigs966dSvK5TJWrlwpACGTyaC3t1cc9JlnnokFCxYgnU7X2ZKAgNvwJ9fn+f/pT39Cf38/zjvvPEyaNEnWj9qdv/f09OC3v/0tXn75ZVx88cUCJghCBgcH8YlPfAKXXnoprrzyyjrT7gpQGkvPdnyusQW2Z4EYIMTjY9QWaHQkJqWRO5Dfhf4HSkGAvvwQenJDGCzlZUbvlH10pDI4aPp0dGXa6rUI1vYBgnFUPMZLG3rwnZtvwxvf+EZ0TenEi6/04L9/8ABe2JCD56QkLdEKbARhsnoMx/LRYg3j2EMyeM9lJ+PC0+ajszUhTIYdVCRUQBbZk3RIG+UgxMPL1+CDf/d/yAUduOisg3D9By7AYVNa4IRkQ6TSg9iNe2kGEGgrMxM1YIcgh46NNLiZzTdz2tHPDCVuQhn8LjrDFSccCV80C0MYgNXsWGYmb9YxM27jGEcDEmrMAQtYi7qk2gyLDFIzdmjDhg248cYb5VrIFtx///048sgjcckll2Dz5s3y3QUXXIC/+Iu/wMSJE3VxLEtYgqeffhpr164Vx37++edj+vTpuPPOOwVsvOENb5BQQWtrazVMQVvn83n84Q9/wF133YXjjjtOQAfXO/nkk4W1IIPAMXX11VfLfY0Cg9HYYNQPUbxibIExZIEYIIyhm7WvT3UkgEAmgel/fNkP+R5e6enGpp4tkgXQkkoh4yTRnkyjPZXBxPY2zSCoagUMNTSbpTWL1Xt+iF/c/RBWb6mgtXMCnnzmJXTnQjy7qgcDBXHzskM3JCeh0hQpbExaZRwyGfjwNafjsrOOxIQMMxqYJsn/meHAlAVFvzOE4cHBsy+9hr/+x59hfT/w7kvm49MfuBgTUvXloVXxJ1aJ3DaLwTj2qLOhI3riiSdw2GGHVZ1eo4PndsuXL8fUqVMxefJkEV4+99xzOPjgg+XvZnYxLAHBx8aNGzFt2jShzguFgtwTzrINVR8dQwa4cOZNhz137lyZUUfBwfacY5Q5kJoUMmuvDyqMBBAYEvj3f/93vPWtbxVn/9RTT8mpnXTSSTj11FPxf//3f+LIr7nmGnH2Brg8+OCD+Nd//VcJEbzyyiv40Ic+hGQyiXvuuUdCBTNnzsTChQtx0UUXyXULeA0CvPTSS/jGN76BRx55RJgJshTz5s3De9/7XrHx5z73ORx66KH427/9W7FzHGLY12+b+Pj7gwVigLA/3IUxcA71jonOQIkIqStgRoFn+ShVylix/jWsG+jDtI5JmD1hCjrTaSTdBGxTapkOdWc1CDpNcjhfxNe+/2tk552AW269Fy+vH0DZysBDQnVokKwDtbCPAmEL3VUqLOLso1rx5X+4FjM7CB1UISUWTSJAUKWXGcJgVoUqwfzy+n587ut34Ynl6/CBSxfi49degPYUUyd9YSjYm4Gpj7ACuPa2wjjS5S+++KI4JwICOl7OjL/zne/gne98p4jhopoA46y5Pmez73//+zF//nyhxf/zP/9T4uWXXXbZNjqC6NDZtGkTbr31VnG6nCGTSidIOPHEE9He3r6N2M7c02effRZ333033v3udws9b1gF7pvAgg5YARldHbOhnDa/82AJ80KQxvVsuc+2Dh+Zs2RlSvU7WYBvffs7whLwPCkSnDJlCt72treJk//hD3+Io446Cm9/25VIZ1qql3nz927C9dd/Gn/3d38n29HJP/X0EmFmCCReffVVXHTRxfjgBz+Irq4uOZ7nlbFq1SrccssteOyxx3DxxW8RgLBmzRqxMX//9a9/jcMPPxxf+tKX5N4Y0MV7FDMIY+AFFZ/iHrFADBD2iFnHz075Ppe6A3WXpBTjxsGwdkAp9PHq5g14beMGzJ41CzMnTEbWSSIZmVFG59986dYXSqqfeZr9y+YheygAA4PD+OJNt6PUtQA//cV9yDHTgPULVFKiKmhE6GI7CMOK9FGg409ZBZx3hIsb/+Mv0WaXAdsRvYGalVJUSXDA+geKLOf1buwp4b9ufgS/f/Q5fPCyk/DBq89CW4q6Ax++9GRwR8zC4H7pkOjk6OwY1+aM/r777sOPfvQjcf4XXnjhNkp9nj2BBZ3kzTffLCwDafPbbrtN1j333HOFFjez/ChoIxCg073pppskDs9ZseepXhRXXXWVOEvl5JVGxPzkZxTt/eY3v5HZM2fzdLJ0mgQnxx57rMzGef7S+4IhDuGLuA+ViUJwNhg4WLm5D5tKQEdbC6ZmHHS5NjKuK6WqCRjsMNA/gSeeeArf//4P8I53vAPPL12OBx96QIAMmZO2jg4JOZx4/PFVgODxKCHww5tvwmc+8xm8/7r3oeRVMHXSZHH6yWRagM2KlS/ikosvFVudefrpSCdTwiLl8kMCgn556204/fQzBVxwuxNOOEFCG7/61a/wlre8RUIahnnYmTDL+Hni4yuJLVCzQAwQ4tGwXQtsDyDIhkEIz7bR65fx5PKlmNTeifmz5iDtsN+BJWWWo2KxqIgtqnGvwQO1Rg0gKBjBrIjhXAE33Pw7vDI8EQ/86XkUfBceaxbo8ADpfp+VFrUs0dKfJ5w8zjsqie9+8UNotcpyTiyuRPBAp8X1RFfA7cUBuli/eRA33PgA7nviRVx32SL85TXnCoPAckme5cALgRT7PFSZkdoV0Ln+9Kc/FYc0Y8YMfPSjHwVn6d/73vdkpktanCxCs6W7uxvXXnstvvCFLwgL8NBDDwn9Tvr8iiuuwJvf/GZ0dHTUbUpb0aGSfqcI7/jjj8cZZ5whjAWPz9g6t2Gsv1HfQGBBcMD4PIEL98HPGA75/e9/L+f513/918IkMAlChZNUlUon9KXsNEM1fWULj7/ajRd6C9LvImNXMD2bwqTOTnRmMmhtcZFNAukQSFrAE488jhu/822cf/4FaEk5WLZsqczgBwaGsHrNWqxevRqXXnIJrn77VUhnUnJMLj+/5Sf42te/ggsvugjPPr9Urm/F88vQ19cn1+gkU5g5baawAHT206dOE0Hp5i3d+N3vfou77rxbwiC8R1yH7Mh73vMeCWkwi4HsSxQ8xQxC/II8kC0QA4QD+e6P4tpVL8Ra+hrdtxWqVDSZkYZA0QJ6iiU8+MwTOGH+AhzUPkHAQSNLsKNOkEriqJYoQOB+WEeh7Pn4+i334N6lvVjy/FbkwyQCTk+luAJnigx5lGGFoVRCdP0UQsuD7Qxh4SwXN3z6aiw8fKIOJihmwqaTJ0EuwkNmViQkk2HlqxvxyS/ciuUbhnHtpcfgU++9CJ1JX9o/+w4ZBxe2H27T6pkiuttvvx1Lly5FW1ubAALS2JzdfuUrXxGlPJ0uqfFozj6d8uOPP46HH35Y2AOK9QgGfvazn4lCn/qAj3zkI/K5ofyjDALXo0MnKGEcn2I7xvkZMuA5kVVgmMLk/pNd4Dn+7ne/k2OScSDTwc9yuZwAEq5DKp+aALOdAAQdYiD7YjpeFsMQWwsW1uYr2FgoY+tgEfmyJ4yIY1uYkEliYjaNSdk0prVmsPLJJ/DAH36HD1/3PrSkXHz1y1/CaWecjhMWLsIra9bhtttvw8KFx+KqK96GdFIJTkPbxq9+eSv+3999FmeefRbWrduAhScuRLlQxJYtm/HG88/D/COPQmsmi5SbxIzZc5BKZ7Bm7au49/4/YWCoHy8uW46Bvn4JuTBDgrakbci8nHbaabj88sur44/dQdUYHl0hr1E8TvEqsQXGlAVigDCmbtfeP9lmAEESDk23Rjpuy0J3oYAHnlyM0084ETOz7UhaKi5vwgiG1hZQoV+49a/degFgNYQh+gOWU1bx7Yefew03/O8dWPJyGQWbhYwCOCF1BEn4SMCzuZbSHjiBJWEHyyphUtrDRaccguvecSaOmtsJ11HVGCUmLi2gA6VJCG34gY0lK1fjfZ/5PnpKrbj6wgX4u+suxIwW5RAlPVN6Pxg9hWo3TVU9HfS3vvUtSbljGt3ZZ58t4IB0/Y9//GOJsx999NEijiN9b2b0nAF/+9vfFrqfWgKyDqS8f/CDH4jAjnoGbkMWgbF2A6L4k9sxfEFAQEDy8Y9/XMCHYSxI2//93/89Tj/99Coo4TmRbfjud78rwkZS7WeddZaEKbgQrPD4dJ4EOKTdGYCR85WQj2pipX5WC1qjHNrI+RSrhhgqB+gr5NGfL2JL/xD68jkkrQQ6EglsWvkCNq5cjk988P1wAg93/vZ2CYOcfMJxsHwPP7zlhzjiqKPwtssvV8xHCGzZsgWf+9w/4Jmnn8Npp50Bzwtw5ZVX4MWXXhCdwfwFR2HFihU4ZsHROGHhCchm2+CFAbb0bsFLL78EsjOrV63B/MOOwmuvvYYJEyaITWjP//iP/8CxC4+TkEd0iQHC3n/nxEfcfywQA4T9517sl2fSWPxGOh3qmb5x4iXbwpZCDvc//hjOPvEUzMy2VsMLhmUQh2ZaP48SINS20QLCMMRAJcQN3/gVfnD3y8hZHdJxMRGWYTO1ESmUHdPAyYPDqAGFdqyjEPiYkglw4ckH431Xn4FD5nXBlXUJImrghJUTyxUfdz26Ep/4wi3I2W04bcFs/L8PnI9TDp+EhFyDJ+WXxRahI+JIzpTpVEnXk9pn5gGdD4WF1CEwz55xbzpuhhDoiI444gi55zwHztbpqJ988kl89atfFR0CnfMvf/lLcf78nqwA/9Hhm4X3gOEBApB/+Zd/kfAA1f88JkEAqXTui9Q5tQvRhSwBQQUBBmsKMOWPwj06UooGeRxuc9111+Gd77pGMTQECARldawSIYIGXBo8WtSlwEcptFEMbWytBNha9LB1II+erVuxZvky3PnTnyBNbQKAQsUTluK044/GBeeciXt+dycWLToBl19+GTLppACEP913P77+9W/is59VIOHFF17A3LmzsXr1Klx51dtw8GGHCuC567d34sMf/ojYivYulnJ44MEHhS1547nn4agj5ouug5kQFDTS/p///Odx2BGHS5iF1xkVkMYMwn75aopPai9YIAYIe8HIY/kQzQGCuqIqQCCDkB8WBsEABEfaKteufPtK8Hr2ILpv0ry12TIzD4B1/R4++k+34NEVvSjZWdFBqMJLlurgaBEUVJBk/QPO+T0fZdsVx9ZieTjjuBl49xWn4PgjJ2NiaxpUS/BaOBuuIIGlq9bhszf8BCs2VFC0ksi4RVx3xYm47upzMLE1iaTPyoTm2mw2ihQnQydLJoAswP/8z/8IW0Aam9Q1U/LIAjAMQOaA7AJn+qYIEGP+LBb0ta99Tdbl7J85+2QkuB2dNEWL3Ofs2bMlRMGZNUEAc/xvuOEGcew8B4oKSZ1Tl8CFjpKpfdGF23F9HufnP/+5gBaeA9kKk/3A8AKPR/BDJqTal4J2ltATgYGrsj/kEy5kY7RoVLJO+Q2VG65oE8gEVcIQ3Vt7cP8jj2DLcA7Z6bOQc1uQKwYYeHUtlj38KHo3rsV733kV3nn1pWjLplU2RBhgqH8ArV1tCLwKnnnyKfzs57fiyMOPwJ+9611ob20TUee//dsXcMZZZwoDYrnMmXEQeB58L4Rl+7j7d3fJNfP7+fOPFmEm79eFb75I9BbRJWYQxvLbKz7312uBGCC8XguO8+1HAggq553KchNiIIOwGGcvOlkYhIRlq1oDOhSxKwBBgIFmHdR+mHLmo+wBKzYX8e1b/ogHn1yJvmEHRc9RnSOtAEnHQ2c6wMkL5uKM449EEPjoLXhYsvwlrFi1BvlcGRPa0jjp2CNwxgkLcMz86ehqT6Bc9PDEsyvw1LJVQGoqay9izaY8+no2o9Ut4bjDJ+ONpx2DU4+cjs4Wk/LHZL5asITOnAJFxvJZxIezYube06mvX79eAAQ1CHPmzBGQQIBAx8x1KJSjs6Jz/7M/+zNx4AwDMIOArAQpcZYRZjiA4Qb+zfoFnO2zUBD3TwfJOgAEBV/84heFPqfqn+wAZ8VmdsxwCDURnFUzM2LRokXVYzz66KNS5ZDaAwoeeSwFZFTjKoEBFhGSSivlGFD6EYYcDCpkJw4LVmDWZ11LVUzLAAkfDvIBtQtlbMmV0D1EWw9i1UsvY9XqVzBr3kE4euFxmDqpA9PaUpiQZFZEiIzlwAkq2LphA/wAIlRMuNKrU3bd3dONZKoF2WxW/maKrXynu30ODw9LpkY2k8GW7h48+PBDwtyQabnyqrfXixS1lmacP+bx5cUWaGqBGCDEA2O7FjAAgboBU0qXrsEABP5ODcKWfA73Pf4ozlrEEEP2dQOE+pOqJUSGKEvaWjlMYENfEYufewUPPr4Kr64fQMULELplzJs2EeedNh+LDp+CWTO6ZOaZr1h4tbsPT69cjz88tBzPrtiIwf4KOtvaMWNKBu0tFUxqd3DoofPQNWM6nn1hE5auWI++QaC/qEr72pUhHDqrAx95+5m44PRDkUkph+SGtToIXI/O/Otf/7poEigMvOOOO0QASPEfY+QMN7CYkemPwPVI89Nx0VkvWbJEMh0IFvg5nTy3pUiRxXzIHJD+Z0yebAXDCgQmPA73y9AEFfmcJTNkQMDAegMstkRxHrdnGuanPvUpSfHjvgkcyBSQQaDDJXhhuIT7Y2qm6B6kx7ZmCqoNjGxYgQZLBA/VWgkKQFgM37C2hLTeJuOgtpfwDzNGGNIJWbXCQiEI0V9mKKKETUMFrB8oYKjI+x0ijRBtSRtTO1oxc0IbupIushaQSthwHQtJSVRVXIYKhRC8EDSoc7bZj4JjmD0pdBMxZjNwXQo0e7ZsFUDRNXFCHUBoVsQrfmXEFjhQLBADhAPlTu/idTYDCGZXMhttAAhnn3QqZmQy2wUI0d4OZja5/dOrAYSKzEOZfRAKXc2yzv3DFRQqZhYbIpVwMKGtRZyG5aqcfZZE9gMXhXKINZt78fuHnsMd9y7Dqo0+fM9CV7qE915xLK64/Fw89uzL+Jev/Qo9+QQ86eioegFYYQUpp4jjZqfxuY9chpOOmSGaBEcKJymwQOqeIIEsAmMSezCyAAAgAElEQVT8dKx00vxJ9oAzfIr+mJVAUR5T7UjjEwxwO6Y1EkRQVEjBIBkE6ggIHhgmYE0DbmscOlkGhiS4DQEC2QdqEMgIsCIg/2YYgWmDBCvcB5kBbk/WgmCExyGAIPj4/ve/L1kP3Jbah/e973342Mc+pioxSvaG0aAwnZTOnhqMhKQ6BuLmFZOg/qluGNIbA2FdyElsJSZT5a05u+c5lW0LZenjEaLoeRgse9g6VMSmgWH0F30Me0DZK6EtnUFXawumtiQxqSWFroyL1gSQZrOwagYNgZutNSh6fNisoKnAriqQpat56kHZUAiyaZXPXXyU4s1iC4w5C8QAYczdsn13whUt5jPOcFcAQrTf364kjxEg0A0xxZA9FthkiW7KopKANQ2kmI8jSnumY7LyoZRBYm8GKYjEpMYQ3bkSfvPA8/jRb5fg1XW9OO3EBbjumjPQngaWLNuIf/7GHchZLagwnZHbUudgcWbqo8Pqw1vPPAz/9MnL0dXiSkpldKFdCA4YGuBs3SycqdMZs6Ifv2fYgTUKGN9nlgBFihQlMgOCYjmKD6kp4Peso8CwBdPwGGIwC8EDHT0ZBDIE7EvAUAMzJVjBkfeKWgQCD4IMCvMYviBg4b4JLKh9oE6CIQtqJO69995qIyRWVyTgkHtuK40HXb4j9SYMXCD8YvEpBaLo+Ek2kB3gvVLrMwPEFLOqFWxSoQqSDCYUYa5MAQfqFkoA8gCGSiF6hoaweWAYgwUPQ4UCKh6QTiXQnkmjPUOgkEZnOoF2l4DBQovjQOpA6vCChKGqdTJ05wgDDiKtp9UYV4WhZDzFS2yBA9ACMUA4AG/6zl1yLaVRvexrzYHU7EtpEEyIwTAIFClSWNaoQdh1gKC8cIVxbnZKtBhVZmVDtUe6IBbtoVtRwgU6JzolAgSukNJnr2a3dDwbhir4+V2P4Te/fxRXXv12vLJ6LTZv6sWaDYN44bUcynZSOTu4cKSyUiCAJB3mMbe9jO9+4QM47pCJ2wCERvtGKxfy3DmbJ0BgiIFOWWLoUqkQAg4YOiCzwIXbUolPISI/Z4iA25iF31PDQHaCIkbpehkoG5kGTzIzL5er1RWpYzA1GKLpqtyW7AFDHvyd4IbHM8WCpAYChYe6/oFpWEUWwdU2l1LVehpem41Ll4y6xegF+KEqgqTurxG2UtQowlEtgAwIThTEQDEABkplbC3yX4C+XAlD+QKKZbWPlAt0tKQxua0FE1pcdKVSyKZcJByAcM1oRjhWeDyOD6WnUSPJLLVKijFA2Ll3Rrz2eLFADBDGy53cQ9fBeL950ZsXf1RwuD2AIE6gQaT4egCCcWY+nbUUsVH6eFYjYA0DmfFpQECygymQysuqeDTj4Sp3X6UoMmPhyefW4Me/egiz5y/ED2/7Ezb2leEjhTBwVb8FLcgzXRy5bSKsYHIyh3//2KW45LwFUh3QOPPGyormnKPfNxNuGhAxErgY6fZG9891oqWURzMkTCaK2bax0mKULVK1rNWsulbhQjlVdR9U2SR1J1ih0txtE4KpL9htzp3CUrMI80CYRyAizI8CqARqvtYVyBF1S3EWaCp6QL7kYSBfwZbhYfQUPPSXfZR8H7ZtSfhhYksSE9NJTMm2oDOdhGtbSFiWApXsG6FPgdU4DVio6g8aGYTImI6KeE1ra/NZY3okS1SLnQ2G1b8b20fvVzW0p9elzFLWG81NjdeJLbCbLBADhN1kyPG6G/NSUw5ORZhZqjgqUiQFTAbh/icW45xFp2J6NgNJc6yWRNod1jFMhnIyBC4Uv6k/6FBU8R6TZkflOt2TYT0QOKrZkMWouKK6y5aDp5e9gl/eswwrN4V4eOmrKPgJYSOcwJXz5+xWuj7KTLOMisNmTSEmJfL4p/efimuuOBMpQ19vQ1HXX3cUBERZhWhp38ZsjygAaLbeSN83czqNYKLZXYkeI7oPta0SHIrjhGI8xPy6vLVagwBB3ZeqM9OxfgMq6jNT6hkp6krUxgocmP0IADSaAR7fsAtax8DwF5tFFdh3wbfQXy6jr+hj63AefYPDyBc92JaLTDKB1nQKk9uzmNyaQEfaRasLtFiKgaKmhDUzTJdRnmtIoKjPy7BiVeCkK0uKHVQzUXk+ZIxF3DmvimoYZaHaImvyuiIgSdm0KrnUNjAtxmKI0Gzcxp/tGQvEAGHP2HXc7JUkb63UshGpqcvjy5wvu0aAQJGiyy54uxkgVB2SeJj6wD+duFq0U9FtpBlmMIK0GoBQKZhlBFi2eiNu/s0SPPxcH1ZtLkC0juxDGJKMDqRHQxgSMNBpeag4jL3bmJzI4/MfWIRrLjsTiUZlW9QBaGcRZQ125KjrZu37wUiqgYYo/R6l3dXnwkaYYljGz1ezHbZtBd1YOCta0jt6H43zVaaIutfa+RggqJyw3DnJjhj2QvSVKugvBdia87CFYKFURFBh9U0PbdkMpnZ1YFJbi4CF9qSDVps1PFTWg+pKqUJl8jfHl9GjaKZDrlvX61CjR4fiIkxBbWRq3YOAgOj11IOqGCDsBwM/PgUC8ci0JzZIbIEGCzSWWubXhiLduwBh125NlAExzsNhe2ifLsRGd6GIf/ufO/DHJVuxps+FpwQLcEOW92VnSE/mfBYT7smc2L7MbGe3lvG16y/BGxYdgmRDr8sdnWmzEMOOtmn2/e7az64ce19uYwIXlKeae6rCSAo+8L6R4+K9olylwswIVnT0LeQCH0MlH5tyBXQPV9Bb8DGQK4pmoyOTxJS2NCa3OPKzqzWFVssVkSPZBdXGi2CBuhbJpam2/Db24LlVWSCtj6n1IGnUMtQqhNYBK6lUqeo2yPNGNky0MIY9qA/V7Mt7ER97fFsgBgjj+/6+7qsb6wChpqEgVFAvXAIEvnzp85l7/52f3oubfrMEr+W6UNSq+0TArAggsHU0uKrFYE7+MI6bncKPvvhBTOpM7DRAeN03Re/gQAUIvHw1LnlHVciILlUyVyS0pECc6CJCZrpwZepUSPNb0omzEtooUexYDpXgcaiATQOD6O0fkv4NmUwrsukUpra1YUZXFhPTLrIO0OKQUVD/ElJbgfW6dftziRYYEKAqShJNV5m0UBXzop7A1BSJsi5mXJgwhYTRNECo1p+Sv2PR5O56huL9bN8CMUCIR8gOLdBYTXEsMQjqBUz61pQClu4M1TLRjG2v6yvhk/98Ix58IY+Sxep7VOWrlzDFcfKeh48gLMO1PExN5HD9By7Gn11yHByHQrda2+cdGjNeYbdZQMAfC2fJPUrqHJaaDJZZLpzpG/JeASrV4ltAhhY/eraLfGijPwCGPAsb+wtY392P3sFhBJUyW4WhNZ3A9IkTMHNSOzoyCWSTNlotW7IiJIXTOHN2CJViTAq2qOOo/AvFLCiBpwmnRDM4TPhEMQ61kFkjX2AKPe02Q8Y7ii0wggVigBAPjR1aYEwDBD3TVN0DqnM0SYGkgyCVmw+BPz72Mv7jxruxcoOHcpAVvQFnnB6bLoTM868gEebQmQpx+VlH4P/74IWYmHHgUowp+oeY9t3hQNqNK0RFk+KEVbULzSxokBCwVoap1a3vjxYDiuu2WNpJqWykyiLrLmh2ohJaGC4FWNs/hLU9A9JoaqDgo+hX0JppwayJ7ZjWmsSkTELSKDsclRWRtBieqgFGpV1Q4tmaHENqgitr2Ko+hEIStTFksnLMJzGDsBsHT7yrUVsgBgijNtWBu+L4AggSndbENMskq0yFvO/g7sUv4ae3P4nlK7dKq+Ji6KNk20gHLjKuh1kTLLzhtCNx7aVnYu6UdjiucixkEOJl71rAAAQjoDQFkMTvR6l5+l1xxip1UrJvmIlRBxc5JlTAolrZUZdTopC1FAJ9lQC9uSK6B4fQmy+idyCHvF9BKtmCrmwGE1qZFZHGpJYE2hI20qwjYbPugiNZESb7Q85P+CgVGknofhb11quxBwYYVKViNoWScYhh7462A/doMUA4cO/9qK98LAMEKg/44qfIzCwGIFByxuwEB57k1ee8JFZvGsQDi1fiuRfWoLdYQiUIkHVTmDu5DWeecBBOWDAT0zoyMletuFQzqIJQ8bJ3LbBt/QeS9oYlilbbILtQE/d5IR2zLcxPdCFwYCYE0yertSwkthRIlUeOIWoZSqGLfp/9IgJ0FyvYNJBH/+CwtOMmU9Di2JjQkZU0ys4Uqzom0e5YYNuOhK01CwJHKqJRIEAwIMeQCgQQLOAk18jS0DoUwvMl4xUDhL071g7ko8UA4UC++6O89rEPEPyaE5dyyyzBbCPQ6YumfwBTJSt2IGV8C2zQxBh3yD4ObPnsor3FQZJdoyWF0kGFKXC6YuQoTRmvtpssYBgEo/5XIYJ6gFDNdpCyz+rA0oqaVH5dG3FT/EnWkPWq+gTp2cDaBlo3IDU3KHIEygCKfojBioet+Ty6B4extVDBQNFD2fPhOkl0ZDPoyiYwJZPClHQCnSkbLTabS2ntgigZqz2u4Jg0UcmWMF0zaymR0vY6BqS7aRTFu9mRBWKAsCMLxd/LfCe6jCWRoqdKHWkhmZGOESCQenbg8IUvs0blXHybnQfVeo7pXCiORee224AXMD/eRWh5AjzsSNGgeLjsPQtEq3w2Os1adkC9IJE9IxQIqH3OFtYq06DGBKnCRkqfoGCDpvX1eFFeXQELSaG0WA8klGZSfcNF9A7n0J8rShnoXLEEJ5VGNpWUVMqJLWl0ZVJoTzloS1hIS1VHjrEArORY4zYiYkWdoaHULjFjtfdG2YF9pBggHNj3f4dXb16UddXfpByuUofz8yKArZFKinumUNIOT7XpCgQIPFfJNNCFa6QMsBS8iVRh5Pve9gU0qLzzQFXUq3ZpVD0IAiuEp1PVCCBcixXualUFd+0s4612xQImDTBaQ4D3Szn12ohVDlWnItY1a9JHbahiaM6FYSfDPKjPVPGvgPUx+BedORkpKVmgq25qrQMZhnzFR1+xhN6Sjy15H73DQyhUAglHJGwHbWlXai10taTR0ZJCZ0tSUikTkpPBMaoKLJNkUNegrqmx2uau2G5XtjHThBie7Ir1xuY2+z1AaJy9ygOiEbRJFRoNoq6bAzepDbWvHrr9fdg0AgQDCmS2bSopWiG25Idx/+OPS6nl/QsgqFkgK+Mp58GFOeoeIGlyLnxL9XJgeyfWPxB62aEugXn1qsyu5KYTYNgV3dHQkiZN0sgoBgj7ZBhHAUK0JoS6xyqjQSe1Vs+vWV2P6MlHswX4eX1ZaB2KYOqsPobURRSdgspcMLUdpbGVgIlQQlHFcohBryJ1F3pyOfTkyxgqelK0ieeeTTvShZLNpSa1ZTE124K0DWRsVTVBypZHyjjXzpk9L2qgodaevb53Q/T9p84+0v+iSVO1qE2qeg8NlrcFCHEGzz55APbCQccMQKgvrFuzjKHczINffVEoiK/dQb0lm6cOxbi42XiLAgTalql/BpCZFC7p5ljI4d7HF+OcE07FzGx2D5Ra3rWnQUIMoSqRG1bzzHRbaHlrmhbGinZmDwZTYllaEUuFvkhbYJ3+yC2dQBXmiQvX7Nq9eb1bRYWKJtxgnLS6m+pJjwpUxenrCYJy/npWbsojN5xUvRhS9aKoOUy2uNY1DyLtpBUEVf9z7BmQIQWaYKEY+NKRcrCsSkD3F0rYPDAkYQkvCJBIpNCWcjG5rQ2zOlSRplbXRtq1RbtAGGIAg0mhFI2EPhZTN1VzMnV1os/Qr7cqgNE5G/xYlYauf8NG34ZNJZ+B7j2hQzbxBOv1jub9c/sxAxCqTVwaKLaRAIKUzo/UgY+avxneHQ0LsX/ewj1/VnzhGJuVEIhyn3/LPZFccktCDAQIZ590Gma27IleDLt2ndFSywIHtumkp0Rntdr/yrXU2itEIsLypox+VxMs7trZxVu9Hgts47z1zhrvneISRlq2P/uNHoMhpjpQokNNpmOpgI+6eYZxuuoYfF4sLXZkAW+Vy+Cg4AUY9Mku+NiaK6N7sID+4Zy06GaYqzWZwKTODkxpb0VHJo22tI0MAQOU2NENPWEZZHTK/jXwoVaGjyhrLZgGa3X1QNT5RVtvGyuNDBAUKyMaj2pVRxV6kefr9dzQeNv9zgJjEiCY4ifVHOHIqJSwcpOmMaYDYS3DuHYvYuHPyOMyyiBQxsfXgqT1sVSxtrtnhRGAcCpmtuw/DMLOPnFRqnpnt43Xjy0QtUAjLDGBCXlHmc6OeiURRIYWSqGFnB9g0GPYroiNuTx68j56cgWUyxVknCQmZdOY1JrC9I40ZrRnkHGApBT90s8mqzlqyEtwUFtU+WfqaBguqy660Ffj+1T+JmMS0XOohum1jVWPilpdhhggjK9nYL8HCMbZN764o4RY4xwgivJNzNywCcS6RmCncbbG2/HQbja0owBBUZcqFs+XRyNAuO8xMgjUIIxdgDC+Hu/4avYHC2wb/1dnZRpNMUGT9Re4KAbAljRKZkYUwwBDPtBfLKEvX8Km3iFs6e1HieUcHFf6RUzqaMfMrg5MbXPR5SjdQlpAgNJM1DCCfmtSXKlKSVZ7Q0ggwnQe1RMBBRhqb1pVaEoLfLVhVZmwZhzE/mD5+BxerwX2e4AgzYarMUPGktWQraUf1Ry7AQrNZoGN6Lie/ItTh0YaSFE2xgAEivPk1aE1HhUEVQZBiRRjgPB6H8x4+/FpAQMWyCDIe0z3hahOYHS5ZRNSZXEmJSkMUQgtDITAkB+id9jDuq0D2NQ3hHypLCAg40KKeLEM9OT2DNqTCbToEtCJUBULq7asjmRE0OnXlmgfCdXy2rRMV5CC72DV2VIUDiGzfrZf2bGOrBift3XcXtV+DxBMrXQZnFqtW41/R26LIGX9t3FkRlfAz6Ox53pcXBPyNN7lxmpt0e+b6RtGWn9n1h1ppEX3UR8XrWc+Gs+h8di7ek2cPTQyCAQItC0/7y7kcM/iR3DOydQgxABh3L4x4gt7XRaoOkvW2NDplSqer9Ilo/0Y5EBMt9WMncqMUOtS98My0P0esDmXx9qtQ9gyXMJg0UOpHMBNJjClqw3TW13JjGAKZUfSRkbaV4dw2GNEp1Kq7pf1mq2qELLaL5MnwzeqAgO2bkVNIfiO9FsxQHhdQ2afbrzfA4QKc45NdbEGgBAVBBnFbqM16SCJxqtNWxpW2N7glgd3hJTIHTneKIuxI4DQzKmzP728H0Qlv234g9uMJMLc3rGrbEyT62LK3kggKQoQoqlgDDfwZbW5OIR7Hn8UZ510Kua0tO43WQz79OmKDx5bYAQLqORb5TpNG/IqONDAwTjt2vuhFhxl1U8FFNhGLEA5tDDoQwozsWdE71ARWwYHUKiUYLsuWlIptGUymNzeikntabTbAdqdBNKOEjralq/bXTk6JFELR9SUlyozArZK/VXvJ4ZHauGJZpdrAEIcxB17j8N+DxCkiYoejFH3xQEqYp8IeGjsqKccqAIYUfZBBrYetTtyso0O1TjsZgAh6phHAxCa7dsMIfNd1Gk323+zISeFfjSAGAnINIIfYWB2EiBwHww3lO0Qm4s5/PGJx3DuiadgdrZNAFl9bbqx93DEZxxbYE9ZwGTXRKsRqDm6SZBs1h+UW6kURlUR0sT62NIcYLox35es7MgiTf3lCrrLAbbkiugfymG4UAFTLfmYs0fE1NYMJmWSql9E0hGwQO2Cy9emxZRfnbGgUyarNSF0aFGFGwyzMHIWQwwQ9tQo2vP7HTMAgc6ItJYk1AgrEMCzazXWBVv7kPr5nq/K5nLItrhJJFxbBrvbxAGq9aJFVpXRow60kdJvNqs360dn9lEnPRKg2F5IILqvqoCoitzVA9mM5aCjHw1AMNurmUBzgBBVLEdTTc22ZBAKdoDNhQIefvIJnHXiSZiVaY0Bwp5/duMjjGELSJEnyRCoEfCqx6SZBhnXW1+foFp3QSY56jtT/0Bps9R+jU6rErqoBA5yXoDefAEbcsOSSjlYBHKFovR+aGf4oSUpoYgp7Rl0pFPIOhYytgM3oNBRp0lqZkNqMEixMdWTJHpOOwo3jOFbdkCe+pgACCKSYZhAlxwVVoGIGQFygY/BYl7+5UtFlHwPlUoFlh8gCRvzJk/HtI4JUCIdBS4klheh2JvNdpvNsEdyusZZRsMC0dG0PUARddLGUUcdf3RWb5iB6L63BzB2dNzGEd+UQdCKZq5Lm9F2AtJ0+IX3YQgB1vb34KUXV+L0Y0/ANNZB0P0MYlrxgHyvxBe9AwsYgGDaMMkzH6kiYIo8GUZBGkzJ0rxugwIJChhwG1MiWhqTiazQlVBgiS3MQ6AnX0HvcB69uRL6cgUMF4sSrkil08imXXRmWjApm0RnwkZbKi09I0S7oPfGY6iJVU2XwLMz+Qzxcz8+HoExARDomFQ2rnLujLkV/QDdA71Y17sFBY9QAUgkEkgnk0g4rhTzSVkOprZ3oSvbJgAhWu9AQIcOPewIIEQdv5TWbdAEGDDh+77Q9GYGHw0TbC8k0QgSdhSeiK5vjt3svEYCCLyeUqmEVCpVbTU7YoghEiOVY1msTKfqIPD3ghWgxythyUsrkEUSiw45Em0JVwBC/JIYHy+J+Cr2hAWizIBmAjSbUOMUdJyfT1IVINTOhTqEaNOpWqaWAhEqBKvaW8vkg38TOVhsSEa21UXOU6GIgZKH3oKH3nwFQ/kCyoGPwK8glXAwoTWLia1pdKVSmNCSVGDBVj0jVBcSpU0w7zjFMMTLeLDAfg8Q+IiQhqNzKluhIODefA6r1q1FLpdDNptFR3s7ujKtaE2k0eIkJKTAwap6p+vYGP8eobKiHuLV+0kGQuLrLsvsAq+99hpWrlyJo48+GlOnTq0DCGZW39/fj6VLl2LevHmYNWuWsBibN29GMpnEpEmT4Di6NrrJNY4wGFx3zZo1AnC4bNmyBYcffjja29tHHGM8PzZ9efbZZ9HW1oZDDjkEBCgvv/wypk+fjq6urqYCR25HcPCb3/wGCxYswPz586uCI8MgRAGKSnFS98C8gGhH2Q8CDPglrNi0Ft1be7FwzuGY0zVRXhoxQBgPr4f4GvaGBaLVPuvTsWvJ2I1ZWKb5VH0zKTZ20kJCrc8y37tkGCLvHCU6dnSjKU7ALJQ9DwXfw1AllLbVWwslbC0GGMgXUfTLaHEcdKWSmJx2MaW1VYo1taZspG1Hd6FULK0pbV3X14I9TSLhFAMoOPHbNsRbH1Zpdg+i76j673dQGVOvbKpBCnDSWrWR7nV9f00T1omKxEdidYyQc+zCpb0OEBqri43GdNQb8LYMoYJX+rrx/EsvifM8euocdGRbkXIduI4DPgSma5+52bz5EumLpEFGAYGZgct6Em+zsGTJEtDhn3322QISFi9ejHvuuQdXXXUVjjjiCIXGtZM0YYdXXnkFP/rRj3DRRRfhxBNPxOrVq3HTTTdh2rRpeNe73oUJEyZUtzPnZo5NAMJt58yZg87OTgEjb3/729HR0YGWlhYBF83o/6GhIXz/+9/H7Nmzxdlz3W9961u4/PLL5RxGerDy+Tw+/vGP4xOf+ASOPPJIAVoEDQQcvF4CjnQ6LcckNyPd6oReJFWpKr4V/Aq6i0NYvWk9BnJDOGLGXBzWORWtLtsgK/HSdjNEIic3mjGwN17U8TFiC+wLC0R1PjUgsK2TVBUYdbGyxgyI6onb0ja6tqiGY6JXiHStFNAfMmAQfRADaS7lWRZKgYVcGKLgAQOVMvrzHrr7BtEzkEOp7AGWi3TKxYT2LKZNaMeUjI2OpIN220HK1jUXWNZci6VD0SowoTKU97SZrKky7pZqhFYFMLop1ihvRr0+S00Oq8dtAEXRXepKDvKRerMp7VoUfEj6qV5DwiragdWHmw1jo4td6X1Iej3F2g0ppKO8rP1itf0WIBgg4Qk4CJEPA7y8eT1WrF2NqdOn45DpszAjkZHBFs1kiLIEUTQ+kqKeN9oAA/4+MDCAz372s8IUfPrTn5ZZ/X333Yd7770Xf/7nf47DDjusjkEwg4kz9xtvvBFve9vbZJ1bbrkFDzzwgICDCy64QBxuDa3WBiGd8h/+8Af8/ve/FwCybt06AQinnXYaHnvsMdn+oIMOqhssPF+CgxdffBE333yzsBR06hdffDH++7//W8772GOPrVVGi6Rr0un39vbive99r5zjCy+8gLvvvltAwvr16wWM8LtTTjlF9ssHmMVacn4ZW4aGkKuUMFQooq8wjKFiHq3pFA6dOgczO7rQBldmD+aBjQHCfvGMxycxBiwQVforwDAyQKhlD6gLM+8gAnOpkqArKKpvo7NbJYM0i5oZq8wI8q3iCnWPBXY3lW6UUueE4QgLec+TfhFbCj66B3LoHcqhUK7AL1fgOiEmd7RjcmcWE7MZdLF1NTMjdLMsHqnghxgs+WhNOGhPMBOjNl00aepV4aWcaC3V21xL9Fobr07er9oZN2qzxE5aF2Wuv8bPqGPJVJKAguEcdugUe9bCNSNxE42hHe6NVTKjWR5jNeC61wGC3KjIIB1p9mhobdZB4Cx2Tc8WLH1xBQ6aPQcHzZwtNck5+ESXUNedTcXIR5tiFxUj0vHeeeedMiv/q7/6KyxatEgAAj+74447xGlyhr9w4UIcfPDB1bABL+ell17C//7v/+LSSy+VgfWLX/wCJ5xwAk499VT5mw6cbIIJNRgESqf805/+VL6/4oor8Ktf/QqPPPKIMBik/z/5yU9KiMKAC27HUMIzzzyDhx56SEIFbOrykY98RNZ56qmn8Dd/8zcS4iAjQUBgNBQmvPDkk08Ke8BtyDpwX1yXx+ViAAbPlbFK9lpYN7gFD7+wHJtKQ1jf04NkOoVFRx6NhTMOxvRkBqnqiyiQ30fzQIxmHIyBd3t8irEF9pgFGsMCtQPVSh6bd4l6t9aHGExLbAXa612caU5tWAnlkxXbCmaK8d2qQYQkjLN1tdRcILNoYdgL0JAINp8AACAASURBVF2sSFbElpyH9UN5DOSKcF0bk9pSmNbiYmZbFjM6spJGuSlXwfOvdmNqq4sFMyah04XUYFDHUe9yghS+v01tiEY2pDGkotQOprW36hTR1KeEpilbIzxQfzffUsk7TfurMLSlLbwCE7WF2RyN7zvCLmEPTLfLPTZC9uyO9wlAGO0lEUmrOHcFDz//NLraO3D0nEPQ5iRVjq5Ov6ndcqVVSFijc1AyMHRBIv6ks/7CF74gjvnVV19Fa2urCPkefPBBmWkztj9z5kxce+21eOMb34hMJoPu7m4sW7YMTzzxhDh6bku2gCEHsgBz587F008/LRqDD3/4w3jLW94ip0vHTfbg4YcfFqaBYQGu+81vfhM/+clPJFTxqU99CpMnT5ZrMsJHblssFmWfv/71rwVQMCzw0Y9+FM8//3z1enjeZEIMuOD1EcR8+ctflpAJ9RGf+cxnwHADwQwXMgbvf//7hQVheEM9OCpjpBh46M4NoBiGGKoU0T3Yj+6tW9CRasVRc+dhevsEqdJG25uSrju6zzFA2JGF4u9jC0TfbooCN0s0Nl4VIpI9MJMwCSnU3L+aMStdlbyDqr+ppEhux3JJyuHWjsWeDrVjsgdLrUATn2FmRxQA5Is+NudK2DRQwLot/RjMFWVClEon0NHRjpyVwGt9eaS8Ak6YOxGnzOjEFMdHIvTlHaOaWJPJUK3UTUMrHrtR5N0IFKrX1FgRMlLvZhtWwVIwxIARCVBXe2Kotx8Xk5lhQg3Gcib4IOfHHRl7yz7IQHBL2nv7uoj9eYzvlwDBOA4O7SICrNy8Aau3bMAR8w7B3EwX0hTi8ObZBgNHNAE6DW9HMfDqgNchhk2bNonzvOuuuzBjxgwRCTKu/+ijj2Ljxo0CFN797neLUJGOnOJILnTQX/ziF1EoFMTZ0rGTKeAM/uSTT66GCm644QZ86EMfkpCBGag8JjUD1CuQKaAO4Etf+hKOP/54cdRTpkypAgmyBjwHbktA8b3vfU9m/nT073vf+4Sp+Md//EcJFZAVIIvwnve8pw5YMHxBEMPQBcMMX/nKVwQcEDxs2LBBxJHXXHONsCMEOmQ1aGP2qJfaE1qLIHXhEaK/lMeLr62RfR0z71DMmzQNaduutoMeLYuzpx6QkYVMe+qI8X5jC+wZC5AJYBojFwmLyhRWOx6d4SCzZ87+WWNBgwQDFoQV0M6/8Qyjjs6UUxeQEPqw2diJIENjBLKJvqWmAFyHVLqILEOWiiazEGLIA/qDED0F4LX+Ejb3D6KvUMRQmMBgwMldCZOsIs6YOwXHT29Du61qN3h6H9x7gheoCzLVHDBDIapXhJAc2ilbgZ6ti/ZJ/YsKIiWrQq9rylaLfZgWqqmAxlLTjTaqpZ3Wjqt0HFp3oMMXKmwSSVgNKU7ffqXJPTNids9e93uAUICPx1euQNEKcNScgzE5mUUqsKTHuUrjMWi41otBPTqjk74ZDQIZg//6r/8SgSIpe86+GSJ47rnncOutt8rsnLqE8847T5wonTcXsg5kEFasWCHO95xzzhEB5eOPPy5O+5JLLhG9wOc//3lhBMg8mDTD+++/X47Z09ODD3zgAzJrJ0C5+uqrBWgQEHDdtWvXYuvWrSI85AuA6y9fvlyYBrIbZBkoniQwMJkX119/fVUYaYYK90WwQ90CNRUEEb/85S/la143v+d++I8syaGHHgrbdSSkIaEKbW8jpCqFIQbDClZuXCv7PeGQIzG7c7LQhnu7kmKzmGOzR6Sx4NTOPEaNs5id2TZeN7bA67GAAgiKCldLtMiSnttKK2f1bY1dMGxqjQWozWdVQTX17DD1UfeD0LQ/3wfUgInzhy8dJivSkjqU38tMlw4tKVBHIbnvB/J7JQglLFwCMBgCucDCllyAdX0V9JcCBHYCqaCEtrCMY6a3YUILO8T6CBwWwFNZEAkjGJQMCUjvCGZGUXNG0OI66u+kTcGjDdd2kLADpCjophBSp6Mzo4pOm/47wRRtssui0aBWQ08jpVy0sltNP6X1CIYd0GClNung9/pOGLCmS04LgGlQ44/Vd8d+DxByoYcHlz2LZCKNow8+BB2JtFTw4iCgE6p2GDQosQkdtb0H0zwgnPHT2X7961+X2f+5556L008/XWL6Rrw3ceJEmVmTGWAaIZfh4WEJE5BJoFCRoID0P/f7hje8QZw0HSzDAdw3Z+f8jqEJfsZQBAHEmWeeiZNOOgk//OEP5SeBCAECwxDUGdAB/+Vf/qU4cW5LB0+nztAH0yqZ9fDd735XGISzzjpL1qVewsQnDdD48Y9/LOfK/VNT8dvf/lb0B7fffjuOO+44vPOd7xTww3RNMgimYyNtzdmCefEYQU/BsiXV8dkVK5BxkzjukMPQ4Sb3KkCoalBG6JshL8wmvStGAhXRhznKQozVh/z1OKZ42z1ngagwcaSj1NhUsgJaRGiptMToUmvpbECCiZybGgimtiJn/STv+e50UAqAUhCg4oeoBAHKLDTHVtM+UKzYGPYqKHshCr6PcsVH0fNQDlj+ng7SknebgAJCiNATB88sJ54twYWEI9gaPmD3Vxe+JEHbsAJmRfFfBYmwJBUbCWsE4FAgyJ0SBNmOMAmO5eq0ddUrgqCAkxYDHBzLgWvTJ0irCPmZZg+KhIt0AkglbaRdB2nXliwLfp+0HaRtCynHRdIOkYSFhDSfYrBD0iqqTaxqwMw00KqXOFZZAlNcJ6iJtcfye2PMAISWZAuOPugQcULSgZyoUhoFqUdIivc0MAqjebQNg0DWgLP+n/3sZxIiIABgKIF0PEMHXBjDZ9iB9D8dPR8OhiAo7iN4IIvA76k34Oyb2Qx05nTidOYUMXK/PCYdOZ0+wcEf//hHHHXUUTjmmGMkdMDjk2mgloH0Pbfj79RHMCWSAIT747kRoPDYZDzISDBdkqzFddddJ+dIRoEPEo9D5oDrcF88P+6L50JNA7/nugQl73jHO3DhhReKxiKgkQWFs0GLihUK0pbnJFTxRwt4ta8bL656Gacdcxxmplu1QGfvFEwxIC8KAgiImqWGmjFRJ+wyqVim54cuyR0FHiMVkhrNGIvXiS3QaIGGCeaIfOe2AEH1lhF3Sh8mVDtnxbXZr+r4qMR/FQL7QDnrUhig4FnIVyoY9oCiF2C44qNQ8ZEv+ygUyyhWyij7PiqBC8924IUOKppZoEiRx5JqqnTORm/E2bpjIXTp0HlCjjh2ztJNWWZTxVbq01BfEHB9iv54/iqkIM+bLuIUTTkUDVZoS6iToIRLQDFloEruE1uYd0DgVTTAICIh06AdfhjAZmdMggC2wHZcZFwbrUkbLekEMgkbra6NjKtaZGcSDjIu9WyawbBsYSAkUBNSSEnmRYU2GFohy1JjH5TY0zASMUDYzc9/VIOQCwP8admzSCWSOO7gQ9GaSMEJAkUhkVIj6tSUtgwc3a98Z0MMjM9zVk5nTkfJWTUFfozRM2WQ9D+dLzMbqBcwxZAICuhwCRZ+/vOf47LLLpPvKPgj6BgcHMQPfvAD+ckwA51u1EkxtME0QzIT1B4w3ZGAgY6aAh9qDKg14HdkIOjUuQ2BA5kFMhDURXDmT6aDOgICGjp9iiT5HTUVZCJ4Ldye+6QDZfoktRPM0njrW98qOgSGSz72sY9JyiRDFrq1m66WpmOgDHPyYRbFs42SZWFzfgAPPPUkzjlxkfRicC2VS2KW0QV8dn4gRZ14M5YgamvzwAqQjICCRsZgJAZhe4Bj58883uJAtkAUIJgiZM0ciXm/cVZbi3fr5MSAzkn3Q+DMHYr6lzCAH0iVxIGKh4FCCUOlCoYrAQbLNob5XVmVpOeMXybp7N/CfelKsI6TAP8JEHC0s7c4Y9dF0AydbvQPVI1H+kCYNEE6TnXexoEG0uDN1IAM+IsAHDpZpqwTNKjsAWopqmmL+p1TSztU1ys1WkycWc/a+W5T/1Tog8f3PdZv8aqMh3yGshyD7+7Q95GwHWEcsskEMq6F9gSkamR7Swrt6bSkZmZtC0mHxaFIbBAw1UI3An5ElqgqzcoioQnD4uz59+Hufqb2SwbBXCQHAOv8P/R8DSB0uuywUNMYmAeIsSUp4qNvx2gFchxIHCysgkhHTp0BCyRxRk+nzmJHq1atklOiDoCxeaYy0nlGiyvRad92220ye+fsnAyByW5gkSVuw20JHKIOinUXCE4YiuCxmd7IUAc1D3T0HLzchgDiyiuvlHMlKCBooA6BDzkFkxRVMkRAMMDvKUDkugQ3DJfweggGeJ0EJAwhMFuBtRS++tWvCiDh9RLcMP2ROgS+HIjwDWtmCoXwuilW4oyCd4IU4tb8EO576nGcc+JJmJndfwBCI2iIAoMqeNlOhU1zr5qVst7dD2O8vwPLAtGJUGMxHSV10wI4bRaZSWttvYgF2VsBEGZgqOhLjYH+Soi+ko/eQgm5SoCiR4agjLKnwYDrwk0kYFuWTIQcO6Hi944j6Y2WCwEEQuELRcFZsioiVAUw2qGr/hCqQixsU0eAgsX6dXVAWCkjdFtpw0QoBljNwKv1bOh4yQ3LB40CP1WsiF81hggJFJg50LiI3lHrM6pMQ0DNhAIHnh+gEvjCtNQ+K8PyyDoA6YSLVNKVSpKdKVdqPHSyKFQC8ndLwkLaYelpnm2gCkEZRkfOpzG9dO8wq7vjaRoTAOHBpc+gJZXGcfMOQxdLFttEmkqU2FhOxNyK0QIEE2Igxc7ZNdMYTYofGQBS+QwjsB4CHTg1BnSi0bLEfHC4PUECt2cYgTN2zshZCpn7Pf/885XoL9JR0gxW8+BJYQ6WlC6XBRyYks98YAlICAS4X4oUKVw050THz99ZUdGEDOj4ySZwn2QKyIhwHa7L0AZTOCluZIiCIRIyEmRCuB6rKxqmw2gQONgcoWxUbI0vKD7cpAtZea03l8Mfn1yMcxadghmZrGJ49gKDEGUITMErfsbfZWagU0T5d7QGBUEUQRHvpbG7WScKKqL3ZixThbvjZRHvY/daYHthhmj6nbwnpDQy6xAAxRCSKdBbLKM3X8JAqYK+4TIGChXkQ6AEV0ILFnvSOK7UJSCtzvFPyp3PJme6TEmW0Jl+TqMVHVUmgA8RGDB7gvujMNywAVrgV+0RQd2AEfoZgKDZBaHgZVE6CMETWismXAGdPT+UvhFaXWH2r8FDrQqkCh2YfdT2awSczVIK1bRRgE4TnRIpFKkgyQ7BhCZ60uj5IcpeIO9cT/8kAGBaZjIM0OpCgQV2wsyk0ZVNoCvtIGuFUguGU0FhGQyI0lYw4fDdO5r2zN72e4BgQgzpZBrHzzsUHU5C4CBvebMX9s42CjEMQnQ2GZ1lMvWQTpXHooOlozZO3jgWM8vkQDKUnPmM2/Mfnbui6mo0kwEIjT0Q5FnRYCFa/8B8JvSYr1B6Y+GlqMM0aFheDLqvhNl3tHokz884Upk96L4Rcg1CYZqXiIp/KnpOzW8cxiqtEN2FHO59YjHOOfFkxSDsIYBQfanqVK7aYyEkrHoNBQGWLVsqVTEJhvjiIpvzpje9SYSbzDIheKNNCAb5j4wNlznz5sr94r0+9NDD5TPSiLRB9N6ZY/FVGy+xBRqnKsaF1Z525aSiTji6jSKn+WzpFEWpZEhQICV3VP0RL8TmfAXrB4awJV9GT8nHcDlEObDhsK19IoFkwoHjhnAcggI2rSMbYKnigHyO5cR0hUJ92wxAMMdW7widnheQxjehRb2dOO/I1MwKZKKg9q2+M6CAqYSqwqMROOtCQxQa6vUZUuB6lk33zIZStFNS9A61RHZ1srSS7EkzAuqZNOelqiCa51Qmf9Vzj4KUWvZb3fqR2g8CXCTDQ03aGEkoMxXTVz1wKHXgz0rFk/BE0gnRmbIxIWVhWmtaikOxZ0WrrYpBEShEewPVunTWoI68a3Ur7fonat/VUdgvAUKUessjxJ+EQUjhmHmHod1VA74ZQBht7YOo8Y2TbvaKiwIA41i39yqMotNm4KUpet3BuzV6Do3nEz2nZsdu/Mz8bfbTuG8DaupOyaYQSGWM0FEagEDajvujeJE055Z8DvcTIOxhBsE0j+II0PrJ6mvOtPEuVcr4+c9/KiLNm2+6CWefdoZkhzCExHANRaRkTigi5TXwQWe2CrM60m1ZbGWlSDIys+aql6ooqjVoi4gpzFxoLM0IYle+pyygnWgkNGCOJDNIcfwKIJgwqHJe6i/TZCkIPBHv0VWWWXzID7C15OOVgQJe3jIklQsL5MItB4l0Cql0Bi3ppKjvXWlIp+oWRN+Fhs6POs7quUXEjSaV0lQmpHOUugL6GaAj58J8Av7ua8qA7wWh1EMgESTkGj1blRumJxdwrRkBU8uBLIByewE8HcpMwINNQCI5BEpjZhypyiJwkdS6CxFqSviTfSE8tX/NWFgBe08oEEAbq9BFjb1Q125CGvpuRMBIrXS/rQSVTDF1VPFkqbhIvQfFn8zSkLBEKJNI/vMrnhTxyyRcTGt3ceikNsxtc9CRcNBqOwIW1ASUXo5243WqczE+Td5rwqaowlW0975axhRAYBYDGQRxVnomTsRVrRW2C00xdtZpN33I9Gy/8SY2c+j76kbv6nHNwDUPszhKIw6V2J7dABBOxYxMpsog7G5xYiNAMIVgSEwSyEgL6kIBDz74gAg1lzz1BE4+/iSpdMlqkwyrMLxAjYhJVSVjwBRVpoeW2S20rw/pVApTJk/T7ImiT+V+xgBhV4fSON9OOc96hsBcMp2AUuBHnyc6Lz+sSOkfBRBslOwQeVgYDGy8NpDDmp4c1vYNibagkkgLwM2kW5AhKCBLILNOOhxVAzGaf1/TNTSfgZpZuPkpM38p8sP/TdMjxtPJEASoaD/lhAlxvBQYKsev9QewkfDUDN+jJoGUvi5oRKZR7CNMgab6Q2ZCMGXSgmezj4vSL0TBgcmaUqDFRVozGgQgysnrsATPQ7eyNqJH9pCJighVNQfpVqFBiwIggc0MLTUB4iKTICm458CWNAsPvu1pAGIqURpAqNJGJbWTJagrIQqlioSIvUoeCb+MSS0u5k3pxJzOLGZkk8jaDEHw3ekhqUEY00HNuyWhszkY9iATk4hUv9zbD9G4AAjVihU7WQNhbxt7rB6v8aUXzR7hc1rPIOx5gKDsWGMQFKuhAAL1KTILCTirALygAtdOKLZDh04atR/V17gUg4o072KpVJn98OVbX9mtlgWttBa7GwiN1bFy4J63dhgapJpZqhmrakZrqzFKSl6T7r4OKXAUlS0XA6GNlVvzWNHdj9UDZfQhhUSmHW0tSemW2GEFSFZLzNe6HlapdDm+Vs1r1k8VBNr+YhhBPgF2WNSiQVdR+XZFnLovjsqBHbji6E2hIcmpsMkoUKvIZ5DZFBT4qZAGr93VAIHMA/elPLGNpOQo2ig7NgJb/c7F1QWaGL6UiofyKZ0lmRhVNIr8ZbUSYuCq2glWRYALV5BUbIIQHf7gutJLwXJhszqsbkVFgCDXQrZB7GdVwY8CQJ6uYqlAnJx+pKpl1bLs1cAwp8XicoHoRAYoGs178MsDmJjwcVh7EvMnt2NeVwZtoSdAgUWiCHhMHUiKHLl/SSu1WPgpZhDqRq9R8PJmMcfehBhGYhBigLCjx//1fb8/AQQj2FK8kQlG1V688hohZed7CFjEJdLJkpoMIntmgPAn00BN9cmoeNRoRfhwypxDcrtrIKC+OcveL6MaDRW9vjs7Prben+xhSiLXmg0Rs9Kb1Rr9yExfpy2yzgBDCf0AXh4K8MzGIawbKKBcqaCtNY1sK1mDFBLMNpDYOxkHzug19DBZRjJW9SzUAAIRDhpHPsp7TcBiVeDLObtKUcBZOosViefVmU06QEBHLuCHnzP1z9eph2QQ9IxcehL4VPczU0J3jUSACsWSoScOl7+LDkE/v2QslIZAMRTcNx0v1+cBhVkgntBsgEsdRmCjgjJKrurTI448TMv5kQVR4Qb1vKb8kuo9wSqRbEonM3mmRnqwXIaE1LUq4OCpbSXsUQMIct2cPJgMCVMjhhlerB3hk/VIIB8E0vVycHAI5WIR7QkHB09uw7FT2zCzJUQbfKkIybVNm8FqQTphLmOAEAOEUT6/+2K1ZgDBxPv3JIPQ7MVvPjNUrSpd0tDL3Q+wbOlySRn1AqaJuvKyYSiBxa4oUCQgIDhgnQiKFvnSIIAolz0RLR5/3EKhc6v12qviUsYEdW13fTP2dHZDox12xiHuzLr7Ymw1HrMx5Dca2+4v11gbm161AVBVNM1CPxyrWndAx8MZbTF0sKns4bnuQSzZ0I8+z0E6044p7Vm0pCh+81TmUMAkOvotFZtWM9vaElXKR8NgEscfBYMg+440KuLZJqxQ0veGKcpzyCYoJ8zZrjkGaxpw4Q86XwIXBY50MSH2aiCFr6f6IvaWqomKNRAAU92D0QPwCTN1H6i3IGugOktKbwjdi4KmFGpewIurM6oqKEmiW0XqLfgB6yOKagKwCMVCpCwLk1Lcn4utBR8lYXaUfkNADXv8yGtF6R4kcKS1DCKcNCUONK+h7Kb6OqiwsmI4hFukZsJ24HssWmVjsOwJUAhyBUzLOjhmZgcOn5DFtESINI8tWQ/quLRGNV1yHz2c+22IQeaHMYOwj4ZF/WH3BkDYnhakMfNDXmZa1GPONNp9juzA3376enROnISjj56PKRMnSFonK1SyIyezF4w+hCmjLDDFjAf+W7FqFZYvewH/+g//gLmzZ1cffDmmvKYoy6zFepXgaPQBhpHWbXb9jXqXxm2rDkmfQzN9TJ0T2Ynz3F0Db6T7+nr1OTvafkffm+sb7XqN9tieCJnORAR68oIXtybOjamHUn1P9z0oBDbW5jw8tb4PL/bnUEymMKkji4kpOmPlqMwM2WQdVUMBEbW+EvMZ8GHctT5jsgCjAQh0gNqJ80c6qGBmq4WOTBIb8xVsYE3mwBKnK2CaICHi9AOLCZjqueDx6N46U4zthxgoB8oJC7AIkPDV/Ngjs6AdrhGeq2dbh0jgIWWxWJKn6jaEKuRHRx76FAjaKFC34dDCCbEZj1d2AqTDMiYmbSkXXa4ESEjJZQ9BpYz2ZBIzOzPIecArfR4GuC+poUDIoLy/0TiQRVGTBAVkRNehsy8EJGnbqiyN2iIhHx2GIMNAhkMJMoFSxcdwroTB4RJSDrBgShsWTWnFtJSFFlT09fOOkjFpnq23u57PHe0nBgg7slD8/TbCK6MQZjx1dzAIUSfCWT4zDJiOGE3NrAKBSBpYTQdQS7liLvPaTZvwzLLlOHz+Amk1KyKqJi9JpSSOLrY0mmFhrBkTJ+LYww6XGvFGMS0vQN2OVm1qZjlG0FW/v8Zyz1VhbRNHbdqOR8+GdTC4sF5D4xIFB2Q+mqXQMjuD+2X6274o9NQIYLbHhIz0XSPAGe164mia5LwbR9usKuZI7EX0mFFAOCJgY6xbKhZEAYKLolam83OCg1dyJTzyaj/WDJWQbG1FR1sW2aQtefacQZq0QxUrV+2DDfVdU9obCymHJMBCL2oWvBMAgTNfPtNWiKkJG4d3JJFO2Xh5oIzVOSUmZFlkx1bxcdLodKnCH0g2QUVm8QQRnQkHszsyQtu/0pfHIAsS2WynDLgECtxeiqwp0Z+SDaiUQjrpNitExgFaE4H0T2D546TNDAmJQQjb118OsLnooUeHbwSY+AyBVDA1ARzUmUKpEqK7dxCZTBqTO1PwimVkHBfpVAJrB/IC0HJSGlrrlCIplCakoMyp7aqdPu2qFtPzguceETlqIabqG+GL2FFYV24vHXJtDBc89OYG4ZTLmD+lE6dOb8P0pIUkszLkPRMDhG1efPJga9I4ZhCammevf7gnGQTe4+iLmb0r2EGTjbI469/WMSr6TikCVPVMeXil7DM7zPn42W9vR5GvnExaCYaEolRoP5riWSu+UjuKzzLesNDqW7jigjchrX2+EUORPzDgQPrpCUiqxQijTpEFr+ico3UlRPQ4AkAwzsf8ZElsOjIW6GoGEKqUsFC2qlxudEbM4l1kU5itQZCxM0zH7hhkPD8p56sLVkUBEm3SCFrEaVAtr4GRVPrTtUMIdhr3w+3Nv2bXxmvv6+uT6qL8npVC2VqdvUtMgSxeZyPzwvPgsaJMUyNT1Ow+1j8nKsxABsGiIw3Y00D1MqFEcUPRw6Nrt+D5/jKS2U50ZVvECUphHakbwHGm2gYz7m7SA62qY9JD2two47jq0vlUHL1azGh7N1UEepQhBkjBw8EdGRycTSJXKWDtQBGbvCzyHol6jveyiBINQJBpglVm5wcBB+y2yxoAh3a1wLVCccQDFYZLVDomBZqhzY6PwKYcKX6VB0FoQDDUbgeYl01icspF0oGUNU6xsmMQohT60lAqmUqh1/Px6nAFa3M+yqJJcBTLAO//Z+89oCS7qqvh/ULlrs49OWqkmZFmlDMoAEKyhADJQoCccAKMf5yxsQ34c1i2YWFM8i/gX7b5lpFEEiaYjBAKllAECaE40uQ8nburK77wr33uvVWvazrWxBbvrdUz3VUv3Hffu/fse84++0hs/4yeHMpBgIODw0jZLpZ3ZeU83FiWevd4FTspMEWAYdNToLgSVJGMpjo2ymE3ykM3AIJRaVQeAplmDBchsl4wvExPz0VCqrZskcMeHB2DUynjkmVduHBpG7psX6pOclFjalgcjfHYyjliD0IrvfYLdsyxBAhm5WwmYPIDqFzJYlHkBhy+qVQstZk4rAII/JwA4dO3fw5FGsu2dvgRgajZHxszIWoyEXX4Ad7+ppuR0e5bASVi2E0MUrVD2j2Fd4L3ZQBCs0jVVMaMBskYK9MXVODksVTnbN6iHgcDFIyiJkEJNxpHemOY2mmkwWfvg6O3Bw09U0opQkXjzOqgFAxj+whajOqoAVA06KyFQoBIQMDiZSx+RlVPenUodsUwEAET+4XnYtiIjzWeZQAAIABJREFUAIAqoMZom/6gtsVdd92FP/mTPxGAxHNQDp16F6ye2ix4Zo5jW9luypvzOKbL8jMC1mg/Nj9HBhYam0qpU8EF5s47ooRIoDkRAj/vH8eDOwdRTuTQ29mBlE3DRPKdOUKvHpXEIEKdN98sHFR3cwvTvzEeJjEU5hpiEIVAD0syIdZ15tDnuBitFDEGB0NVF/tHqqgEBMNM+6PGgUrt8yzF1WE+U9JT8f6uJLCqPYHOdALFmi9jioWQ6AtzeazroBAEePzgMAaoNcCCEGFC+AmLkwE2dqTRZvmoVQO0ZTNSgZFjfMwPUSyX0JHPY9wPsW24gn1FhjDU2JR0UXjosatY25VG4NooFstSYbY3ZaPNDmHbLoqOg/5aiK3DE+iv+igjodrgqcwQ6VdbcY2k64WkGN10GKTOR+B3De9NHbeFNmp2QoM9ejIbixW+Hww7sX8Gh0fQ61dw3ablOCVnIakVK0lNPd7APnqXMUA4evPhy/ZMxxsgUPqZAMFIXk/u2AZAMBOiIHztQaj4Hj51x+0oMHUp36HSmuaR/sqytajV0AsL73jTm5AOVIqjsKh1VcuGB0GJ33DWb45lK8JjVYiOjawItbSYasDTIJrvpAaG7ws3YjaAYMAEjRiLblEqm4W9eM0TDRB4T6wzwiJnLCv+y7/8y1IbhEaesuTsH5YdZwE03i+BAfUqWPOExpxA4rd+67ek/DnPc+utt+J73/se/uVf/kXuj0ac52FZddYbiYZieD5WQX388cfxwQ9+UEASAcaXvvQlUdQkSJgudMPzfvWrX8W73vUuuQ5ro7DSK7NeeByBTrMHgatvM07M8yUPQZjp1D9glr+WS6amwb17h/HEoQK6u3rRkUnADauk8yHksw+Vd8WI6AgU1iz8mSYZid2LgTQ11g43WNMdr9IWa+h0Q6zrSmJFMoG86BMAY2GAA2Ml7B9n2CRJ2w6LlRutACXfxajnoiTE3QAJSSmsoi0VojsZII1AZPIXpVNIA5goVJDPJmC7LgZrAX7SP45h0YdwJRyS8j2syAKnd7pw/TLC0EEqlZAVNXkIB0pVTJRL6Olox0QNAhD6q0DNpH4GoYCtTitAd9pFQUCPhTXteXS5QIZ8BttG2XYwZAE7RkrYWSijCBdemJQ6CkZcqe7xktRPhgfkSTR1YXPh7Uh9O8kAIWygKqQuEx3wKTe0Fjh+GVAYHCug3D+A156+Bhf12cgSFIYsP52oS2GfCAMTA4QT0esL7JrHAyCYLqFRfPjhh3HNNddMCRAkLqtTjuiqVQEpInO1mi+HPj5z2+cx4bgI2vKwHFNNbm6dLkQqr4Y+38bvvukmZKlsJ1lqnOR1XrXOL1crRuUK5EajRENGHgWLYRkXN40TV5/TcRDoDWDqJQ3WunXrBFTwM3pTaKCm8iCY0IxZ9fJaLBXOCqSvf/3rZaVL7wEFofiZWWHPrReOzl4y+XmeqFh+9KMfxT/8wz8I8GPog8JUVLZkSOlf//VfxVtEcMB+4v2yqBjvhzVMfu3Xfk3uh4aeFU1ZZ4R9REDx4Q9/WIinH/jAB+qhBNZPIcDgdQlC/vqv/1o4LQ8++CC+8Y1viPeA52SNkuaN/U4vBkuj/+Vf/qUAjG9961vyLPgc3/3ud0vmSzPnQ/wFdU0DJVPsWbVGMVQBCErrf3/Fxw92juC5QhXLe7qQozos0wUnyRersNVhNJmpHk09Lk7XeAMkmBWtcW/P9FRpFB3U0Je2sTqbQLtXRRcNczKBQtVDf2kCvkWiXwpJqYejVsITPrB7wkJ/sSLhkS43ibYkkEmGSNohxscnJMy3ujOHdtfF2EQBmYQNK5nF9tEJvDRiociqkVQlhIVMGGBVzsa6bgeuV0GtGiKbSSHtKsLjS8Oj4tFZ1teDku/gpcESDtUseA6zE0J0sy6Ca6ErYSPpWNhTKCLruliZSSPr+EgFSg+lCAfDtRr2T5Sxu1hFwUqi7CdVeWohYSrukZJ7VqmYBhyohYkJJzQBhCm9NQ1QIUBDdBy0vLRktyQwzJoa/f24YHkvrl2TQk7HKWwrqapDnqAtBggnqOMX0mUPV4czOcoRJcXSOO599FFcecH8hJI4qVKy1LjvORE//OPDQwwN915NcRZ03rfqRwUQuJUCD//f7V/AOFck7XmVstTkHJyp76UAlR+ixw/x9ptukhWHkBSlbGsDILCIjXKrNtKeaKRZuZP/c2XMYlnf//5dYhRPP+M02GwT3aCRgl08J43of/7nf4qB42pYJijfx+7dO2UyoyFTVUAb3hATYjDaDjS6995/D3bs2Cb7LV26GK9+9VXigaBhSycP5yA0yHfHJs/aiE59/vOfx0c+8hH88z//M6677rq6vDVLm//VX/0Vbr75ZvzFX/yFuPEJFAgGGF7hMXTz05gzzEAw8LGPfUyksrnPli1bxIhTWZDnJihj333605+W50DvAs9Nj4HxJrDf3va2t0llVPa34ULwOTAkwjZ897vfxZfu/DJ+/dd/XUqjc+O1GBahR4PXEe6D9k7VeTCiRChPWMvn8m9lTrgSphGuwcGeiodv7xzDlokaVnbn0OawQi15+IDjVVUVVYnxN97Uuniy0iHS3zWIc/L2EySLLkDjeaqsgsZ5lLqg+bsRlJDVPzx02iQouuhMWOjMJZBJOqhUPZTI8HcoFWzBK1VRDT1kMnTLJ/DMSBX7x4rozWexLO2KgU66Kvywr1DCocIElnbmsCSbEvVAZiwU4OL5gQnsnWDapCs8C3r70vCxOm9jXXsaYbUsdRlymRQSjN2HIQaqrErpoz2ZwlgNeHGohP01V/orZ3vCe2Ab2hgmCGxsGxlCR1sOfcxcQlW8EI6dQtm3MFGrYTwIMRBY2DNaQdFjqINESMUVqYcYtAdBaSCo9FSV+tjoV+OrMQCt/g2BF70/kTRQKbllKU8CwyqBlcChCQ+D/f04f2UPblidQM5kJomOYgwQJs3ZMUnx5IIPMwMEo6RY0rUY5g8Q6itxyxG3+o8feFBWjnTlmq0xGJXuumqTMs6EAGYyrfkhPvX5z6PgOrAIEARINGcrTN+/XOHZnoduAL99w43IMs2qiVRIpjYzIIRrrFOumOa0b99efOUrX0F//wBy2by4yHft2oPf/d3fxdnnbFLAQJPMoqQ3GiYaPrrauXr+0Y9+JMbtueeeEU/C7//+74thnUowhfvRONKAjY6PYKw0Li55ApRXvepK5FJp9PUuQjqZmTzGNLhR66JjBxB4nwYg/NM//ROuvfbaen8SQL31rW+VkAO9RlGuBj0API59wneB333oQx+SfqK3hf1CEMB9Xv+66/HOd76zXoGUXgl6D/7nf/4Hb3zjG3HDDTfgvvvuE8PP/mLpc5ZX5+cMG9C7wnbefffdcn6WUT9tw3r82Z/9mTxDhjV4TYIVHsOKrgQoZlPvhyL5CYisl/htpDsa1UG+MzurPr67YwJPD5ewtDON7nxWyIyU2GXdDzkfC9KJWqB6x03qX/2aOovGaAiY9EchJGowqwCthpXGy8WIGIEEY/HCtyEwsJG2bSzLJ7AkbSNr27Iap7FOOCEmvCrGQ5JtbaRDG6XRcdGma2tvQ8ECnhqqYLTkY2k2g/XdCXTYARJWgPGqjd1jExjwakhawPL2PDKuBQ6DwYonxp3n9S16CyjPbCNp1XBKnhkUWaQDoCJkUQeODdTIFXDIYWDbQvRXQ2wZKuFAzRGSInUbVnWmsToRoC+RQq1YwYhfQ1d7BjmoEB7LV6kMkRAl+JgIQwwHDrb3FyXkQb6AKXEvOgZaZEmBMlPlQs050c2kXZvnZACbeh90wSfBHCFcLjoIGuhNsFMoheR3TGB8eAAXr+7DDavb0K7Jpo48nRggxADh5MIEk1ozPUBQKm1Karl1gCDuNl3LnS76H/3wLnEDR7MYomi9vpLW4EDwvKSWhVKd9t/vvBPlXAZOvk0G4eRjZ+5ormIc30e+VsOvXX898o4NNyFrQl1vjzKt6hyMe5oS2If6D+CrX/1v3HPPPdi7dx9uftNbJGRAsSYaQRohrljrgEevEOgBoNH65Cc/ibPPPlsmExojkvN+9tQTeOKJn8pK+pKLXykAwwAL40EgX+O9730v/viP/xhPP/sMvvK1r8iK+RUXX4LLr7hMVsjLli5HhkawfvXpRXaOxmuozaWcKgoQ/vEf/xGve93r6hMmQzE33XSTgAMCQ/aR9GuthgceeEC8CAQ6BE3sJ3IPGGb4+7//ewEH7F+u8q++6rX1EA6vd//994NghCCDoQWCBPbxE088IaDzvPPOE68K3zFj7HkcCY0MLfAdPPPss3DOOecIOCCXg6EfambwGbAd9CJEN1NKWGTItYFmLys9BFVeme941bKwu+LjuztH8ZMDE8i3ZbCspwPZBLUHqPdPHwNj8gldGE0bKa1zQFVD4/omGFDvdoM420AtOrOl/tBV6MGME4bp6DonMGEqb3siKca1N2kjrNSQcmy0JWwkbA/9w2M4VPKRzqawuCOPhET1aNAt7Bot4IVigLKXQDYMsbzdRU/Kx9JMCsWJGsq2i2GvKvoDXL1PFItoy2VFqXGoFqDfs1CW5XVCwHPargpAWJPPYGKkIGXkl/d1CI9hdLSAwWIFuWwKPfksxjwfLw5OoL9GTgE9c67UPliTqGLz4l5Uxidg5bLw/Co6WbfCNUqISg3yYKmK/RMexkMLg8UairYL30loiWPKRDe0D+RdFj5BhBitfXpRqBCda0R2WpQa+TwVgJQic3VxKXI3Ehgse9g/MoqwOIFXru3DjasUQFAiW6rK54na4hDDier5BXTdI/EgCIKe4V7pdBUlRB3jY4jhkYcexjW/pDwIxg1OqWOzkcQlUqqR85ry06ysdusdt2PMsWDlc2oIz0MgSFLcPA89sPG7N92ErFTf8zRAUGljpkCNWi1QYMYTY/bFL34R3/zmN6XE9Fvf8it1DQKufqng+PGPfxw9vZ31VvNev/a1r+Guu34oBDq6w2nQn37657JipleAxu297/1L5U1pStMkSGBogitfGsJ77rsX3Z19uOKyK3HNtVdh0+YNYlh7e3vUKlmnhrKvlOztsXkJjU6GALcgkFU+OQgECMaDwH4mGdF4EB555JF6OigNOzMQGOvfuHGjfM7z0IPAPiRX4TOf+YwYfIKjV11xZf1Y3i9BBPv2ueeeEx7GLbfcIh4DggoCgyuvvFIqefLHgBKTXkn+Aa+z7rRTxdOwa9cuCRkxhMMUSYILhic2bNgg3oXmjfdOd7eYbSEWCnNF5LWoI8CSwbsqHr63awSPH6witNPozLE8cAqdiRAJvyJ8Fwt0dasHRIMiksRazY/Gtb6apUeK3qA6OVG5tI2ynxL80Yp8BBSURK5DRalNKCE1qgu2uzbydk0KIvV0ZZFN2vBLFfHMjFd9DIwW0J3PoD2jPE4lANsGCthZZilkEvFo1CpYkgpx/qIuJGoUObJQINHXtVBxXOwaYk6EheVdHbAtH9srHrYOlySLgGqIbUENazscLGpzMDQ4gvGij1VL2tCVzqFWBbYMjEjp5VWLO1H1fWwfKGDEs1G0k6ix4FPoYYU9gXOW9iBnWdhX9TA+Mo5V7W3IiSaKkmEuw8KOCQ9bRiooexRtSopwkwAB+BIGYd6JyDzrUJJamDRSGRtgQYVxlAS7kbdWCxbjUZBiT3pT0tRJVEMHQyUPe8YmUKh4SPslXLm2FzeszKGdehGaD3FsRunczhoDhLn10y/0XrMDBDtS7nlyiGE2gOCH1UZQNAjFuHJFefXV10xKczSVEFTVRrr21Tq1Dhq0IoLnBbj1jjsw7jqw23LiQeDKYi6bkBGp9e576LKAt99wM7Lw4YmmvZSpUex1bahNmOPAvv1ChHvppS3CrL/88itx/fXXa9f0UyiVJvCrv/qreP/73490Rhk7nodG7Mtf/jLuuedelIoVvOMd7xCjx/Q9rqjpFqebm65tehRU2meDh8D4OIl/NGQ81/d+8F10dHeJUf3Vt96CFctWihHrW7xImOBq03Ur5MHoVcpc0uDm0oF6nzqo0x6EL3zhC3UOAvkY3GjIGUp5z3veI8S/t7/97fL5gQMHhKDI9EXeN89lDDENNz0tBBDkIZCTEHi+8BjYP+xXrvYJLph1wJRGEtoIvGjQ77zzTikBzmuQ0/Hnf/7ncg16BcgDIXGS4RqCNT6/zu4uyQwZGhqSkALbzGfDNEuCEGaMGDEs5dkJpRARwwiEBUr/Xy3hnYCAzEbFCrGjAvEgPDZQQ9WmufRFN2BxLoWulIs0GftC2lMeKpVhoEEH0/EMNK6XizacBC2rXA8nKKAg1zckO11QSCVgqiwLGUuBj7RVw6KMhdW5LDJJF3tHhzE2WsGKJYuRTYTYMVjESCWA4yaVnHDgoxICE7wDKQlNy1fF8qyDi/q6kEGISpXhiQBeMoH+iof9wxUEoYdTezqwMuWi3w9FSXLESQlAyIY1rGq3sbKdGQVK3TFh10Q8yQ8TKBBwFAqSxTBWC7B9sIJ+z0XV4R4OHN9Dr1PGhr4M0o6FLf0TyNkWNvRkhawY1MrwQw+1RBJbC1VsH/VR9pmh4CDQYklSX4E8TO19UQBhsufAjKXGHKTLU0f5HppAbXQUxMNpUVHTFQ7EYKmC/vEiKjVVRjrjFXDFmh4BCB0ElSdYRVGmiDA6mucxCRzLXWMOwrHs3fmf+5gCBJ+EHRpM1S6lg6CyGA7TQYjUTW9ONjIeBAKET99ODwI5CCrEwEyGBvpvPjLaH2pCDysVdMHCO296swYIEgmWdaAyseJH0JUfgXKxJNoNNOjkIHBVSpc0yYXDw6PiDfjgB/9JVvlS+EXizCzmAom/f+Mb35R4Od3ddG+3t3fi+9//Pvbt24NTTz1FXOw0oq985eX1+D3d8PQc3HvvvZLWyIyAXXt2YnBsSFbJN15/g8TuGdZYsnzZpJQ+FU/VhoOyNfOVi56F0kFXutoCyei47bY78IlPfAJ/93d/J4RNE1b5j//4DyFy0hvAcBLvnffD0AENPttFY87USL4LBAhMdaRnhfuwv+mZoPF/z5/+mRh9GnQCBAIM6i+Q9EkOCMMDBBbsb4YS1q9fL+EJiiYRrBGYEuQJQ37ZMry0dYv034GDB+VazAyhF4eAgOei94HZIdG+E/AYAQg0cAxDSflhqWxIgGBhRyXAd3cU8PhQDdWUK++DU6sgb1lY3NGGznQKOZfhJK5kWRVRZe4ISY5VC2Wlq+R/lXpiFCAYN7gJP0QBghILUyx6dX5RE9XPP5+ysLItKemApVqAPWOjKJUsZBMp9HancHCsgjExZkrlUSo1Wg6U+E8gAIFgq9sJcWZPFikEmKh4CNNJDFQ9HBgvYbwawHOA5ZkETu/MoX88wNaRIsZ1pVWGO3ozCaxpd9GeZFXEEB6LrjH7gH4VyU4IhCMxVLWxZbiMAzVFdOS90agm/SI6MlReDDFa9NCTdnFmTxsyLvvPFx4An8OLoyVsLQQNgKCLXUm/ayKxSm+MLjAai5JGTQaDjM3cov5nvzC0IOCOoYaQ2RMQ/Yb+QhmDE2UGeZB02HYfmeoELlvdHQOE2UxUDBBm66Hj+/18AcLyXE6v8FU7Z0vV4iTL9RLHpEpzfFzi6A2AYAalcvGZ80W1B3i8uF29EJ+6/XaMuhaQa4PP+F+EtDVbzwkLvRagKyRAeJOkXTGzQVZh2tXIVhgtBGZgjI+Ogal1BAcEOFxhXn755di5c7ekydGAfeAD75PVp8HjFD/kapdGnmECpuqdf/75YsRoeD73uc/JCvWdv/c7WLlitfy+YsUqMWY0Ukz1YziDvAW66nl9Tkb3/+89uOD8C3H22eeKa/ysc8/CJa9QRDwhdOoSvAJxNCojuDpaBauF0W9WsEFNjP7n7/gimLHwhje8QYw9wQ2NPNv35je/WcAU0zEZ7+c9ESyYVT0VD2nIja4BiYYEGwRF3BjW4WcEHvwhGGP/0S3+qU99Ss7Nz3l+pjj++7//u3gR6M3h/6YPGI6gV4DvHb1Ai5f0SYiDnBKSPnlO/k5AceONNwrYi5JXDVCIpsNx9TsaeBiv1gS85BKqVt+eSojv7RjHYwMVBKmkAFh6QuCxUqOHfDKBzmwaeabmuVQeCJFg2IKI8rA8fAXEzCbQTFcirAv+0HBLJXQF3GSsyMBsHEd1Q5diRglVR6Ho1VASXwX9AD4sx0dNJuaEGGFT3VAIf7qIEishJkJHMn8WpUPYjoOxYglIMoXQQqnmw3ccqZ3AmgNLMi7Gx32UWYVR82TZj8mEje6kLQCjXK2gwAv7LhKBhaV5G0vzLtpTFkZrNl4cqWAvz0twFhC4EKSpktAMERCU9bo2TulQHgXUfOSSDpKuIx6EFwo1lFmBUtJQjSpqY46RDBQtnCTPWOsZiB6kLt1tgJLq28ZihONKslECwPMTKFMQqVTDULWG8Zoq8czwGUMJCc9HsjqGy9f0xQBhtkk6Bgiz9dDx/X6+AGFZNnsYQGgWEpL5SU9YktOvSTz79u/Fjx96Aq997TXIC4eAO3KgqwQytUXFjxopl7I6Eg7CbRh1XDgdbVrgaCavweS+FCW7qoeeEHj7jTcgRzcxY8IRHoO4/oT8qLQKfvazn8kPQyNcidId/Su/8isYGBiSEALJcH/xF+/BypXLYdtJmcC5UqWL/QtfvENS62jIqtWyjrd7kuNPI0eQdP31b5DUPK7W2Fc0uhTy4eqcK20ez3ZwZXvvPXfh3LPPw5Jlq0BlxUtfcTGuuupK5Nqy8ENq4Gk1SMOs5p9HOcRgetQPajh46BC2bt0ubmGCFP7Q+HM1vmLZ8joIZH+88OIWubfoRmB06qmnCpgieCIXgGDqtHWnIpdvE3BE404DTINPA+7SPwzgy1/5EtauXSfAiwCDoQt6IFauXIk/+qM/EiNvGOI0RCQykmdA0MbnwTbWahXJICHwIADkOZiSuXqVAmvNzhR2pwFi1dDG9kIVT+w6gEy+A6u7kujLZVCoebh3+wQeHyjBT6Xrqr0sQCTk04CpgDZyiYSsovNpF7kE6xGo0sMS7tLvo1H6U8RFQ8iNvu8NEMB7VWNNDyvdeImbS+iMmEH+UZLQBNesvcDyAVDZQKYehBIT0vF4QgoNnhOeqkPIlEJzHVMTwniWPBE98pEIWVZa1UDgm0leDPflytuQJ9nSms1rU6PARRIldCV9dKeTCGwbB8c9jDAqKGEZ5ampsXCUljSm9DPl0umRMeC6I+WKXsLBYhX7ax6IzVRpdyVOxSwPk6Vg7lFllDRAFcMhjXGj+psLERUYUuTUKmwBH6WKj/FygELFxwQ9ItzZJWE0lLoU7FtmTiUro7iCWQxxiGFmAxcDhOMLAGa7WqsAoZ5nr1eu0WhWc+og44Kjo8PYv/8g7rv/p9i86VzkckwlU1xwKQYjKYINZl10ojMMYwKEr/zwByizjkNHGwKZSBVRbPaNKwkLlu+j0/Nw/UUXigJcJpecVDdAxXPZqkBWwi8+/5wY6wcevF/i1zRAb3j9DWKgGdemWA+N0SsvuxSnrD0VXV09soomQHjkkYfEKHDfRYt7xZD+8Ic/EIDB2Ddd5u98x/8jMXqT5kiDyB+6yRk75zE0YDSSX/r8F3Dtda/DprPPk7TH9mwaG087BelcAqOhJZNikW5iFs6h+iQFoCIFfqbqI2N8Zu8/Dd90/0Tz+Od67Fz2i7aHvxsj3xwtJSeks7O7HgrgM3r66WfkeZx33rl1gqI2l/KesBQvgQjBWVs+j0w2ja4O5S0YGBoU7wI5H/lcU50Q7aWS2Lxk5Ki4/LaJAI9t3S8kviU5YE1fBrlkBi/01/D8cAleKo1Av1BivLWeh5zD82R9zpLLWfFAOMgkLWSTDhI2zaVav5uSyXWFPlLlVKakZCqYEdDoW+M90kC7SSuBAMF4CJRIEMs4q6JMJvVShTdYoIn3mxIvAr9LaSXhmqNCIlI+WZMo7VAVa5JNsjEaBEDJqJCKh4bkSYOv0gkJKFRRKP5fgxtWkJYizhYqAQGBUmGU09o+ooTARE0BYnVe5fmgWBIJjNXQR5nvv4ArpXZpKlSavjKhOAMU5Br0wvnR0Bz9PkppscYaE0GIiVpFgAFBQbHCMIatxhxBnk2gpRc+BrB7AVLlcVy2tge/vCLmIMw4D8QAYS7T5PHbZ74AgSEGI1zEVkbzeDkB0qhFi+xIXHd4CP912204/fQz8fCPt6CjfRGSCU4DSTUJMdshpFiQcW+a+zd54lzmOAj8EA9teR72kkXw8m3wqIjGnznG2TmBJXwPbcUSzlq0CKf0dqFvEStLNohKQimSCnJAtVbE3t27BRjs3LVdVriMWa9auUbi1Fzt0vhTLTCdSWLtmnW45JJLcc45Z2N0bFgABBX+aNyvuurVYuxvvfXf5DjGywuFIv7qLz8gYMAUJ4xWaTQ1HOiqpAH8/Oc+h1e9+jVYvXGDkCM782mccdpaSVHbW67i0V37cWiCsfGMxIyZDz+VhvzRe7vmrkHRMNRzu7oCiFOfX8JWQTCpUJb6TBnh5kqhUQ+XMdRiCBj34qpaEy753XSVMc04MaI4dC8PeS72FoFKmEAqLKA76YnITwlp7C+HQt7jMrIZ3DCiUG+Hr95fRs0ELLgJAQltqSQyCYoXBXDFy6VWvsZYU/ef2grGs1AHbHUhJVPISUEIRZXTbHsxuA3WvmTuWKzBYLwGynhzpY8wpcsj0wugvq9Qr8CnABINM4N0PJcy4oq82TiPgHsrQNJXACKsV71U+5t96UUUuGNIw5INwHHYyCwiB6Re2CpgWKLBBzDn4TlZ80E8jhFni3ArmkI4cj4N3KIeIwO6JHzA+/UDFDz+eChQr6FWQ9Wjl4VcEBJLHf0uEjApzoZKNVWqm5TQSJfHceXqrtiDMNvwjwHCbD10fL+fD0C44vyLQYAwNDCKmNVSAAAgAElEQVQgUslk2jOHmStorty4MfZMg0hDyvmXLPXtO7fhb//h7/GHf/hefOPrjyKT6kEqydQ+Va5ZBlXI3HD+rkrp1jcRTiLhSiUmPbZ9O6wlvai2Zes5yMoIzh5qEIDg+cgVCtjc243TerqwZFkXHKZN6swJWZNogMC46+jIsLDqabjJP6DRpiFatGiRxNM5wTz11M8kBMAwwqpVa7Bp0+nSfLrWGZag0SEooFueGgBM8SLbu7dnCS677PK6VLIYEp1FYe5fwI8dyrm++PnbcMWrr8DKU9ejWCmjpz2NTaetRjJrY6BaxXOHhjFc5RNN1gvTUFhnJu/O8X3b5ne16VI1m+/HAESzQowCgsO5BDTYyoDJd6bAjlbBbJx7sljOpFfSAip2iD2VNLYM1VAKXLQ7Y1jRDnRkcthfsrBjvIowmYRluyrzoe76V6aqAUocSe1Tz16R3rgQTVkOUglLpJozCRcpx1KVD11LwASxn1HhE/e6rg7ZSPtVq34DsUJJxWMIQ63Iuaq2rZoy2pIu7GljrVb0BA009jYrVTohArsqbeN9ML5OgMB9lKywUiFV47ARnoiOSZdSxxLSU/ME2yCeAwEMkr8k49uAApOZIURAGlpqSMgw114DVkNkISh6ROyqEidiJgG/Z6q05mrUswx0QbZmsFb3etgMnATwPXouWFXSkUJLJHSWajWpHFnhAki3IWA9GKmwSg+MvndRriJfyqTC6oWHR4AwiitXx1kMs84AMUCYtYuO2w7mWUy+YFRqmUqKNgZKRdzz6EMitbw0k8HB/fsFFNAlOzYyKsaPwIAxdVMCmYTEtrYsFi3uwSOPPobv3fUDvPvdf47/+5/fRzpND0JOAwTF4q4Hay09gTT1AicOsoIf37kV/uIe+O1tutRz3a85a79xwkz6QG50FGf29WBdbweWLe6Em1CeEOPelsCHpEWqKnP8n8ZdUvIIWIJA+BBGylckpQOWPvbE6CjpZGURot4NGjAaeh5fLBWQcFPSj41Jq8G/qBs97VrwvCruu/+H2LT5dPRpDkJPZwYbNqxCJmvJ5FXwOckp0R6XK2ojtDNPrYhZO1Lv0BxKmum4wybmGdo0075RV/1s12/2LNUBWESfeDrw1AwseG8mHZH9WrXJlA/w0PO7kMl0YO2iBFZ2Jekkx48PlPCz/iLCRELczkzdNTnzUpdBXlmTc69j3CwKZj6TVa0qkER2P6ExSylnbEfKRqeSLJXsIplwkXRt8TDQoIoSAjUVqBgqhlq902YVz/Zb9NTpjCElFqQ4CWZlzrg+tUiMAJS0lODB5rEqFEGj7vjK46fknRV9j/UoZPVdrx+h9hEjH7gqI8OuKt6DgHAerLQFVA0WDaZA46/c9DwnNxP644pdKVeSz0GSMpULa4pnYO7DeEgM/0ZzO1Sokl4ICk9zaFvwAlW2vOz5ouxIz0C5FoCF4arsC4vzDhEZq1gprxPvURV3UpvSptCbVsmU7BYhXduwfA+p0gQuX90tQklxmuMMM0UMEOY6/R77/QyDP3olmVi0cWEcm+pwA+Ui7nnkYVxxwYVYnmuDV6mCKYcEBc8986x4C7jCJumMRpSrbBL7uJLu7unA/z7wIL77g7vwp3/6fnz2P76PTLoPyWRKgQJZQRgeQaP2QXNsXAEEC49t3wZ/STdqnTk9Ec3dzU39eLpl2wvj2NTdjtN6O7FsSQ/cRDS9iQM7AhCkcyavJqXeu8/MDFV7wSjtkeUgioiyu574dfjDkLjUqtWWcINl15DLZuvqgybV0jwPXoPucgIKss3HC0NIp5NIJPKoVsro6shg/UYFEERFjysZFrKix4WTNsldc/CsmOtNv2ae+l2c3WcTPW6+Z5/8Vkb/muQWjoSXpiPLRkFAM2gQA6ZBmDm+uZ6G2odKeVzkq+qfDIxRrW9gvIL2bB49WQspJ8Seqo3v7irgscESwoQDcQeIsYgQRuV6uj/Eza1lnPWqty7tK8CCu6qSymynGFeqfJJPk2DRJFuUEVnwiMRHkh0prcwUSnGh10m4gRAFudqVt8miB0J4/AIAzHhLkUwp2geGaKyNvhA0k8JtccIqLEvJFkshKG0gjfJj3aMXkuCouA30RLCsNUMSNP5shQmL1PFamBSyLc+TlKwOD+Q7yHm1sbekqLTiXzRKKfGOFCFS+lnzHzwCIflMzWm1wIdHYmGN4YIQRU+RGCnh7pHkqz05JHCKcroGV0Ly1ONWfhdwoQif6p1plHNXd9bwnYiHJqgiUxrH5asWxQBhNrMWA4TZeuj4fV/TLkNlzhQkZmyzMXCV8M6hiXHc/ZNHccVFF2FlOifx8GeffR6nnrJO4vJ0wRMYkOFPsEDmPRntbfk0Vq5cgW07tuKjH78V7/mzv8X//ex3kM0sUQAhGmNmuEGvJmRgasOmVMwaMrKP7HgJweIeVLty86jCoPrUs0KkyHoeGsPZi3qxvrsLS5Z2w06Qy6DTHfXkZcq/Ro2HMSbiUfD9w6r+iau0vjJuSCcbcEDjYr5XAMFHW1Znc0R03aNvwKT4uVQVVCCkXCmgqyOLDRtPQSarcuenSm+cK0CIJpse/TfwSMBBA2wdSbumAgZzP1+0/ZoUB5UayFUo8+pF/MgCdlVDfGfnKB4dKCNIphGKTocyGKYyaOO62iUfASjiB5CVLkEJ9RUmt1JspfAtuHLm+6C0DhyWkdby4AxBpBwHGU1uTaZcJG1qB7CmQSPDiOmPqsKhWq2r2gSNjAkzBgk0lKSC8mrIvdDtL9lJikgpngTWFoi0VylCqk2IgiqVQtWQMHodkXTMkCDCZDHpUEU0zKQ8L0oYPbBq8MTTwXHN58BQjQqnEbxVSQ72QlRqHqrlCsp+DTWPgkxKAZGLI3MtATCaZDjJK6U5CuazqZ9fxGNinrQGM9I3Wo01Wy7EWQxzGXAxQJhLLx2ffZoBgsopaIi12oGiNh0qjuGuxx/GKy+8EGuyecWQZz1zrlbpLi+XVK5+GEoOO4ECU7lUznKIHbt24m/+9h/wG7/xe7j3nqeQzfQgmcro7/XqoA4Q1CQg74lhawfKXU7X5+PbX0S4pAfVjqxMSpxSzGbSsabuPRZQsUR6trMwgc3dXVjX24VlS3rBGi9c6XAi4AqNJEyZBqfRWFAhhsMBggjTHLYp0Rq1NbwKE4Ui6GE1AGE2d7lUxRTlSHoKaqhUiujpzmH9+nXIsJJepB8mTaqz6L03t3gu+SAClKa40+mOnUtcf/o3vqHp0LxPtA2q6qI2Ria8I1kAjYI6s/Xx9G3Q4QAx5A2RIuNpM8fRw7W7EuLbEYAguW5m05LJjQ+mBk715zddimqTx0M8TIZsp7tBCkNxFa5rBBhSJkMTDI0lXCXiw9AFAYUQ8G0broxbplqqfmPKpXjKaE7lf00k1Jobh4WD9PUF2EZSLg3XqZGu2QAq7A9TkIpjlHOL9C29G/re2FOSyhuodFH+r34otsT9KDVB7oCHmu+p2i1GRpkLDJKc5Z4o5R7hHBkJZgEJk31i0ewGtnE6gCDjIfryTwIIfAQespWxGCDMxazFAGEuvXR89onGc2UAkOyk3Y/GTcZV0lBlAvc99TjOOX0z1rR1wpWVhBpQsppg2lc9hUszyfVY46AqFMchevyJDH72sxexYf1mXZ2vsW6VwUcXqJxLuThpoCX2GDB1yBI28dfv/REqTHHs6kTAqnVSMGdum9Qp8EO0l8u49oILsDiTRr49q4GKWdlMjjE2r+B4JYIDkjLJNeBk27BM+n5m1B5QHcOqhJyPKNIzl015EhRBi0BkvDAM2w6xavUKXX1QtV8Zwfk5/+dy/XifyT2g7KD4pMU48N1qBgjUQZirFPh8+1dc3JrpIu+GPoH6mMt9HzYtqvbKiXG1SApm5obyPMgYFo8E4bAFV4fMZI1ui7yQEmGSMBo/a3jAZAGgDa2AD3H4NzxozWAsCpINqBBdEi5CaPSlZouq2yIVKfWPGHoCAVXQWUC+AHQhV2qCpNGNMHLp/Fv0FlQYQ9ppU5JK9ZgSRFJzijL88yv6NpdnNSms5XvIVMdw5apYB2HWvosBwqxddNx2MIPSLHw5YMT1pic8uh85MEdrVTz8/JPo6+zGGcvXICMuVe2OFFChNoOiJe5H5TIx7hpa2xb27NuHH//4YbzmNSzW1HCtc5qy9cFcvcv1Jb6pr2E8CEGIT99xB0aTNoL2vKwG5lMuVZK8PA9dXojfedONYH1BlpGVu5QCLo5Oe+OKQ7V7KoBAvgXTGxlGmVTUR+eER1XshBAWSaUSsxIEUiiI4IK8jblu6jxqkh4c7MdEcRxLlixCOp2texBigDDX3jyy/U40QGgYXO0hiXinlFEkAFDuf6NVQNe6Gev10JmEDjhWdTqmTvuU1bs2rqq6qJJ9NptZMKv3zQADJWhU36eJiFoHBk3xe3mvI6C2WR1VRMQkDKINuuYBGANvwkcmHGfaNMkDoLUUok/dqE8e2Zsw9dExQGixV2OA0GLHHYPDCAaaNQ0MQFDkHgueZaEc+njx4B7s3rcXp649BX3tnWh3Ukj4dPGTICfMqXpwQoEHtSqRVS+NbRBi7/49ePjhH4s8bj5PMZrGarchsqLgBilI3ExBVE4hNR+49bbbpBZD2J6ncopKgZrTptOgfA+doYPf0dUcVfKkwBtN2lIhD1Fv06uL5tOT9Ux5X8orT676N43LeIp8vZ8++RM59swzz5xT64V/bVzcori4C0NDI6IK2N5GsBR7DubYkUdltxMLEMy7ELkV4yrXBGMax2h4xdR1UEeYwmSN4+skWg0CFA/IjAyGKujhU6vuBi8mGnpR5zWrhMNCD81ZKxZTlxsG37REFi16USHf69BfnaQodSYI6iMhJa0cynOYDBFDMKzf4RTARfgcc5RZm+9LEwOE+fZY/WWTAsDykEsWcP/Pn0QmlcLmtevQ4STExVx/cWhAjIKMyVtu8brxYYf3AMGAiQ1OpVgnFdwsBxUrwJhXwTO7t6G/OIYlnT1Y2t6N7kwbMk5CJFBN/F2VRdWhAW3UZOUiFQ734OFHHpRiTfm2fB0gGPKTiluqVY6qv0A3p9p8piP5Fm69/TYUWN2tvU1WFM2uzOmes0wq9K56NXSGNn7rJlZzJElLAQTCDD1dKTEazf9vphXwPAQIJGdSB4GkzPpqbEoOgp44dcPUagyissgQBaWCp9oa5zSBXBoFbRgsW4ihDFOcfvomdOTbZ+iHONxwLMb+bADhscEKvCS1QOZWbXR+beR70OC1SAaCBsqGF6EwqQHpijsR3eqr7whPQH1vfAMqb6hhdJtSdusxd/U+y5/zkPWepF7YdPPNiodyag7eaEl0Q+o1x5qQiw6ziSyyuTedgTBTH8+VezPX5xQDhLn2VPPDF9QWA4QWu++oHqYAgnIRNrvqBRxIPWVFNmK645hXwraD+zE4Miqa6pSszbkp5BIpdKRS6M7mkXGTusSsEg1RAT6VV82aAg8//ACu+aWrkW9rRyiCJuaWmuKJAu3NSolvjIWqH0ixpoLrwmrLS1bCVClpMxlcauJ3+iF+52ZWc6Skq1/nONTnGs0ib/DPG2dsBgjJpDEAKjd7MmBpkBKb20RPStJN4IILLpgRINS/rLO91ZrHAISNG84Q0SpTBfDwk8UA4agOGn2y2QACsxiOFQdBGdemvJMIMU6ggbZ4xgMnRlYbURM6ULcyfYZJNFxgjo++35PltlV2w1y3KbNmpgEYJnND2qqFv0xZ9vr0YThQZiEZyY6QNs0BvBxNkBADhLm+CTFAaLGnjv1hQkjUA8sUiDED15ADjauOdQ9IGCoFNYxWyugfH8XIxDhq5YpkBnSnM1i9eBk6c8rdLZ4Jpk6R6MT0pdARVUEaxmuuIQehQ6dNadETi8VdmGOc0AIj6v55JkOcJFuZ5Z4nGLJgeV4BL4246uw9FsDxAtB38dtvuhmZoEmNThMeG9kIbNvh0x4JisaDYACCKrbUcJtG22JCA9HP6EGgxsGF508NEIynofmezARNkaq6B0EAggJ6MUCY/S04GnuceIDQPLFGYv+TQIxa3RtDergR1GGCJo+AMqpGq1GdMJo1Yq7eXJNjKs5Oc3+rY9R1J4fxZoIYuj6EtCM65s0xGowf4cM9WiAhBggtPoiYg9Bixx2jw6SKWyTuGAUI4uqnWz6y+uCqncfQ++AFPmpV/lRFPjafzioVQaZBCqlIAQSHsqqhg/7+fvz0p4/j0ksvFfe8kBMlmsgKbTUEomuuSs5GPQuGMEXX4+e/8TVMODbcbFaxnY306hz6x6R9ZeHgTdddhzQFaPwGm7nhkoxOhU2pTzrEQA4CPSg08lEvxlQhj+Z4LJtKISkee+amzZOkkA8HFhooRfQV+Mnu3bul4BNrQrAyYQwQ5vACHMVdTlaAMKOB02pIk8HC9ABBOAyRlfcUVBoFHKIXncNK3ZB46+ToqZBHM/6JVJg04YzGdSenkppiVjzFpKbN4fnHAGEOnXQsd4kBwrHs3fmdexLKJbkpkvdPIy3ZBDqrQE0W9WmxrhEgsX2dLlXnMchi1hclN5INXSFQuRgZGcFDDz0oQksk17HUb5qCSboGg0ivIi2qcdFwvmkH725ff79wVyydehVd40Tvp0GkauRbeyFbQwhiY2lvl6Rr8ni5Vl0UpdkTcPiqhmmORgdBVkE6f3o6PsRUAIFiUlIaWVcOjB5rsh4Of5qUeQa2b98quhPMgDj77LOFLDk9QDDrtPm9G/HeM/fACQUIMzTNGLjDuDMRyzdXgDCV92wmySsZKfMACPN7x9SVJ3ksprxWY7wab0az0Z8Jj8QAYX5P5ajvHQOEo96lLZ8wKl5i3PiCunUhmChAUFro1D9XvAQRjNHV76IpUzJHCNtZl7eVfcklcFAojOHrX/86/uu//gtLlizBW97yFrzikkuRb1fZAJaoszigQJNMThqwULxJzJyorzHDQckjMfxAYz8XE2i8ICI4xLZJASjmb6trqTOayWWycl4zWGk2+OZvyRefYvYx3zevwKZK0ZTwjBaHMQ/WVHgcHR3H/fffj69//auiVvmOd7wDV199teggzEzWnE90uOXX6RfqwJMdIJiHIe1sjsdPEv2ZTqzJKKE0Huus4OCYAgTVjsltiL7Xh7dOOUxUSnZ0a9AwD39lY4BwgodxDBBO8AOIXD5ayVHRntRIMlkI0ZW7ZJdoFr0ydIfnO5t85IYB1YNWcqu5+vUwMDCAp59+Gt/5znfw5JNPipuelRFf8YrLcO3rfgm5XEYNahpbh9kP1LNXOdAJo5Wgsx0mufbrIkGTFdpMWhaPDwNPBGRElVE33wAEsh8mm1E1QU5l8GnAmw2yuXcDkJq9M81/N78FIhajFRrN79yHegu33XYbnnrqKYyMjAkwOOuszXjb294mXpiuLlajVOpwaovBwPEYYScjQJh2pTwFYa+x7+FAYLJ+wNzfp/kY1zlEFeb2GJvuLRouNXLp4uGcBiTM7SLz3yvmIMy/z+SIGCC02HHH4DDzLJqRuSEOmRWvmUKiAEGx5qfeosaSe0T5BPzbKBGS7Ld163aJx9NlTuLdyOiAuCm7e3uEp9Dd3Y3Fy5ZKpUhKw7q2I7F7x0koDwAL01A6NpGQz80PP+PvBCCGK0CAwrAHuQvm+0Q6hba2drlW0klqVTWtMU+jy+I8vi+GmfUT2Gb+bYCA6QGpCFcuiz4Cf6eR575c/XN//m88AZKKRnU4z5N9+TM6OiokToZheB3+zY3VHskzOO+883DhhReK54XESPG4RJTsYoBwDAbIDKc82QDCjLH2GQHC4Tc5nfGeaeVtzjIdSJjqnPMBFNM/iuk8IFEaZAwQpuo/K5wq+Hl8x9FhV4sBwgl+ACfB5U2M3bjTm+PvxvjSKG/btg07d+7E8PCwVI+kETaG1ay4zfmiK2/uQwMdzQYwwIWgwhhuqiH29fVh8eLFYnTpzTjnnHOEJ0EPB6/L40gKZNaAqbDYTEw0oIGfUxuB4ETAkSkRq/83pEYDaiRVNJdDT08PVq9ejTVr1tQ5BdOFDab6fK56ECfB439ZNOFEAoRj2YHzic8f6b5HByAcy95o/dyxB6HFvosBQosd9zI6zBh087/Rep/qFqfCuLMZw+ZjooRFAz4INLhaZ7oisysY+lA6DQ/Lip4AgvoCzLggaGDNBP4wY4CreoKA+qpJu/ebSZJRL8NcshuaiZVT3cd0r8FsffIyen1Oilt5uQKE5s6NgoD5kP0EHJ8UT+rENCIGCC32ewwQWuy4l9FhUZZ+czgianSj+xFE1MmQEdnWqY5v5gNEuy4KSszn5rz0OOzduxff+MY3JLZ/7bXXindhUkEmTcI0oGYqboEx9FNlUjS3pRm8NN9/dP+ZQEAMEI7vAPlFAQhz6dXZQhJzOcfLbZ8YILT4RGOA0GLHvYwOa14ZNxtZE1ufChA0G/Xm8MRMRtnE/rkPQwIMPxiXP8EBvxcdB0BCGdyYIWCOM2GFZvVG04bpwIKspqbwMhgPQ/Q+WzH0rRzzMnqdTsitxACh0e0xQDj8FYwBQovDMgYILXbcy+iwqGeg2XjWsw70/Ub5CsagNq+qp3Ltm/NOZbQZQiCfgPwCkh9JUOR+xlNAXgD5B/ybOgMEEoZ8SEBBEMEfE2Zo9lhMBVqaAcJ0bZ7Oo9L8+GNQcGIHxC8CQDjSTIM4xKDe0TAu9zz3wRoDhLn31ct5z6m4BVGwEL33mWL78zGchrBIgPDCCy8I8ZC/k1dA0SZyC5iCuWLFCtx5551YtmyZVJ4kUNiyZYtkWTDkYPgIzCgwoKUZ2DSDmOmeZfO9Tdcv87nPl/N7c7Lc28sVIBhQQOMeA4TW37bYg9Bi38UAocWOiw874h4wAIHZEAQCTCWkzgBBAkEBB/VLL70EZjY899xzAhroYaDeADMp9uzZI2mG/J4ZB/yeG8MVJt3yiBsZn2BB9EAMEA5/TL/IHoPm3ogBQovDOAYILXZcfNgR9wANOVf6BASDg4P1lEVmLHAz2QtGx4ChBgIIeg3ISeCgZ1iBQIOpiQQP0VTNmbwIR9z4+AQnVQ+cTAAhuuqfupNm0kBUR9TrkETcBlPXXjhcWInH1wWKmstKNzVopqyIw4ys/mAq4MHzzAeQNO8/e58d2esWA4QW+y8GCC12XHzYEfeAGbRTufGniv1H+Q9T8QpMg8yxMUA44ke0YE6wkACCUUaUyuvaqk5Xq6Fu6HXdFSN3rh7MZAnyKDCoj4UZAMJ8yYxTGfG5AIzm65hwyVRiUvMBGfN5OWOAMJ/eiuwbA4QWOy4+7Ih7wBj8aKGlZiN/2CqGxap0zYmZ9jUZEUfcyPgEC6IHTiaAMF2H1Q2lFcgKPwoKTF2T6Uix8s4TUEhJdXUF9b+ux0IZcpFfb1y9WYI92q6Z+AzzMdJzWflPda0op6L592PxwsUAocVejQFCix0XH3bEPWA4CDNlCkRDBlHPwFT1F2S6DIJJ1Rzj7IIjfkwL4gQnGiBMtUo+DNxqiWVVfK2GZBhIKXUachZid8IAXsC6JC5Cy5aS7YkwkDLtrFcS6lokPuXGbcCzlDooj0uwSqsuohaI18BWACIIUWOtEyQRsDrrFIWimtupQAbPESk9zUqNAmwCVU5NDEdNDvUcB37oQNWH0eDFeC4MGEIgx7AeA++NW/O+zdLR8wEqs72kMUCYrYem+T4GCC12XHzYEffAXDMEjuRCMUA4kt5bOMeeSIAw3QpZVvkmNKCNLY1iyrGxti+D0zpstMHGuAcM+j4S1QADg6PYV/VQsVNY1tWGMzqTyLohxn0PJVjwJ4DRiRIOjBcwGBJC2FicyeKM3gQWtdko+QEKNUsAR8Kx5PovHhjB7nGgarnigbCtkqpxQm8cQQdLq+uqpQQsFlKwCCjCiioZR6PuJKVkfApVZIIa2iwXruWjZvk4FFgYd3NIhzZcn8cQvKTlOAtVuEGADgtIWDbGYKGiC8WlCDp8oGa7AAvBsb8EIKkedVj6/Si9gjFAaLEjY4DQYsfFh8U9EPfASdMDJxNAOEwCWUCCWo3TDFq+hy4UcemqPBa15fCTbfvRb2dxSs7FhuV5bNlXxFMDE0gixEV9SfR2ZfDzvUM4UA3QnevA0s4M2lMJbDswiO1DFXhWCpvaPZy1phe7BsfwzP5RlMMEkikXi3s6MFT2sG+0gkqQUG2wKsgGVWTDGrIukEomUXUS6C9bKIU2/MCGY9nwrDJCFoEjEAktpCwLi7IhNransLwtiUTGwq7RMh7a3o9Csh0hvXeBIh77UN6NZOAhhwBnLs+jLZvCT7cNYNwPEDg+0nSOBDYqSKJsOwhCVeyNFV4VT8OWwu9HY4sBQou9GAOEFjvuZXjYTCuh43m78yVPHc+2xdc6OXvgRAKEmXpkKg+CjQB5fwKvWNGGJe15PPDSAez0U1hSPog3XLAB44Ua7t41hlrNx8W9SXR25/DY7lFsK4WwbB9LnDIuXbUUPW0p/O+WAbxQSWNTtoTz1/bhpYFx/GT/BCacFGzbQoYL/9BBsRKIoZeVueNhadLCpt4sepMBko6N/koCTxyYwL4qV/TkO1ThWwF8DRDc0EEKHtbkbJzfk0RXwsdAYQK7RwLsqwADcFEObXj0BhgwFAI5z8fKrIP1y9swNtKP3UMhnLYskm020gxJIIX9QyXsqfqo2UkJl9gsY69DFDNVqZ3PmxgDhPn0VmTfGCC02HEL6LC5EIl4O8cCIJiBOVdXv7g9xTXZWIfREWpWXwuo2+OmHsceOJkBghoDmhsThGIE82EBF63IY0U+h8dfPIA91QT63DFcvnkdBsereGjXOALPw4U9CXT3tOPRXUPYVnbgu0A6mMCpbVm89tTF2DZUw127xnBatoILTunDzv5xPHVwHBU7ic58FqVqgKFqgJLvIhFaCOm+tzysSAXYvCiDTttHwbOxfdjHrmKIkYS1b+QAACAASURBVNCBjxCu0AQC4T7AcuAG9AZU0RGWsNz10J0KkLCBfKYbdnsnnhsoYMtYBWXyJ0LFRaD3oM+u4axFaWSSIQp+gFoJWLykW4qxecUCVqxegecOjeEnwzVUkEbCt+GEtmpnRBL9SF+lGCC02IMxQGix4xbQYTFAWEAPK25qSz1wsgIEAd6SeaNc7yQNkjnQERRwyco2rGnPY+uuQRRcF70daSSSFp4bKGHHsIe85eOcHge93e14bM8YthWTqDkECFV0ooZbzlqGkaqDr72wD+syIS46ZRGGxkt4cXACVcfGokXt2Dlcxe7hKophUgw2Xfg+fLR7ZSyyymgPKyJTPuhksMdzMW4lEQaOEApth6RfD7YVosOx0Ze20ef6WJ610dOeBdVKxoseCkGA3SULW0YrmAgsuGECYVBFmxNgY97GRYtyco79hSqGhkZwxmmrMNI/jMHhEfSsWYHnBkbx5FAVFTsjpE07IMgIYdPDECkE19KLoQ+KAUKLvRcDhBY77mV42NEkDTZXRZyuONJU3djsQZCVxMuwv+NbOno9cLIChMCQFDWbvwEQirh0RRvWduTQf2gEbYs6kbQs/HTrLjxTTaKEJDqDCi7oc9DX1Y1Hdo/ipbILhAlkgjLyVgE3n70aI1UL39qyH6dlAlyydjEGJ8p4aXgCFdtGW3sbdo+WsXdMGd+kVxOD61khehPAxp4UliRCJFwbe0vAz4dKGK7RdeBCuQ5Y1MwHKY/LMg7W9+TRY3kCFCo1D4M14Pn+cRwseqgmUiiEluRSJEIHoV1Fu+PhvL4sLujMImW7eHr3AYyWJnDuxnUojoxje/8IulYvwwuHhvCsAISUumzowiaBUfgSR2fkxwChxbEWA4QWO24BHjZpkOiJayqEHt1vOgTfHDowKYjRz6O/zwYQms93tFYOC/AxxU1uoQcWEkAgB6HTL+LSle1Y3pbC89t2Id3VjY2Lu7DlQD8eGS5jLMgijxou6rXQ09mFx/eMYHspBR8ZZIMxrM5VcNWGldg2VMEDu4axPl3D+WsXY+vgBH66bwJlJ4VMNoVq4GOiGqBqJyWbQKU5euh1gVN6kmi3A5RrwP6ChwNVH5WAZEFXDL2MadcDQg95B1iccNCdCNGdT6Fa9WClcnj+YAHDZR9VcF8byWQKQS1AKagibXvY2JnGhd1tSIQhtu4fQKlawvlnrEN5rIiXDhxCz8pV2HJwEM8P1VB2eV0LodAzY4DQwjA4+ofEAOHo9+nJesa64Q8ibAN7MkJv9iI0KxaqVYVKn5pKzXA6gDBbn8yFqxCDhtl68Rf3+5MdIITwlTiSpfQOOv0CXrmiDUvzOTz63HYM21mcs6obfe0pPLN3FM8OlZEKQ1zYl0RPTxse3zWIHWUbXphEj1XBeas6sLS7HQ89fxA7SiHOzHk4d+1ibBko4tEDEyggo4STbF/0D7zARjqswRXtAk80GAgO0vBU+XR6DawEAidEyUlhOHBR9R3JJnBCD6mghh43xMquPCq+cjCksynsODCGkUoAz0ogl/KwuLsThfEiDpaqSDghTsm4OL2NaZMhSp6HwtgwNq5fjQN7D2K4UMLyNauw9cAYnh2poGSnVFqolULgHB3PgRkRsQehxbkhBggtdtwCPMwMksNW/5GxOBdDfTxuvVl61lwzBgnHo/cX3jVOdoCgRIaUOBBTAfvcqoQYFufSeGTHIbxUArrtAJeuW4as7eOJ/eNSb+SM3oyQDZ/dNyhMf7hpLGvPYkk+g739o9g+UETVdXF2h41NK3uwbbiIn+wfw3CQEnIhgYlajdto9yvoSPpIpyzkklm0JV2kE4BrMahggXu7DjDhuJIJMVy2EdZCpG0fXWlgVXcKbmhhZ38ZiXQCfe0uDh0YxGjJh+em0JusYN2a5dg/MoEXBstwrQBrkhY2drUhlU3j4NAQrEoZy1csxtade5B0E1i7eiV2D4zi2REPA9RvCBMCaAhABOAcpVcxBggtdmQMEFrsuAV4WB0gTDPqjLL7pNCA9hS0Chw4xE0WQrTLVLZCoyGWrGLUpKCciypnnNtcQh4L8HHETT6KPbAQAAL5BwQIFDBanLWxpt1G3gZ2F6t4oRjAKQdYmUnj9O4cBmsVlPwiuhOucAQKFQ/joTLEtSCBQiHAaCVApVZGWyrE2o4EerIJjFZD7B6rYLAcogKVkRBYCQEAveEENq/shEMBpJoFKjLWfAvVMIRXqco4S7shrGwGu0aLGC4mwahEdzrEyh6CCQv7hovYOxEi4wKbl+SRLk+gWvLg2wGWZ0J09izGTw6N4+mDFbRnbMlg6EmlMV6oSHZDLmkjl0thrDSKjJ1GOkkNyBAvTlTw84MljHkpeLaaiZjNEOsgHMVB0sqpYoDQSq8tzGM4EH3NPYhyBkTOmDHEKUIHzXdqjDWFVHjMdJvB/gQHU/ETeBynAQMeuL8BBsZ7IO7YJoBhQMPCfAJxq49VD5zMAEG5zZUHQYSS7BCp0BP3vh36qFo2ClAaAIy+50IfvlY6tIXWr1J/fSEBWqjBFXEhGlyKCrnwkLU8AR61wEIl5ErcRY0A3LHFg+D7ITpQQ3eGQkhl1KocfLbMBx7nBcsWoaMkUxQdByULqIYJWKGNjBUim/QR+lWUfHV9OwiwvC2BDUs6kE2ruSPjAQOlAM8OTmD/eBWpBLAk78CvefC8AJlkGmQZMKOj6ntwggRsP4CdtFG0LPSXfJT8BDybHgTqIcQA4ViNlzmfNwYIc+6qBbyjQuQCEBCi7NuYqFWVU1HnRvuyfNdqb8ZS6zvm6sMLKLnKHOUAIf1/WuBMduVEwzPze2ZycRIMgwboCGjmA1FKEw+BoyZLAzCkDUxroseAUrB0dQLI2jYSTqMxjsV9jo6y2gJ+mHHTp+iBkx0gEBTQgyCeMdE51rUSLBpKWwwxuQG+S09aCNdLwoUDz6rJilqlSCrYLWexLVndK+FBjjhPjTskNDdIjT8ZnpYDy3HhVktqFmDBJ610aMa873CEAm5NFX0SwEA3v9SN4PhUHAqRUdBCSEzXzNk1JK2ajNnQD1GykyiEBC+OZECEpC9a6pyUauZdytgPOVckVT+gJlwHxYVIIqCqovYiHK3xHocYWpw2YoDQYsctwMM4WDlHPbt/DH//8dswUsvACpRht2zFIOZwVZMIwYMvv7t+AoHN+SkUJjTNNMMDChwQdACe7cjfBBDGOyCThnYySAEZTmo2hWIAN7BFL16RoHzYAb9jMZdQJrtOp4abX30hrr7yXOQzCZlUCTOO1oSxAB9f3OQZeuBkBQhRH5sxrDM9yEb5ZwWM5fhIkSdl8CefYTJfxwBqVUNBnUQXR9J1FeSUkYYdfr7ItZsaq06pxrjyiPB3BfhV22z4uoiU2s8ELhvFn9SeStVRbboolEwWGkwc5bc9BggtdmgMEFrsuAV4WICqGPMthybwvo9+AQO1NnHjqSpvemVuJiMQxVMKBXA9xjId+I4vAECGs+3AYdaUuB5URTdu/MzUuxeiEVc9umKdqKPZ6u9EwOIxCiAQdKjjbNQcjw5RdNsV3PKqzbhWAIIroELxE2IPwgJ89Y55k09WgDDTjc8mYDbb97N1avPxU51vpmvM5fpmbM/WFvP9kV5vrtdp3i8GCC32XAwQWuy4BXhYgBoYWHjhwBj+9hN3ot9rE9W0gEbXStTLuYqhF/cmY5/0ICgQUZPQgK7uZjmwqQpHNyfLuOqFi+Ex1Fc+oWENKMaB2jT5UP4L4YbMtVbXYOzRCmvodSr4lVedUQcI3JVtijkIC/DFOw5NjgFCa53cisGeC3BopTXH6rwyy9SrajIk4yFTHcOVq/pww8ocOqTUtlqAnMjNCpuTzE9ka/S1Y4BwEjyE49QEDz48ONg+MIq//vCXcNDLCziwBBwonoBNP7/ePEqtWgGS2ksgIEC7K42XgIVVopsKTShXodq0O5J54DJS6TVQxCmhXElcU4clJO5JV0KAXqeEW67agOsuPwf5NLkLhAcxQDhOr8qCu8xCBAgLrpMjNqMB8xfGXcQAocXnFAOEFjtuAR5WCyloEmLboTF84KNfxsFah6rWJuEFGmwSpggKbPEKVFnp1QqQCFjdTfES7EClTvFziTvSyzCpLwgAlFxqPc5pCdtAzk3vAcGBx6iGAQhMxRI+goqv2mGIbqeIW16zAdddcRbyabYnCUdCDCcW5S/Ax/4L0eQYIPxCPOaWbzIGCC12XQwQWuy4BXiYH3oS999+cATv/9iXsd/rEDAQWqoCm0tDLhwDxRMgh4AAIhmSfOiJ8Q5CVVOeyVHKS8AYAy27rdIZdaYCWdKG0GSReBjy3EylUuxo5k3zLExkUqwGDSz4WRigx63gLVedjusv34yONJFKIgYIC/CdO15NjgHC8erphXmdGCC0+NxigNBixy3Aw5iV4FvAloNjeN9H78CA36E8AEIQdGFbzMtmjE6RCZnqFFgpqT7H6mwSMKAcKsMAOmVJBRHIPM5IuhIzEuhhYEhAIgfiRlBkR0vnbsvxVk0AgyMpUb5kN3BPqQfP6nFuFTdftRGvv+wMdFOVhTnZDIOcBLHCBfjoX/ZNjgHCy/4RH9ENxgChxe6LAUKLHbcADwvgg2GGrf0j+NuPfBaFqou0XVQAILRgM29ZRF0S8EMbVTuLSpgRT4LLXGwJKSRE84DrfuEP2C6qoY1ymIUbVpBya0BAvXeVcSChCIYQQoiOPDkQCWY4+UUkRErVRSAaCyQJKaU5eimyiRA3vHoT3nD52ejMKLBh28kYICzA9+54NDkGCMejlxfuNWKA0OKziwFCix23AA8jQCiHPrYdGsFHP/kZrF25FOesSqINRQkX+KjIKt0XFbY0hr087vnJLqTynbj5htfCDQNRc1PphvQbhKgGFkZrNfznFx/EJWevxyvPWwnb99Q+tgo78Ieei8ef3onHnnwW119zJdawRrzyPcA3xEgrkKIy2/cM4fGfPo2Lz1mDN1x2HjrTSkuebYs5CAvwxTsOTY4BwnHo5AV8iRggtPjwYoDQYsctwMMUQLCkzOqtn/wELj1jKa4+LUAHhqXqW4iyhBao9V5zs9hTWoYv/Wgnkh1L8Ce//w6kAxp+pdRGmSNu1D/YM1bG3338y7j68vNw46s3I2VVAV8ptskW0svg4IeP/Azfv+dBvPN33oqNi9qRECEmG3bginoaJZeogvCzLfvxzR/ej7M2rsH1l5+HfMoWsBEDhAX40h2nJscA4Th19AK9TAwQWnxwMUBoseNO4sOmzidW0qu1kByEAXzm3z6Gi9f34qrTKui2hpREsl2BxYwFN4OJwMGBykrcdvdeJHqX4Q/f9U60ERRQQpVRCJIVGCmwgL3jPt7/if/GL11+Lm66chNSQQmu7YjGu2QthhZqTgrffvgJfO/eh/H233gzzluah0V5VcuCG6TkfGFYk2TIx18gQHgImzeuxesuPxddKUcUmBhmEHlWXdTpWD6CVotTHcs2xeeevgdeLgBhrroE0cyhumCi7p5ons/R1BaYnK1k1Ez0GmCKa8vaIPL5XO/tWLznMUBosVdjgNBix52Aw6aT0ZDsAt2epjIK8rkROaUAEQ36C/3j+NQnP4ZL1nfgl9bXkA/61QqdMkos3MRMAzeLnROL8IV7D8DqXY4/+f13IcMQBBkLYagARaAyHvYVgPd97Cu47lXn4k1XbELWIg9BARKfgMNOohTa+M4jz+C79z2Ad//2zdjc0y714ivUWUBKeSSsEDU/wE9eJEB4AGeevgGvu+xcdKSo0eDDoiQ0VBZF8yY8BrZLKzq2+nhMYanm45tFVHhv0eqX1HZQ6g6TN6M0Z54Dv52sHDGD0dOVNOWcrAQYEXJpfubm/L+oIZiFDRCiksTR90GF1hqbliTWCKAhl6ylkUUF1cggNx87+T1jf5FbZLhEKjXZqJ0pQbTopuSY9fciaqbrttSF0BpgwBSmEoAwTVayarsSdudWrzER+bvVMTzVcTFAaLE3Y4DQYsedgMMmAwRlELk6l6IsNiuzmc9Y4hVISH0EGnxd7MXyBCBs75/AJz/xr7hkYzuuOc1DJ4blbkTEOPAQOi48K4HdpWW4/Uf74Pauwh+/6x3IoSLZDjKgSSgUo5XAjuEy3nfrl3H9lefi5is3w61WkLSUEiNLzbKdVdvC9x5+Bt+/7wHxIJy5pE8yHngeV2sicIqpBMBPX9qP//nBfThr42m47vIL0JlmWEOmNFhhVMNdPYRyuYxvf/vbcF0Xr3nNa9DW1japMuUkw6o5EQcPHpR+Wbx4sYAj32dbrCkBhtSlb1JZY59LFTxdj1Iq6+l+EVU2PdlKjR5dCEdVrZjPpjgcLotg+axXoapx2i5lsFWBq+jGNprk0vlc5eWw70IGCEp0TNc0MPBR3vOokVekYO5rBMv4niltEVs+a5zHvH/KAPPNNMcaw0wdEqYa83ie53BD3qi30Hg/WGdBSaKb+guUao9unHf4XZKVpBiCtFwFJqQ6o2pXtN5E9A1Wx1q6IJQa75MBUutvagwQWuy7GCC02HEn+DCmBtIAU+SQMkRjfgXD5QkUSyVUymXkbAdruhahPZ0VXkGVhphlYK0Q2w8N4d8+8XFcuLELr91gI48hARKJkNkHPJ+NwM5ib6UPd9y9A273auEg5MIaSzchcAgOVDpjEDoYmPDwvo9/Gde96mzceOWZSBE4+J5wELwwIdUbWXr2ez/+Ge6658f4vd98KzYs65EaDDT8NNBcIRPgMMvh8Rd24Ht3/y/O3nAKXnfFxWjLUENRTSXNAIEDf3h4GJ/97GflPK94xStw/vnnI5HQeg00qJosaR5ZtVrFV77yFQEIN9xwA5LJJB566CG0t7dj/fr1yOVykwDBdACBhM9ipYyJShVVS6s5CJBQQlPsU9F8iEhJ6cjMnN4eqWVhWWhPpNGRcEXWWqpdsr+aps/Yg6B7hABQ9znHxe5KiG/vHMWjA2X4qbRk3ZzorXnVbIyqKnxkNlr8RpElKaCmwQHTj/kdC57Je2Zqneh30FRMNF4mgRkBx7QGIay+qlVLRT1VrtO4tmqP2hrvKytONoBEs8eSfxug4Ut9FbUvCzeJN8KAoDrw0ftrT4a6WhRIyNVjgHAyvKzMQOdEyxrg9//8SWRSKWxeuw4djhKnMasnKTYaWbWcaO3qE913J/L6fF5lK0Ap9HBwcAjbBg9gqDwhxi6fymBROotTOxejPZmRKok1DfQ5GWw92I9P/tunsXFtBy5aZSNnj8MWxUTSGJlxwPoMSRyqduNbj+1Bom05fv3NNyDtVxCYFYF4vUNRVxws+rj1jrtx2bmn4aoLT4HneXBp3GQ94Ai/oAYLDz61FQ8/9iRuev01WEOSIhQgYeqkElkCqgGwZfchPPzYT3HRmafi2isuQnuGCZO6SFNk9uKqf9euXXj00UfxpS99SYDChRdeiL/5m79BPk+OgyWeAWNQzfMqlUr42te+hmw2i6uvvhrPP/88/s//+T9YsmQJXvWqV+GNb3yjgAWZorQxnsqDUKhVsHX3buzYt0eehceJW6/sCQ7s0NI1KpRHh5MtJ9G5bgR1lVoVq3uX4JKNm5DRAlaubpN0nT6fWZXFIYaFAxDEJGr1UP5ulEbpSTOvuQIABhwEsoIP9PN3faVWKl6qZqNOsEBAISt3Fw4VUG1VnZXvoOQgyRhVAMGEFARURMMNahTUgYKpSGlKQfNbtokAQBVc0yJoEoZQx/JzhhDlXsESz7QkrOrK9hmPAoOVbBUF1TQ4iICJuY6Z6faLPQgt9mDsQWix407wYVxtFywfL+7fjRdeehGdXT1YsXY1+tJtSMFB2rKQ1uqGSsJYSitKlPzFfcP4yL99BsmUjWVtJSRRVqJFDC/IKoVyyjbGgy7sHGbKYx4re/PIoYgaaymElgx65dZ0MBEk8NLBMpbkE1jUxuuoiciWmUOtTgg6DhaBsfEiFvd0oD3JGvJl6UVVm57XV5PKRBUoFMdx3WXnSbGmdlZzFLihPA1yTBiiUqngm9/8Jv77v/9bQAKN+i233II/+IM/qHsB6CUwRl5CHdUq9u3bh9tvv128DDfffDM+/OEPy7n4wzDFhz70ISxfvlxhFw2QpwII1JQoVmsoeVXU6M3hZEePhUy6GtBEQgFSsjpS62KqV0gBCQXUijbB0g4MHxrAG195JbLsAxbIokdEhzyaOQ8xQFg4AEGBA60nolf5BJUsqy7jUBv9+vpexq/G1DT0+l1SngJt8EV8TKAHPFuBBAIAlmwnQFC6JIpvoEAlV/scf83MGFsqsRrgGWokWuceRMDpZIDAayqNVLWpcU0Zd26eTVDDLChfQInn8F1XXh0CBqZSG7l3dY7mN7y1iTcGCK31m7xwsQehxc47QYcJ+S8M8dLYITy65RmsX7wKG1asgWPbSJsZhIbE1C2gKqIIIKlJYGf/GD74kf8X7R0ZrO4uIx0qQ53wFMqvOdzfwajfhecOeLAS3Tjz1NXIoISAq+JQCSQTHHC6KfguHnv+IFYvasPaxWkJGzAEwpg5vQMyEVgWdg4Usf/gME47ZTl6ciHsgKRIdQ4BHQwkBBYGChUcOnQIV12yGdddcR7y2ckeBGOsafyffPJJfOtb38Kdd94pxv/SSy/Fb/7mb+Liiy8WYJBKpeoesLGxMTzwwAO4++67cd9992HTpk246KKL8LGPfQyXXXYZ+P3b3vY23HjjjZPi+0bTIfq4zTNgPJZcBDN1i4EmWVKv9mUunkf5CFMNk8+hiBDPbH8Ju/bsFICQMryGiAeBHr7oFgOEhQMQFAKdTCxUIFl5DJqJgeY5C+tIE1iVG78Rqyc4kEiCqJ4S7BOA0Ei7CC01vuWdFKOsVu30RET5C3ynCTgUWDFXNWwGSqGrz4yUunAg6EHQng7jOTD8BF5f4QuCB/WGEjCwPQTVDEMIQBA+hAllHD3+gdxvXM2xNWsVA4TW+u1EHWUMEQ3+PS88iVEnxKtPPQdtrKUgEscKDEjRIzFS/D2yEghDbD8wjI998hM4c30vLj8tqUIMHKC+zyUzKsIuTuBgtRtf+9/tcNtX4B2//lbRQWCFRxM2YIiBaYkDhRAf+ey3cOVFG3DtJRvhajKezYwI8ThQ38DC/U9swQMPPY5b3vQ6rFvcKfupgWvDtVzdbhvPbtv//7P3HmB2VFe28KqqGztHdUtq5YiQhAjCmCjABpMNzuA443Ee//7nzf/ezGfPeN7MP7bJYATGeGbMjO3BNsaAMcYEm4wIIkggQKkldVDn3H1jhfetfercW33VLXWLFkJPXd8Hrb5d6Vadc/baa6+9N/789PM4aeV8nH/GWunmSKGefCPdTdLzkEgk8MQTT+BnP/uZaAgWLVokwIDn5M9Vq1Zh4cKFIjzkZz09PRJaePzxx7Fx40ZcfPHFmDFjBp577jm8/PLLsv93v/tdOTbIGIynQVBLezBmoBY3JVLM/016YU0ie0Ht64HFrbfsakRj8y5cfMY6xEnbBlM8uSgTVPmLn6pPMQk0crgG8SG47pEkUpQ1VxssYRCUiFjPBXn7/Lupupgqi+73OgkgTpEi+KEEYa78cIPqyGrCMz24pi26IZUJo0Sy0k1VjDLDeqrkufrcr10i7MK+BlqNbTXGRX/kh830iBPHQO5HfT8JC1KP5HLRUPfH+2FzOIJ7fsB9uZ9cTc7N70stwiRicRMYT9MAYQIPaaxdpgHCQT64w3SYTq/jzwdffhbh2hqcPnc5ijinOAn9+9L0pCD9HC9JEaAhIsX1t9yE9y0vx3nLHJShB6ZrwJBUQcCxWE45ipZUPe56YhesqgWSxVDkZoU1YGiBhZW4aHGetw85+Icf3o3zTl+Nj5y7GlGHUkO1bGRlYXOEWvzjhs149Mln8YWrPoZVDbUISwMnR8SMJhcvg2JKC69tZxbD4zhu2Xx86MxTUBqzBCCQZeB3yWaz2LJlCx577DEJF7z++uvYtm0bTjjhBFRXV8viRG3BGWecgYaGhtziS4aB2QtkG+68806cf/758h//XVlZKSEKgo4LLrhAxI5arDg2QHBkURP2Tb4pWRW1yOt3oElbTeXmFtL9GHF9Np6TAGHzrl3Y2bwHl5yxDqXC26hN7oksTQFAOFp1QUcUQGD4IODR6jRWAgIdEtMAUwN+/V5lX0kt9EeCYYvhl/HgZxUpcSPbuDMMaEvnVCmX7vjeP8ul05GgSBiO6MxkLPuiWNE1CEjxAQWBCtlAZtRIeEBlKInmBhBw79mO0t8Q8PhOCv9GQKFCBmp98qB0TGQN+Ax4bculXoffgVJk7qgzGNS8moptGiAc5FOcBggH+eAO0WFBhfNYlwgChN9vfAbhumqc2bACxQTkCqjnShsHFxWZIEYWGZh4u6MPP771Zpy6rBQfXJpBpdevEL9PA4pRDxWjOTkTP3+8CUb1PHzrK19CsdRJUB4NJ7vUHkAIHcMO/teNP8eFZ5+Ay89cgSKyGdQosDCTqeom0Ng99PxmPPLkBnz1C5/A8poqEUVaIQ+uk0XYUmLGlGNg47ZWPPDYk1h9zBKcd+pJqIirVs8a6NDQExDs3LkTw8PD+OlPf4rGxkbMnDkTNTU1+Ju/+RthA8rLy0VToOlYAotHHnkE69evl+OuvPJK7NixQ9IizzzzTDkfwQYZBYYqrrjiCglB6LTJoPFl5FQ2V7E1/JvEgX32RjWVUqGHoE8vqV4FYYHge9YLGRfUNIBNu3dhe/MeXHb6OpT5i+X+jp9mEI6AEIMfVpD040BdD+YI5QS1rh+m8rVDzBkScymRQmbmcOhR6qdyZISBoI3mfJNxqPUzCiTIsTxOQhhK6yNjk7oYqXngFz4nCyUnVA3ZguGxIDtmSd8WF+kQQYEF4hQuQDqcwPAGQ2/CDvq9VjyL3VwzwhjwPl07C8MKSVjRMDLCTEroQ7eS94H3VCy10wDhIJ/igJZIsQAAIABJREFUNEA4yAd3iA7bH0Dg3yTv3jdCD7z8DEJ11Ti34RjEHEMAQuEWZOpcZKXd846uftx68414//JyfHBJBpXol8Mkhuh5sE0uFsVoSs7AL55qQahmAb5FBsGjmWfJY4YxlNrYQBRNfSn8422/xHlnHYePn0W1vQXHzqqOkDLpHfZ5xB82bMKjTzyHL33uShxbX4Oo4cC2M4iEeeMqi4GlmF7e0YrfPfwEVi1fjA+dsRaV8Zhf2lmFGHiP9PTfeustMfjMQpgzZ45kIGzduhVDQ0NYvXo1VqxYIXUOmK3AxZjG/xe/+IUwBQQLe/bswaZNm+Tvp5xyiugeXnnlFQEaTHfk8QxDzJ8/PydW1M9Xe1e537VQzH83AqJ8L0+zKZMZMnzPBAiv7t6FHS178OHTFECQ96lLWEtKap6KpeZkGiAcGQCB40fNTb+uCI20m0KIRpQgX+L6EckUUlVL8ymKnAOcoWqeiumHFZjoOsSo5ypDGJId4AsKxJv3g2MMEXKG5jIOyDzkahsoUbNO09VFlcgINJSFUBb2sGtgCEl2Y5U7isJ0ojCZDRUiawjRMrGmKgEF+7gQvvBiJVYERVYWaceVqq3USojIl8opYTDUlr+XycyeffedBggH+fyCAIGiqKff2LTfNEeSRHosHq105kE+6gMeFoy6FUaS9d9sv8IZkf0DG59DaFYVzp21XAACw3eaotYXo9HQ74vTPe2ZaOruxvqbr8EpBAispOh1CnVosQujFDgKwzaiaM2yUNJOhGqW4P/98ldQRDdBqEEHNsECAYAbQfeIi7+/8Re4eN0JuGLdSoRdDy4pR0mBUjFFhhgeZojhiafxl5/+JFbOrobpZcTDVxSpQjdJD3h5azMefOwprDlmEc4742SUx4JZDIYURnr++edx3333Ye7cuaioqJD0TrIA/f39YvDJEpARYNoj/yMAGBgYEPBAZoGFlXgMgcYPf/hDXHvttQI2Nm/ejJtvvhmLFy8W7UI8Hpdsh8KxzgW+UHyoGYTgi+bCXZiKeMCB4ANBCTHs3o23W3bjktPOQjksEZ4G1e1KIKkW1GmAIHW93/t1EBjr9+l7YRAcGzEvg9nFEcwoL0F3Xx86kjYSRkxCbjSezIBh7RETYSYIKoPs9y8RcZ+ogejGKw0Aj6H2gG3SOR8jXlZqjEgtBCOLmKOqpiahxrZj0jFQDCRTIi25L1UvIbcJ8+EJI3ByfQwNMeDVlg70EYBEIhhIh+E5MWEis1YGWcH9EYTdFGJhF4ZlIJ0CQjZQF49g1ZxS7GkfxI6RDDKmhaxFMKJKqdNZCRYcm8ic2d8+0wDhIJ+gNjw0LAQIB6qDMA0QDvJBT+CwAwEEPnsdu6RxYoghWleDdQ3LEXMNOCxgFEhX0nQ2Jz21B9x43I72XqxffwdWHzMDpy2NodxKwnNtmfhkBlwrgqzJtMQq/OaJrYhWzsb/+OrnEPfYy0EVBKKnyr4OBAkd/Rn8/+vvxofOOAGXnLUcjuMhQrpRU+ysbwDg0Q1b8Ocnn8eXv3A55tZUIRpSxpO0qkuqHibSDvDGzmY89MgTOOmY+dIAqrKIdRKAkEdBngHWMXjzzTclTEBPn4JDGnymKbLw0YUXXighB2Y3EEycdNJJokdgqIBbV1eXgAtmMRAIMNWRGQwMXVxyySX43ve+lxM2jp/mqApFiZcjnju3/GKal3jlK9LlAcX+4qqa7qX35eK13bvwZutuXHbqWSj3u1lq1oBhF44HJU5U93F0ShR1md8jByBoISKBseWkUWe5OHvZDBSZJjI2sHMgg80dfeh3LLghUwACq6KxcqmSplqwMgOoCXuoDmcxs7ICRfFS7OlPYntfAin2NjFYyTAmaYVh2AIheN1SK4OlZWUSotjaN4ykiAu1VonKRxWmYGlzcgOWZyPkZRHzsog6WVSGDZw0txqzi+NozRoqjGg6eLF5GJ0jrqwLrpURxoBAoySbxIr6EsyqLsbrjX3oGUmhvCSM9y+oxJamDuxIRJRTwoqmPiDR9R2majxPA4RxDNBYWtDgQ9cMAhealDAImxGPRgKFkvJnEEFU7mCVvysLpF89bgI2cHqXCT6B8cACjQMHO73IP770DGJ1M3DGnKWIStEiJV4qND8+Oam08Z6HnR0DuPamO8C5WBsfQsQbEYMf8hw5r4iavBCGvUrsHYwhaxahIm6gyEzL4kQaUOogSIlnZj1E0DZooSLqoSKSlcVC4v6+mp8BSsY9BzNRJNIe4hGgMm5LPFIMsBkR2pGCR/FqbEiBIzISLLVcGlc0LInVYB0EPfYIFm644QYcd9xxuOqqqySEoDMXeB7+O1jwiMCCWQvMYCBA2L59u5yfYQqmRZJZ0JvWL4xVByFQe04Z6EDZ2eD+wcVpgq8/11hr8+5GBRBOX4cS/83qxVzrMnKla6cBwhHBIOiaA8JCeR4qQy7WzqlAbXYAw+3tmLl4OV7rGsBbfRkMCmPgZzD4tTbIFXH+lXpJvH9BLVZWWQh7HgaTWbzc3I/t/VkkLJY4hrRt57pgOaouQhQZNMQcnFBfg+6+FN7qJUDgNPYQppPhswoJM+ILYW2YRgbVERPzK4swrzKGatNDDZuxpEbQ2DGE3pSDBCJodqNoSbvIkMkU8aSHqAPMD5k4dX4lwtkUXm7qkSypeNTAyjkV2LSnE43ZYiS9KFxmGwX0B2rujRE3negkCuw3DRAmCRBGPTBSUozrGh6eeWMziiIRrF64GCUWSUuaBEVTi8pUYq15I6Q+1wVxDuLNTR8y5hMYDyBokSIFTQ+/tEEYhFPnLlEiRcmPH13wJF8SlcaVWgAXO7uG8K83/hjRSAS1sSGE3YSKXcsCpHOfQ0g45dg7YCETKcHs2nIpqOQxn1pERX5aluUi44Swu91DZYmJ2jKKoUiF5lMrSWlSi9AzYqF/OIXqqjKUR2yYfv2FnHFl10fDwEjGRWpkCBedthoXnLUW5XGlPQguFkEDTBAg1Rt9QaJqDb1v/4RDMdQOJCo92GvyPScpUty1QzQIl56+DsW+/oPn1LoGKXoXuMhUeVwHe9+H67gjKYshCBDCyGBueREWxEysrozDzWSxM5nG8+1D6EYYLkEnRYBSAMlF2qS2h6xDBFE3g0UlEayospDKZtExNIyRLBughdGX8TDEtu0E3ww/kR00sqgOpbGqNo6KcDFaW/uQCVmoqihBSchASXEUXakUNrYOoMvlfAc8l0LCFGrjYdTFQ4hnRlAFYOmMclTGFLjfPeLi6e09aPNCGAkDGYtF0iy53wpkcGJFFEtmlKOpqQXR4iLMnVEDMzmC6vJSNKcdPLt3BDv6s0hb+YJNGmxPA4R3cUYFF7MgQJAGHD5AeOr1TSiJRrFmwWIUhRRAYIqZYgtU9S2SqyQzBTjk7n9q0lHexcfxnr/UWMZnTIAwZxmKGQcMFNDRXy5YM50gkOlJ2zv7JO6+amEd1i4KodQYUWmGUvyIucoWXC+KjnQVHni2CaGKenzmYx+WOCkBgij2pVqayp3uS7q49T8ew+lrl+CstQsR8T19nd7nsCCKaWHDq7vw/EubccVl52NRfbGkVUoxFp85UAJJ4O3d3diw4UWcvHoBzj/jRGEQWFOB440sVuHG43R6mPb4Nbvwnn/J49zgPgDhtHNQzHnop7IKAMsVqzlSv+XU3feRBBByYV3XRtR0UB3xUGtmsLa2CjXxMJpGhvFqTxK7EwzpFcHx5zXnWta0EfYclLgGyi0DNUihIeQhVBwDYhGE41EMZoEdXcNoSzgYYZYAMwk8V9aIpSXACbOLkUh5GEg4sMImSmMhtLe2o6quGm4siqd3dKADlWLgVb0CBzHXRdxLYXldKY6tjKOeHdbSw7AdA1uHHbzUnkCHWYQUQbppwLJtROFgTszD6TNLYCc8NPcOYs6cWpR6WdRGQwiHLGzr7MebgynsToXQT0AUCDGoOTzNIEzdLDnAmQ4GIEh52ACDIBXk/JQbtWBriDANEKb6RU41QGB4gj0RdnZ24fZbrscpS8pxzjIX5RgQkSJzDihiImcEFGFPug7/9ec9KKpeiP/na19C3GFJZlKPnoig6NnwZ/tgFt+99le44Kw1uPSclYiSYfAbu4iiGllkDQt/em6L1EH40uc/iaWzKxGl2JHZFxQ+Oqoegm04eG1rOx587BmsPmY+zjvzRJRIqWVVGZIirbEAgv5MA993i0GY6neeB3YFDMI0QNjvoz5SAYJluhJiWFIVx0w7g4VlxbBiHraNOHitM4n2hIGMF5LaI66p5l2Ra2NpZQlmlYdRY9uoi1jIGi46RobRPpAQ3UJXFuh1gZQVFS0A59os08S6+ZVYWmSjJWGjsa0bpcVx1NZUoHVvO6IV5bBDEbywowOdZoWqdqiKMcNyHZQghYVlYRxfFcPi0igMO4OuwQS6XAtNCQIFG30u8yV89iDiYXVtEdZUxdDVl8LugSzKiwEMDmBedTlmVJaiY3AE7Qhh57CNHb0ZJLzIKOA7VUL46RDDBFaqiQCEp7dsQnFYMQjF4bBKS/GL7aiyuFRN6+QaJVZT2zRAmMArmNQuUw0QdEXD7Z09uH399Th5STnOXZZBGYYQ8qhmZmKdK7Sh40TQnK3DLx7fA7NqIb751b9CiaRKqTCTJ2VcWSnRQ9uwi/99zf04/6yV+PDZK6TVqxIeqvxrahVsy8KjG97CI48/iy9+/iNYObMGlptWWRO6K50UXyFA2IvfPfoUVq1YgPPOXIvymCVpXKZAhH0Bgng5gQqD/zeAhGkGYVJTxV+ljhyRooTpZF11URFKY2HMw6rqItRHIugZ7IFTWY23+tJ4vSOBYVmFVdiM7B4LkR1THUVlNI14OouGklL0Z9LoQQhvdCQw6BBoGxLTZ7dVzo+4Z6PGc3BqQwmWlZroJMvQ2o2K0jiqq0rQ1NqOkqoqAQgbdnah06pUVQ/9tZ4C5eqQg/nlUSwtMbGwpEjmeX8qg3BxERIwsKV7ALuGbOwesgWUzCqNYkmpgYYwgU0Ee0cyiFkeKqIxzCiOoTTkoaVnAB2GhdZEFjv7bYw4UVXQhevQFIaupwHCBObTRADCU2+8hpJIDMfNX4SSSERoJvHGfA3CNECYwIOeol2mGiBQNMRshq3tXfjRbT/EyUvLcN6yNMrRpxqoGBnRIZAzEgYhOQN3PdECs3oJ/vorX5SeDRaBoMVCKzYcNySMQ8ewh3+8+l7V7nndcsS5OLnMW1ChK9KGthXGQ2z3/OQGfOkLH8eKuipEkFF/98KqGpubEU/plW3tuP+RJ7FqxTypg1ARD/vtk5kZMXaIYdQC4Cv7j2QWYaoBQhA0TdHwfE+d5ohiEFhJUVQ51BYAM+IelldE0IAEZhcXYTiZQosXwabuEbSmVHVRvQZLaSXPQxkclDj9WFBfjaJwFKlMFolwEd5oH8II6yQYDkrjUUS8sJyPIKEISRxXE8bq2hL0pQy0dg2gsthCfV0lmvd2IFZWhqRh4YUdfegyyuGGFfsXMT3MjkdQHzMwIwRUGRk0lMZRHqKg2ANicTQNJNDhuGhNG9jWNYS0ayIWNlHmJrAkHkKsqBgDdhgua3hkkphRGkNNcQgvvtmENiOKVEiJnZl1MaqB1RghxYMZeNMAYQJPbSyAoBXQ9MFG4IIAIcggjBViUP4aiadp9mACj/2gdzlUAIEMAusEnLyUpZbTqPB6hMI3jZS0kpV8aSOGpsRM3PV4MyK1S/GNL38BcRZy8Q00O84x04Gahq4RF9+97jc4f90afPisYxSD4FdaU6JWS1KhpNTyE0/hK1+4EivqWAch5XcllKVSFWmCh43bOvDAI09h9Yp5uOD0tagqYq0EJTqcBgi6x93ENAh6YQxqM4IDciwKdyywFQzhFGZovBeA2JEGEHRXRFYcrY4amGmmMMNN4Pil89ExbOO5ph60ZA2kDBpNP5VVqqQaiLlZlBkuFtTGEY5G0NIziOp4MWyY2NU7JD1SIy7bhFegOFqExvYB9Lseio0kjq0IY3FFFMMZC929/agsCiEWtdDW1oHZc2Yh60WxcU83OrxSAfXZsIOI6aIuFkGN6aHK8lAdD2NeWQSRbBKdwy76rAje7hxGv+MgZVkYsg3YFDPDQZGbwPLKOCwrjD3MrnBMWHYSC2aUYH5NHC9sbUe7VSINqlQ1x5CqxwC2n5cSUAe9fgYPnAYIk3yMUubTL/nKRZz57Ux3eboAIOgsBmn8kwsxqIDC0Vq1bZKP+qB3n3qAwKxmD2939WH9rT/E2mUNOHuJhwpP9NLCIJBUzJoxuFYczcPV+NXjexCunINvfe3zEmJgbXWOHQGJXhhOCNg7lMT/vvEufOjMk3Dp2asRYVsFCVU4qj+MaSFjmnh0wxv40xNP468+9zEsqa2FGVJ/j4h4maErBxmE8MrWNjz4yFM4YflcXHjGSSgvVumNvGbIio35PMdKJZyq+OVBv8B3cOBUMQiFAKEQKIwHEAqfZ5CBGOsch/tZH2kAQRgEz0XM8VBkZDGvMo555TG4WRttGRNvdg4gabH+h2LgRAcgFQYNzC4ysKQmhOqyGDY19qI5ZWNRWREqopboCkbcLErMLFbOrkckWoKXdvWgw4ig3szguJklqC8y0TWYRDKZRm15CScVsskUZpYXwzMttAwytJFCV8rDILG5ZSAGC0W2gwrTQUXcwooZcYTTKbzelcFetwi9DvVInKPZXFM11k8g68jUyLRloWXAQdoNI2YnsLAyikVVcWxs7EQHAYK0f2bMJYy0wYRmtkZn+uXU5OVMA4RJLkY6bqvryNNzY6GkZ3wNwup581EajYMFvrUYcRogTPIhv8PdpxogMN7JNMcd3QP4/o23YXbdDKyoN1CKBEz2jXdZB8GUoiVsptJnF+P5LZ3w4lU4de1xwiDocq3S7NWLwLUcDNoeHn7mDSyeNxOrFtQqMaGkOrIACzNfDKmkuK2pC9sad+HE1Ssws6JYgAa1BSqMpWjXrBHC3t4Udu9uwroTluDCM09ARUzpW2iELCNfo+AdPt739OFTCRCCIEF/6fEKQBXuG3QkdGqrBghB5mAaIEx8OAmF7jIzwEGtkcH8ujKEohF09yXRPTSMVCiGQceTlF/tVbOGJtG0aTmYURJGVdjFSCKJ7oyDQSOCeSHg+PoylIdt0QWFDaA4HkF30sCT27vQkY1icVUEK+fEMTyQhE3RYTyGsMN0ZhsZljw3DcSsKNx4GNt6h7CnKyFFlOgNGm4UMbgoQRpFzhCOb6iGl7XxUqeNXhQhzcwni0Y+CzgMJRDQOLDcBMoiIWElR9wwaz0h5o5gTnkI82vLsGlnB7rNcr9uiq+zCGCCqYEH0+2eJz46/T05yeU/rvPSaCYPEKg9WD1voYQaGGKQinyj6iAoBuFortw26Qd+EAccMoDQOYhrb/s3pLNAmZFCyKM4UUywTGR6ERwYWeY12yE4VhyRsIGIk8q3oJU8R1XYhGmyg2lLmIAYFwlH5UFI2iQXDkmJNJC2LTgeEGVlOCFEWXvBRcRhkSc1FrMe78EA2zNceMaJOPe0NVJqWVrBCkBQRZP+b98OJUDQxnys0IBeF4Qg8teI4H7jMRDTAGHiI5JzhnUJqqNRLKmhzsvGnu5+dCYp0lXzJSt9FkI+IFcaBAIEN2QjbLiI2pwr3I8tnQ2UZV3MKwpjTkURYhF2bXMxnMygLZlC01AWKZQIqxAP2UhmspQRCSBgPSM6h9T+kKULEfRHLAyx5oJDu8DZSPFnFFHTRH1FFAsqQ5hTYqC7dxgvt2bR60SQZRgklFXdTAkETHKSXAsywgJIkT3ps+Ai4qVRXx7BzJoyvLW7AwMGHVECINVmRIosyaZ46qnYphmEST5F/cB0Xj0X5wE7hRe2vonK4lKsnDMfMZP552MDBF5udB2ESd7A9O4HfAJTARCUmfYBnZRJ9tCfTOPpl15H0rVgOilhD6TfPCu6U/lsceFwEWFZVycL14pKKWbLy6qFhCIoMdgmXC8LiywBY44mCyIpipEejCEGxm8wxbxpJyxjxmU5Z7Z4Vi3pYDlKX8A+E+xTb3EBDdk4Zv5MzGuYgZBUiFQdHY+WsNahAAjBARcECcHPCwGCBgpjgYkgKNifluHdAA9HUohB0+lRM4Qiw0HKtSULQLoiSrtwtjdSW0i6oDMBmb0/bNgWuy2aiNoE8ZyzNkwzDYuZQKy6SHYCWYnmkw2Uksucq67qkkjAbnsmwr74jFVPGf83WUfFMxGyLblG1lJVV0NGVsosO5I9ZKIINmqLLcwsLUJiJIPdQxkknDCljHAoqPDScm4CBqkAaagwieQfSXVVsgpASaQIkSjQNzIo4Yc8GGC/F7aS52cEFNMA4YCGonCH8RTJUrgmUB9eVufApiaqLzFkC07+nQ132DbUAPYO9GBLaxMaZtRjYXW9VNIqFCkq0ZnapgHCpF/dpA6YCoCg3xUXHlWbQDVn5+KRkS5xUv5K5KYUQKl4p6tKN7P3gk9zSp81l01YfDZJLAdrp6uWsaJRkZRGER1IW1mGD2j0SXmShgp7ltRbyDgusYICFozFOiobgvvyMxlz/LdrSt4371L6ykuhoKkiHSf1Kt71nacaILAnxc9//nN88IMflAZX44UYNCAoFCoSzPEc7FlRWloqJan3x0S82w/sSAIIquQ5LT9DDSFVfC7kSC0Qi0DYTyUW5k3mhCpiRmPJNGB57l4EIeqBPAL4LCwCAOkM6Xv8EhcgY6cKrVM0bBssv2wq8R9tuXjrvjhQCiKZUu9AOjtaBBW+vZBS6VFZNyLiKLAKqt/rgXOeBp73JrbcRITrCx0DiZD4NVH09805nCG4XgZmSK1Fhhvx20xraKTONQ0QJjmTghNXxwT1KYLGW+MuvX/e89I5CMoACDo1TAw7Gby1ZzcGkyNYsWAxaoqKEeLf+Zp8cYwutayvNx1imOTLm+Tu7xQg6MZOaqqpnGvVwFUZc62khnjuDDBwAVEd29g7XgRS5CKZkMUZz9avphK3ckz43WPlW7FHvTRnEqRB5C/+gwAAaKMuIIULl4EMcxtMMhEqd11kj7JAkYq05VyGxwYu6qGpMehTrZN8jkfi7pMBCLnKfIFOq8HvzPf47LPPSuYK/2M3SwH4gR4Vhfvzdxos/seW2Mccc4y0y77jjjvwkY98BBdccIEwQONlMPA4ttSWAlgEmtmslMOmpoG9Mtglc6ztYAHgkQYQyO3zuTj0klm2XJg3zrRwbmLRwJJpY1xfdDrCGLCqCD1zi2gcVohhiSw8Nyzzg2CCtl4Xw2cVXFAXQPbBBwgUEavNn/d+OWcCdGkLLWnKnJ9RuZ5YDIYdXTZMI6rw1xGpdZIRkCEhQtZrYGMoR40LFj5Td8s1Q60NZE8IJoQdkLi1AgQKIBQWDhel05RsR02IQesGckZaUl/U9JCSycEnKou2+kAv2P6wkBcqAhjXRdJ10djfiT1tbZhfXYuFdbMRsRj31S03Fc0VBAhHC9U7JaPzIE8yVQBBDLq8eLVYy3jguBAwEBDw+K2Z9Wf6nedvP9+jcPRXCtKAeh/NXfhMlX8dGUM+MM1xUX4Ko4Ix/nEMRuY2BSJYJOlgDchBvoLDdthEAIK+uSBzqJtZ6efEZ80W2Ndddx2Ki4tx3nnnYWRkRAw2mYQFCxYIUAiyATyGHTPfeOMNMeT/9E//hK9//evSGvunP/0pPvShDwkTMXPmzFxjK13qmvfEc2/dulWARUdHh7TZbm1tRXt7Ozo7O/Gd73wHF198ca40+Fiix8k++CMOIOS+II396P4pQa85+DfdHE8dSrAgllX96lPx+W6uhXMybxtGn0ffiN4/eC/5exvtyY++38K256PuX58+9x2Da0igEHzu/if75ie2/1EHEPSjFVGILkgj40YDAoICny7yDYLy8vw6+tK5z8SwncWuni40d7ahqrgMyxvmojwSlZgRX7R4ngW07jRzMLFB+U73OhQAQRH2ChTQA9SLs7AF7OpGwBkwzropkPouwc4OwW83Vv/I/N/15AxOUlnb9LhyFVjNrSX83A9/5DGC6uw2DRDydRAKAYI8X3+O59hBx8EzzzyDO++8U1pjNzQ0SKtsfnbRRRfhm9/8JoqKinJjQrOSBBVXX321NMB6+umn8YlPfEJaaD/00EM4+eST8bGPfUxaaDPcULixW+ZvfvMbPPDAA9KCmyxCdXW17Euw8K1vfQsnnHCCnFtfT4/Hg32/RxZAeKcrw/Txk30CRxVA4CLPzAO90Ov2rxJn9rvsKZSoKCS94DvUHbA8rgjFPPQmE2hsb0Pv8CBmVFRhUd1slEfDElqQeK8PDYOTVrdnmirqZ7Iv+mjaf+oBgp+14o8TCSbkvPnRqUD6nVNHkN/GAwiCTAteTYGX4bduDYIFoRj1PZA+9dkNES9OA4TR3RzH6MVQCBAUhhutO3rrrbfwX//1X6ipqRHdAEMFmUwG3/ve9/DRj34UX/7ylxGLxXLPXgM3hgNo4O+++27s2bNHAMErr7wioYoPfOADcuwpp5wyCiDkmEzHwZYtW3Dvvfdi586dqKyslNbaZBCWLVuGiooKrFmzBqtWrcq9f33dsRqOTWTOTwOEiTylo3efowYgBOvOa82B+F8F3oPEr/xWGxwW7AjGuG/acTGSTqG9txvtPV2yDi+eNQcNlbW57o3cX5cBFcaBsU2GGKSDnE9RB9ahg0X9R+9wndg3n3qAoAolKVDAvhqKdnQcT+hjen46ZqzaNVPcNNrgBO88b8MVOBgNCTRkcFWaY0CwQCNAuru4JI6QJb0flYDSF0ZKbLuwgFqukuLRAU3faYiBz3L37t348Y9/jD//+c/i7ZM1uPLKK4VJYMjh29/+NtatW5fTEQTDT3v37sUtt9wiY4KG/dxzz8Wf/vQnNDc3y/GXXnqphCuoJwhuwkS5Lrq6uoSpeOKJJwRYaN0BwxorVqyCaHlKAAAgAElEQVTA/PnzsXbt2lGplFrTMLHZMXqvaYBwME/t6DnmqAAIo2KN/oKsNQmi9/A9sIxhYCCbwkg2DcezMeI6SDoOktkMMskUksMjMB0PNSVlmF8/ExVFrNmt+o2rTeWfap2BLqY0DRDe3Ql1KAAC48OKGFIFjJLpDLZv24mXX34ZNAoECEqgJIlSInYKAkAOsX0Boc8EyHnzBjwYB88xWz7zVVlRjZPXnoA1K49FLKZSGOn9cjyTeqa6OT8WFYDQXua7+xYOz9XeKUAgS8B3unHjRgkvLF++XDQFbPPNz1966SX867/+KxYuXCjiQdGp+KJDfuPNmzfjd7/7HS6//HLcfvvtokUge0DPn2Dh9NNPl7AB9QuFG8MKPD+Pb2pqQklJCbq7u1FbW4uzzz4bH/7wh4W10GxBkDk6WGdjGiAcnnF6pFz1qAEIVIUGNx1T1gCBzMGwY2NXVxt2de7FcCqJ7sQIBjIpFJcWY3ZNPRrKqzCjuAL1xWUoZrhXUmMMKeUpqZGS456f+EGAkLt2IIXyYCf1kTK4Dtd9TjVAYBZDKs16mQoA2q6LbTt24te/+g127dolNHBVVRVCYVOEbE17WjCzoUEW+KBWQeCF36NeGW3FVmnwIADDUmLEQu+SY4VeaePO3aitqcJnP/0pnLDmOAUQyEGwWIsAhNGNmaYBwjkoljTP8TUI8qz9EAOB3tDQkIgEKQo8/vjjRQ8wb948/OpXv8I555yDb3zjGxJ2oBGnwZ41a1ZOm0INAsMDbW1t+O1vf4u+vj4RGNLAUz8wZ84cLFq0SMIFheCP16Fu4Z577hEhI6+9bds2bNiwQQDGFVdcIYClMJygRLEHxxBNA4TDtUodGdc9KgCCLmo0FkDgwsBlnwAhLS14+9E9PIAEF4psCgPplJTTTA2OoDwSx/I5C7Cwrg5Fft1rttYgQJDpKYrSfEx5mkE4PJNgqgCC5oQIEGwnAzvrwrBC6B8cxG/vfQCPPfYYTjzxJJx33gfVgm966Opox0MP/xHrzv2ALPLaUwzS0GpBV5SyAAWGAZiO6IOHUZMyoI9JpTJiQO5/8Pc46fgT8Hf/6/8D6ygJQPAcOT4UZp59HqROA4SJAYTCiBBDAmQAPvvZzwrQY9iB+gAKDVevXi2hJb5/6gTe//73CzjTTA2BAcMLZBzIBhBAMoOBYIL6ATIJ1DZogMDjyEYwpMB0yB07dsh5uVEcSQaDgIWAgeGF888/XzQJemwdrP5AliyFjsTBkbCZSpZFc9rDg3sG8GJ3Ck6UrMXRUYnz8KxY792rHjUAIZjGJBPB99L4AMTAsyIdVJ456+6zIAeLZbCcJsMMiVQGXX09aGppkRzXE1eswuyKGsRNVUAjqFSXODQXdsmFV6WVpzUI794kmCqAIPSxvFoHmXRSCqiwR0JrWxtu+9FPxEukSp3eIRdp6g5aW5tFiX7pRZeKp+i4Wb9AixoLspgbroADnQ3B4UPtynjCx+Ak3bGjEdfddBMyGRvXXXc1qipLJd+bZVlpMCyTKY0qayF43MF6mO/eW5uaKx1MiEGee0EIqLe3FzfeeCO++tWvor6+XlIQGX6IRCICBqgVuOuuuzB79mzRFZBREIPreWhpaRGh4i9+8QsJMZB9YLoiwwtXXXWVGH2dicBjyFrcd999+OUvfwlel+ELXo//Jiggg0DmYcmSJcJi8Jq8L4IOGXeBEMdkn+I0QJjsEzu69j8qAIKeuLkUJp+NUwtDfnHQugRt7LmoCqJmjW8AacfGcCaDls52NLfuRV1lNZbMXYDq4lIW25Wq2TrFUQAJi3Xoegp+kZ2ja3gdnm97KACCTV2KVFcPobm1Betv+7Es4J/61KewcuWxUh2zvKwE3Z3tuPvuX+HSiy+RXHn1/hU4yAMAVTSJ4EF7cbo9qwYNhcadv9OLY0jjhlt+hK6eAdx0wzWoqiyRIi9SxM2yRLwYTGuUynMSzpia9q+H541O/KoHAxCUE52vfcJfCQb+/d//XSognnbaaSIOld1cV0IOrFXwxz/+UXQBBIkEAjyGAkMCRO7P9099yoUXXigixeeff14ABlkAGvsgw0RGgtci68CaCWQbmO3AIkvMqPi7v/s7uQ/WWeDYCRZNmgYIEx8f03tO7gkcVQAhn6EQeEiBhUGrwgkQ2EtcLayGVLvTYnLW3R7xXHQkBvHq7h2ysKxZsBT1ZaVSA4EVs8ggBJPX5BxjitQm97Km957YEzgkAMG20T3Qhyee2IDuvl48/cwGWayPPfZYoffDpomrrvwkwpaBe+65GxdffKEYCD2GRqcz+lU5/bCACnMpjz8IEPKAQgnhaJxaW9twzY3r0dkziOuv/T7qZlQKg0CAQK80yCCop7W/FMuJPc8jaa93AhD099SLItMUr7/+eqH+dZaKFqPyJz39v/zLv5SQAQ06jTyzD6g7IHB48sknJRuCIQmGBWjUtdiRn33pS1+S8IQ28LwuQQKvyxAD9+e5eC2yDgQXejwF2aZpDcKRNEKPrHs9qgDCvpWrVEeu4Od+l075XP+bMWhSuDQ8bLrDWgi2YaA7lcCbu3cKHXjcgsWoKi4FS3SqXgusia8GQ2GpZX42XVFx6ibKqEEc0GppUKYFqQwrEfg9/NIGRGZU47S5yxHnuyVN69+OrnGgF2IVYvCQdWw88cyzuPHm9dLyNZNWL5deu21nEIuG8bWv/BWWLl6C++77LS68+CIsWbIsF0qQtFdHxZqpVZBIg4QBHBUeIKg0TTEG3LQBCFZQ5F4Uxl1303p0dvfmAIISy3qwrBCskGIQ9ObXjRvFYhzMky8MWUz0HIWhjWBGEedVcNNZIvLsdf8L2YG1RcbKAtn3LjRAeG33Duxs3oNLT1+HYr88bTCpVJ1fHa/Gjx8ODIj9dNohRYZkDZRmhA2xQoiEolLLgFoCXTApCDB4zhdeeAG//OV/C4A466yzhFWgNoH/8V0zVEB9wngagkIQUChe1S2lgwAj+ERGZ9EEM2b4fJmNo/fOvwetQdiT8fDQ7rwGYZSuRdeMOUhh5ETHTuF+hZUT1Tjx2blAVcX9fSbvu6ACox5v+45F/znJDoGxeoDqhaMkxv5xY2U9F9qd/PXzs1Z/dnAS1IN90vnjjkqAoL01vThIcwx/03FnTj49QZUx98vrBvZls9+O5CC27NyJsqI4ls5dgNJwFKzuPRZAGJ0Mebhe+TsfNO+1M0hoyNeUsAa7fm/UluhJSHCgRVgPbVQAYd3cZdL+lR1TJRMl4G/rxTUIEAaGRvDwn/6M9s4OvPD8K9KEZ+HC+UglRwA3i69/9SuIRuMST/7QJRdg7rxFGE5lkHVN8f46u3rRuHM75s+agTkNs5BJcQQpsaICGjbCbPPsqfQ5GZ+uIS1maYQsK4zWthZcd8PN6O0ZxA3XfR+1NRWSTWOZBkJWVGq/q2PVaMuP9cKCTKPf4lghjUKVfd6Yjj62cD99rrE821wXVNH+uKpTXu50qlZ+rr4DtRo6cXj8shL+0WpPvmPmm7y2awd2tO7Gh1koSZrxqCr7usiUDgHqS7MWvtiBgNHT40oDN2XIfWGp30Y7+F3189Hn4Ht1XXYNVDqB4KaNe+49B8Zw8B4EWAb0KkGWKXi/+h0U3k/hXM0bJXU/al6wBBxrwqjvx3Tv3WkXD+8awos9adix0aBzrHHxbqwJyrCPZsQOBBBUx0XVvEgbaddkE6X8edTfg7OfzdR0Hxb1bz1+9KxiLZPxVvCJAQRXnE3uq2yFErgr4KoAQp61Vk/3cFiMowYgjDeAcw9AL8jjNG4JVq/TWgUuORnPwfa2ZrT092LRnHloKK2Sbo7MbsgryCluGz20pxmEqVtS9EKuuqyxsqCK8WuAoFmBHEB4+XmEZ1Thg7OXSadFNnTTAIGLQdBb1SJFmyxClvJVoGVvG9b/6N+E/v3UlR/HaqaewUVFWTnaurolBn3hxeejbs4CPPzkRjT1JLFg/iK8tWMbhvu7cfGZJ8EeHsDGF19SJXXZ9ImhKbJTUkshZ7YkvBWLR4SKZpochZFkMXq6+3Ddtf+K+rpqKdrFBVCaCEmaY9DkEjDll5ZCLzRvIP1y4q6vj3CcnDI/uE/QCPJcpNXD4XBOpBd8q+MBBC0QZklztqjlMxWjI2XKQ3mwJo1sqO3ZN/Vzf6MnaZjY1EgGYRcuOUMxCHwEugW7Lo2tDR1/JzsT3DTI3Od5Ga6wPWNtQY+/8FxjgY+pmwGajdo/igp+X2l5bJjSRTSfrq3aIGcQEoDw4M5hvNqfhRON5EvRByrRFrJDU/l9xny+BIy+YTddtlHmwMl1UAq0Z1cdFV3LgWMqDyDELqmSLeTBtmz53JPGZpYPjPLgb1T5cum8qgECW0GruSagwr9JYZi1g8H1h6A3sN5zN72+5L+XC9vi+VxZg0xp1MZ75B7s8MhmgAoUSDG/aYAw7vAyvPFWtUM9Isc4f9AYKTzroSsxiE17GlFXWYuldbMQ43Ijg88fw6J+n273fKhel/ZBxwwPFBTGopzvoZc2IFxfiXMbliHssGUsEPbflfIcFOUvxpBY3vU77HksgeShdW87fnjbHVIf/zOfuRKnnXyi6hpnmmhu7RCAcMmlF2HGzHl4/JVtePjFNzGSAspiBs44aRlOW7kYzz35ZymgY6czck7pNEevepSjqZgRsgrMvz/7nLNEGHnDTbegu6sXN97wA8yorVSLk2sgFIpIoaRCgEBmvNDDHM9gcT9S6hRDsnIf4+B6zBeGGSjKY6ofq/uJFqNgGw8g8Hxslc6OdJLu6bfN5nJIMJNrWuMDBAbtpPX1BLeUYeKN3Y0KIJx2NuL00Qxmiviafb9lhTZwqkaK7tWpLsI3orOPdJl0nYmkziMVLPzaJ/5YCZTfVmdR/qaSkO6fwVHPQF9pjIrZAUwS7AhaCEpkqRSwlb9/ZVzy5xYTJF1FVVEvBlplzLsh8WoTnokdSRt/2NqDbQkDTiQMsJaEHxab4GuY8t1oeAkQ+PQtN6w8bEMJfdVL80OFwgiwKyJ76vhtkD020fNBoIAK3R6Zbryfwhls4MSx6Rtsm6E/9nnm0+Iz8Hh95fHrcIVe6xUQ8N87d/FT3yVTzu/+qpkC6dJIwCmf812o9uxq/Km/5X2Fw+NSHvUMwmRHsc5d1wafw3XYy+L5t7egLFaCVXMXIE4dghRm0bTlexsgHIiWnOwzCu5/qM4dPG9hnQsNGIJiUQ0eqB15aOOzEmI4e84yRNlS1wQivpetvdlCgJCxVQyai2pLaytuvvUnOYBw+vtOUgDBMoRd+PXd90oWw7x5i9A5nMHTm7ejsbkbyxfNwvuOnY+a4gh6uzvR2dMJI5PJtZmV8FagFoJmqvh5XV2dxLv3trTi+ptvEQbhhuv9EEMAIFhhVRRIb6oUcz7sEjT22oBrAZ4u0vTUU0/hZz/7Gf75n/9ZigDl1t9ATQZ+xoJCrCrIcsRU2Ovcff1uxlLXU3PBv2c9IGMaSPknp3evlDvqXnN9Uvy+KLLQjhE7zn1PP5WYsy4NQwDCrtZmXHzqmYj5oSa92LISpq6eyn/L2NCl0AkNA30Zgq259fVzYEXAzWg2IdgKg89dtfEm+FMluMVY50Jf+eyWnLBWf3Ft83Q6Np+NXzdjvPmo3+2oew7srO9Nhoe/U9aksfSkZXDICYlXO2QY2JXI4LndA9ibsuCEDJh+6qxp7RuKeSfrw2SO5fMTRsBvcyz+9SiAQBAQOKM8b7U/5y3bKnNgMeNMPQNfe2KQYRqth+F5hfrnM/EBggIJeYAgNkCO47lVeIBAwELGN/I0+vwbVxO/fTPHsb/WqON5jOd3FFatqdWmgIPaFBg5HNs0QJjkU9exw1ws1Y95PrNlE4pCEaxZsBjFFItNAwQ1SYJtkif5rPe3e/C8FJQGQYGaXvnMAFVtUG0ZePjDxucQr63EmXOPQZiT0wcIhZSpFtFx8aC3zPU549hobtmLW2//qSjOP/HJj+LkNWsQgoN4SRRtHZ341T2/wwUXXoxj5i+SGHQim8ZAwkZpSQzFUXr4pEd5hxmY2axQ6I5fx0D1XlBsgoRMAl6paYQkx/7qm24WgHD9dd8TBkG6jXqmMAiFAEEvgqMmuudJ+t327dslZMGc/lNPPVVCGDTqDz74IH7yk59IwyFqJ4LPWhuhnp4eqfL3L//yL6KwJ0hgUaHgOx8r9k6AQI1F0jOweyiJPYMJOKI7oIFyYLP+iOk3S3PpETK8kKeR9fnHDZWwxokB7OrqQvtAL05asAgRiSmoTCL+j3YhWEAq2KkzqAnIL85qRMm1Sf/6B2vjHxynweNJQ5OdEOAXaC8vZ6NtC9Sq0KyAAInACUcB4XEBgvKMc+xmYM4Fn5Pcm/SGkcQbuJ4B2zd6IVgIZUPIhrJIWB56XKB1xMKAHc4ZT75PK5TXUxy+EAPfmJ/RkWMCAJOxwsAm0I8MgmSh+VVucwZYPQRJLxa2QUNEvhsFPAT0ezTyZCs4H31w4jMVuXCHxzHnF8oSkKDZCRXyZPdfNX7yAECxIQQLLNWvxodjqkRqvWmR+zRA2L/heE+EGPRE0wt2IUB4+o3XUByO4rj5i1ASCo8JEHTslZkOh0NwMoX2+T11qqxETl0/xTTvoempFlzIiO0f3fgcimorceq8YxCWKLcnDIJqtBQsbKXP4Ir+oKurD6+8thkdnd147InnRKR43HHHoizONt8OPnTh+TCsMH792/txwUUXYsX8OWrCGwQANHYuGEPgYmKLyMlGJJsEDT8sBRoYg+fYEvGY3xxKe/q0Dyy4c+2NN0qIQQMErUEIh6MCEHLGzK/xIbR9QHlOxoCNiP7jP/5DKgSyidDXv/516VhIPQH/xlz8X//616NEe/ocLPnMoj7sO8BiQUzn/NznPoevfe1r++xfaERIaduejWHXwCvtPdjc3oeMFUfIMRFyKR7LCDXM5+VyIXYo+aVWwffefLC3P2/asQy0DvZKt9Vj6+dKGEmEeL7nrjUIHMSaZRpLZT6e4R9v8Ov3tA/Q9H3IwuN0SmsQKEjX2ICBD55zPFDE9OrgihK8/j4AQWqzEOaEZHw5vssd8kxE7Agylo1hy0WPa6J5yESfHYbthxakWailxtJY4aNDvSgERYrK6Ko+OArIay/eX1lzL5Qrgx/DZ3YPDb5oBFS4kF+f4ChI/wuxb2Ry2h4PYWEAggJVflfHZy8ExOosmFx1yvzTkKZrDFlokKnBv2QbUXeg1gb1LUYzGeprTDMI+xtbhx0g8B1JTM+H9jnvzu/YSJr0qddfRVFEAYSiUAhh30NQgjcVYtAAQTfY4ZcOLtz6IWgQEvQeCz8LeiqFHt545w2eP7iP/nfhSxjPQxhvodrfSwx+l+B++vNgjDz4TILfWx9XeF9ZagN0mCBQ10KHgfT7ImJPujaeeOUF1NTW4sS5S+Q98e9cZLU4kedXi0p+spJBeH3zW7jh5h8ilc6gfygjtHE0FgIyCcTCJr7xza9j9px5+O3vHpDiOEsWzFX1CzxL2oUnMxn0DgwiHo9K+V7TdRFj/NevhKcyZ4zcOFHfU4UM9DNpbm7FdTf9MMcg1FSXS2otFymtQSgECJqRCI4Z9gu49dZbBXCw2BO7EzKHn/fF7Uc/+pH0EhjrmRMYrV+/XrocPvroo1JJ8uMf/zguuOACCYMUHjPKAHJx9jwk4aElbaMjYcM2LIRJcRMYmfT2KCAz4VFYxnpjfDeyyOazEArHk3jF/oU5Fra2NqOpow3nrDkJMZl/CiAEmSZ9Dv3uxxr/+zJgSpCWE6iNkeo3Mc9aF2YKugrqG+RCAYFzB5/hvgDEr9ei16cCdkJ/h1zyHDNe/Hi8bdCLpgdLgAakTQ8jhoumhItnG4fQlDSQZtjKUk3odIhhvDXjUIKEHMjzKXleS8X2VfZKjnmh6E/yiMkWcQcCAhpjZYIpjuUYE/EhNQCuKc9DhYE4zpQ+Rr0LjkMKGfmbBiIahDj5sJFf64ZhmizX+lyGgh9gIFj3GQ0KE3VmhRh/M591pAFBPnyRZ0YOh1M5inl0bMQzgzhrbi0um1OMcr8P0cTG+6EbGe8JgCATIkCZKwSpjEsKHp56/TXEo1EVYggTcSq1syBtfwAHI0q69LNOYRrv8RWChKBh1x5IocENLtBjgY3g5B41AHw6O/jCx3r5OR2G36KWsetCA1+4gGj6U3sewd+D32k8IFH4nHL7Ue2rBWzMABAV8Whqnucnfk8bBjoSfdj85hYsnb8QC2tmwNdC+wuNTnPTOeJ5BoFeNxmE1za/ga7uPvzx0adEwb9q9QoM93bDyYzgc1/4LErLK3HPvffhvAsvkhTIN97egWTWlMp5m7dvw6ZNr+P9q5Zh+YJ5cDJZlXFBetNRQIFMhX5GBJKSmeCnObJa3+7GXbjhtjvQ1dmLa67+F8yaWSshBssISaXFQpGi1iAUPuPXXnsN1157rTAIbCX8t3/7t8IK8N/HHXccbrjhBukjMNbGd/HQQw8JQOB+FCkyp5+lhD/zmc+gvLxcOhAWjgn1uwoXMHbPdDrdRE3UB/TwAxQ+F+V8Z9TRDML+lhvmmrzuixQvPu1sxOiVSw1MJS9UklAtQlXz+kAMQh71sG9BMB6c79o52ltX8e0c87jP6u4bq0AZdnlHnr9uTGI9Vd5rQQzdPz4ILIKnVKEbrYvQhpOGzUXKM9CYdPHQtl68PWwgEw2z4IfvRU+sHsUkbn/Cu0qESKQDNPp5kaFaX/3vr7MLAuEbEQOKEVYeusVaIz6LoIWB8jxcCy7DW6xT4ql26zICmf3g+PVyDDJ8Sg/Df5GHSPOchoOwZyGUAdxoDGmCfVMBGAUuDJUxZTiSRcGsirCjxk6WToRoK3xFi4gmdfZEADBO+ElN3Y7TAGECzzInINoPQHj6jU0CECTEEInkAIIaYpZ4Lmoa5hejoKENUnbsCEgVORdaisSCHf7Gog/391lhvrX+uvt6RqMfBA2iNvyFIGEsereQVQgCAX3mnH7Dz/svfPRj5YYXgp+giE97+oohUAuA1hsEgRGfe9IEBpw0NjVuQzaZwinLjkV5NI6QD4pGe5HCqeaU6tQRkEEgEzSSTIvO4NbbWYZ3GJ/45EewZsUxcDNJVNdWoaVtL35z3wO4+LIrpK3vXX94Ets6kqitn4+mPTsxuyKEj5xxAl7f+AKefW6DAAKJafv57joCrdkMBkCYxfCBD5yD8z7wQREGXnvjD9ErpZavRXV1ifxdUq/MEKMZOZFi7hwUy/npi/xJUED2gJUgOcaoJ/jmN7+J//7v/5ZwA/8jeGA9h+DGY6m7YOlf/o0hCN4/QQGbELGpEIsHffKTnxSgoUGJHj+s82CFuaz6bIAfl5X9AswP6WMJi3DBnGQxHhqPrGFg866d2NGyCxeffjaKfYpWmBiZw45i9bQR5ZIfDPwHvvRY1x/dGTYPFkYDhEPn76l6BWpTDsi+4GCs+S0ZCz4SImfmCYugalFw47PjMyeYbkoBf9g1iI0DGdiRuIgUJ46iJrCoHsQufEW2zHXevYgo4JqW1P5gppFaW4O1NXSGAlMe/edFAOb4L5thBMdAyA/5pS2GAplJlM0xLLJiE4BIC3e1aQdEBImGiSznl+XCdDxEeFthJo7yWdowRfCixKrCUvhCZ8syRAeiQiPyJmH6oEV+k2taon3YX82Fg3iMkzpkGiBM4HFNBiCQQWCIgapsrYTXAEFfSsoo+YKjwkWFv3MB/8EPfiDir29961tSgY0LQbAM73gLpzaMPAeNPBvFKC80r5iWQe55kjJHMEJvj6Vi+RkNAK+nu9ONrUT35NysCMc2x/SkGZfWYEYvXIVsAH/n92YpWRomHksjxVoAvKYWxAWpcP3MaBj5nfhMeJze5DmyOJJurOT/gaiekh96qWnPQf/wEBqbGjGcTODE5StRV1ImkUXDdWCxkI1eMwrKYvMsvIYYctsWDYFKc/y3fJrj2rWwYMN2bXR29+Cu39yPCy+7BAvmzsOr21pw18MbsLdzBLPrK3D5uSdj7YJ6PPf4n7Fx06tIp7Jw6OH648HSDb60qM3Pu2ddfnrone0duGn9baJBuO6a72PWrGqlunc5PkKjRIoaIPDU+l3wezC8wJr/jz/+uJQR/ou/+At8+tOfFkZAZy0wO4EiRd0xkI+V4+XOO+8UIMD3RcaBrAYbCvH8F110ES677DIJMwS7WOr3KSxQSLEIKu0wnx4oIM/38qgzFy/fN3y6il8hCB1PrZ+BhU27VB2Ey04/R9KOpQ6CDgxIYSBlMQjcGdqY6KaMhDIYalnPA4G8zG2Mz/3CShO9zsT3C6TCjXFQkBlRahudwKCNpy/k08+CwkUChLSBB5pG8HxfEghFA4WeCsHIu6euJ0vA7BfeQdTPhnElq0K5XjKHPUc8+7DhIu3RwEaUx+9PcJkTos1RQKLIMFAaiWE4lcSgqVhhlYmg9AGyVrpkuiieBSLIIsSSqHLVsIwdiglTNPicg7ISZGSdEAaM4IDrnsG9gThDgZ6BITgCZB0RWxrS8E/gmjAJCpT4nLU/ziY+IqZyz2mAMIGnWahB0IcEQwyaQSgMMajlRDEIelO0776LkqbdqQ6/+uqrxStjLJtqcwrB2OJVG+7cuWgA02lRt/NvNKA06rfddpsYNNaK1wAj+FVpKChG27p1q3Sjo8fHMr6kjC+++GKcd955+UZTBV6c9kJvueUWMSy8No0OVezMm6dB0KxHIZAhkLj55pslLY6qeba2ZeMbxrFJVRdu+pnwGbA7Hr3T5cuXC0DJMRmMqZqWoHluWcNDZ2IYrYlBtCYG0D3UD6Rt1MVKsWb+EtQWlyBEr8nvfZB7ln4PDZ0zro0A/04QJFSuAIS9uPnWO9Df34/PfPZTOI0AQUo2G2hp78Qv7/kdLrz0UiydOwdpx8Wbu1rR1NqN+XNnY/G8OpSbtphA7Yk64n5CadsAACAASURBVNGoe1e9FPKGk4r/4Fhpa92La268Bd29/bjpxqtBDUI+i4EAQVUN1JSzjD3NvgbEbxwbLAX8+9//Hh/5yEfEyOvrkiH4h3/4B/znf/6nvE+9cZyRbeju7hZxIgEF3wXFjQRvLObEbAamZHIsFoaRRI8hXmwSXBrhRSWDIZeHLk9BVZFUfJtftEoqIR540/WgCBA2N+7A9pY9uOz0dSjyQws5kZgUu1GZEsoD35c2H2t+Bu8gWHxqvDtTDJdulrV/RiGnb8rtdigMrxLmyeanjarEUlVLgIbUdEIiEN2VAe5vSuGF/qSAOj23xv6uh+Je970SAYItppqeuin6IQfsZJqFI2xIRJiFmqIQaoqiaOofwYDDsIFiSkTRw/Raji8CbyeLmREDy2ZXoLNvGHv6B5CmYNiLAwYzF3xmyVVsk21kUYYUKiMqrDmQtlBdVoyaKNA0MIyBDD/noWTAiD9CIHUhCbymiyIvjQVVRaguK8KWvV3otT2kzaiMQ4p0owQiZr7McrCS4qHjo/Y/r6YBwoHXHTWfxkgd0sLDhOHhmTc2jRIpkkEI+W/VZJrMGACh8JxMOXvppZfEYLLFK2PBFI3Ru6dnRpAQ9Oj0fdE4U3VOAEGxGFvPsskMj/v85z8v5yg01KTMH374YUlV++hHPyo57KSV//SnP8mxXOxlgR6D4qVxZqc7Fvq57rrrcO+990q6HEEFfzJljkYi+Nz4bxoYhk54HbZC5v0xdk2QQqDBz0Yvwmox43Oi13rPPffgr//6rwUwvfjiiwJMCGqWrzgGX/jCFwTkELQlM2ls2bNLhGotQ73IWMDieQuwau4izC6pRJkZRsylx+/ApCHzBYkEBrorg0qJU4I6UoTJZFo8dJqt1ra9uPGWHwnbctVVn8T7T1wrho0MSMveTtx7z9246MIPYtHC5cg4puT706CEQ54o9ZkCS29ZRFK2IzFOLsA5logxUynTq4wk74GZDvxJUSFFip29fbj++u+jvqYScFT6VCgSRiiUz6NWz9Kn631Qymvw3fM9sHUwSzgzRMD3r6//9ttv49vf/rakOrJXgN74/rZs2SIsAscaUyU5RilObGxslNADxwQBA9kOtijm2NNjVgy/0Kh++3OfKi8U7QrwBtM/9TaxTpRi4AjmYGDT7u1obGnCJaeejbhQvCrLRYEPckv5JVe3ez/QUjBqsQxUp9zfcbnaB5MMleTz4Q+wgE/KcmjQFdTYKMMpXi6luqw0SAYh6+L3TX14vicJRKIwDZVWOPb27gEEqok4LygGDFFgabgoCXlIO6xHE0PUy2J+WQgNpVG83jaITvr4AhD82UAGQsJXNqJGFrVGBvPjcYSRlXo23W4UbckwklZYqhwqEWNI2AEeMy+cxurZVRhKp/F6WwJ1FUVYUleEt9qG0TKQhevGkDWzyPgZS6z4SDBcihQWFRtY3VCB9HACW9u60e9YGPBiGLB49XCuSJKAe1MxOdxk3B5ocB6ivx8YIOgw4LszBsb6moddpKgXaf7MeXe+2IlIMggQVi1YhBJLhRg0QDAkmS7PGBT2guB5OeivueYaSR1jn3fGg+mpXXLJJbjyyivFu2YKmhYd6Z/0yNl7/rnnnhM1OlkHGnAabu5PdoCGmKEGMgma5qcSne1qCRAIPri4c+En3UwvkAwDj2cooJC1oDG46aabpLofaWUCChoueqX0OBkWYStbTWvzXvk3FuC5//77RflOAMG4N3Pw+T0JbPhZkO3g8fwurFjI70dhHAEPmQ96rOymx88IEGjQCDbEsJoGRtws0gYwwlDIQC8ad++CYbtYtmARFlbXo8yURC9V4TLY6AWBXgC6Tj2FRK6HwYEUOjo6hEG46+57JKxy7gfWoX5GPcKGJ8YylUnjt7/8JS67lL0YFsK1YrDJLoh/5ov0VG4VnLQOb6jajWHLg8P7F/9ZCdxEVGWEpBwz1YpsG3z9zevROzCAa67+AWory/xUPdXPwQyzWAwnrRAkuRQp7aHy+ZC1YSEkhpfI+qxcuVIYIFZQpG6CLYsJDsgg1NfX5+YknzmBKJkAArKf//znAiwIFvgZfzJ1kqwEP+c+ZMD0O5X3KQWlgs2kFPU/aiGS1ZCGS+eSHDjNS8v0eJ6kAby+eye2s1nTaWejmCmTfqhGrjUFAEEzPuOty7mwyiTCF7K+vAtt4Uc/63zOvgYI9LCb0zYebOrFi91JOFFqEA4/QFABIQp7HcRdE2WhEKpLDcyuKELKNrGlfQRuJoOF5VE0lJjY0jmINjeMJOuMSJTBlWwZsn3llot5FSHURKKojkdRHDHEqL/ZncSbfQ6GXJY7VqnIFoORjoG4mcFx5QaW1BRhT2cfGvuyMu9nl0WQMkLoTwMJO4Q+x0XCJOPA2ukW4oaDBXEXp84uQnU0gr7hlDgN8ZJivLi9E28ngITJ56vCElqwm/XDje89gFCDy+YUFWQxHOUAoXAh0GEHAgRmMegQw8oFi1DGWDDFJX7cX8dUR8UDC0IMnLT0imlASWfT8NE4stztVVddJQstBWAaGPB+JPXu9dfFE9QggAs8F35+xvMQWDBO/I1vfEPoYBp+en40EmQLaBjYaY6sBbfLL79c7pu/8574++LFi3Nfn14kxWnUEdBY857+/u//HlTFs2sdAUYwVKAXSgIBquLpgfIngQzBC6/De2fces2aNeJ5aj0EL0qWgN+FjAr/fcUVVwjYoP6BwILahC9+6a/wwfPPF5GojjMzzCDqZamRYCDpZLGztRV7OvZi4aw5WFo/C+Wc+IZKVcrHs9Uk1ZptUTIYBlJZG2+91Yjbbv8JBoeH0Nc3AMfJoqg4hmzGQcgy8D++9S3MmlmH+397r7yvuUsXYSSRFso2HgmjbyCJnp5ezKiKoLw0BjtjSz4Ui75IERo3A5d0qaGq4/M+YiELsQjrG4RguxCG5sd3/gJGtBiXXXY5aqsrUF0SQyysugxS/MQzKkND30V5hUGAwPHBscF3x2fNaxMw/uEPfxAGgKCR2hACBIIuPeb47vk5j+G1KFTkPu973/ukDgL3JZjjPepuhZLO6adxSsjBrzMRnE/aOxoddMvXKPST/w7oRek5mQREg7CjhQDhHBT7FyBTodqoqdS+XH78BDtFjl4DJrcgTlTl8G57ijoEoiCZyvDg2Cvs5jhex0nfLz9E/mvhacnoOVKIqMJwsLqhGuVWElUhC7ZVjKe398BzPMyvKcLscg97BlJoTpjYm4YU5jJMHuugxHawojKKtQ2lGB6xkbQ9DGds9KZs7E04aHOALLUBwvxlQQY44riYEfOwZkYMZjaF7kRK5lZp2EJFNAQrGoEXDaEr4eC1lkH0eWQOqaMJo9IysKY2ghOqwrJm7+wcxMDICFYsXYg3d7Vj04iFYSviZ2KwbwRLObNXg0q5VOLLyY23qXohYzMI0wDhgM9XL0baY9FpjgQI5RaLu/i5uFrINAYgCF6E59m4caN48Vxk6cURHJx88smiK6BHTgqehlTipoYhRp756DyO3htDEAQDNKT01inmo7iNwIA0MH+n1/vII49IeIFUPY3FmWeeKQOXMXV68gQEDBvQYNAzZy97HU/mNb///e/LPX35y18WgHLjjTfKdegxanCg0/XIQvDYJ598Uu6JbAcZCLIkvOfnn39e7oEeJ89HLUIQINBYUevAnwQ/vD/GzhlaYNiB3u9Z556Dk046CatXrsyxHcKU6NCQT9clPBs79rairasDq5YsxdziSqH8gxJ21kpQ6XV+BT+/O6TQ8nta8YeHHkbf4ADe2LIN6XQS8xfMVdd0XXz6k59AWVkJHrj3PgE/ZTNn46U3tqN3xBPx346du9HVvhfr1i5G1Mtg5/YdSAufrgql0OuXTo5SmY3qbAMVFeVYs2KFsCtsxNTdP4g/PrsFHQkXA8NJzKouxemrF+GYOZWIh1XDprxan+2tCRBGN4spDG1pEEfgxTFBsEcA8bGPfSynQRgrxEY9At8ftSS8v8LwV5Bx02N9PHGtsHT+Tu/ESOp2z/sDCDpd7oCT/CjYIaeR8ItIMb7PIsNNBe2eGV473JuEp9ibxLExI5LGSfNrER7sRTjroKy6Dlvb+hENR1BfEUVF3EBbIo3GEQ/b+7IYyVqSLURYWOEkcNK8WsyMAYMDw6phVTQMxwxj14CDxsEs0l5Y1gWyTQSTVbCxuiaOupiBlq4BuPFylMaBcotZRgbSbhhNgyl0uybahhwkTFbcdCSVscQIY16RgZWVQGlJGF0jI2jvHMCC+fPQ2NyB14aBEUmNpy4nLDUSWODSCVG/4jeGmgYI4w6/90SIYTwGYTyAQG9FL4YSQSoACMFUQe5HI/nqq6+KEWV8mEaQRpPAgF4bDRRDCBSU6f7zjBXfcccd4E8afy7o1B88/fTTYtz5b4IMggPqDLiA01NkOIGGnQwCmQACAHrk/BvDCwwd0LMn+PjOd74jxp/fk946qWmCGIYemGlBRoDagP/5P/+nCA91jJvn1RoDfsZ7ZGiA+7ILItkGfj8yC/RMGS4g3R3ULujsARosah4Y4yfDwAZBjP/znBTX1c2ehaXLl4mAsSQWl1elDZqi6RnvV4h+yE7j2VdfQV1DPY6fuQAReiR+FwA5UAqqjEbs9Fqyji3ahoHBYfGQ//3Ou+QePnz5JViyaDHgZjBvbgMGegfwm1/fLaGh6jnz8ODTL+PZVxsRjZchmRrBykWzcf4px+CFpx7Dnx57AgNJtnwmrajqHzB1i4pmAgSKq2bPqccnPnYFVq9aA9eK4rXGDjz8wjZsbelH93AalTEP61Y14IozVqChugTRsKrsQGqU370QIAQNfSFA1QadY43/MTSgPwuGizRYFBGe34o4CADGu8ZYgGGqjc7YAEEVm1KBCpVI+k5AyFTf8+E9X17norudkkFoTnt4cM8AXuxOwYmSZXoPAAR/Xoc8G7XhNI6fW4PY8BAidhaVNdVo6xmRUuhFUROxqIWtHf1ozVjo90LIugzzhqR+QrUxhJMWzcFQ9zA8ewQlUQMzqkoxnMqisT+DxmEbI04YrqW6iMYMF0sronhffZF49m+2DGDviI36shBqYy6ilolhRPBm5zBa7RDSZlgyFBhmZtojK3mWGy6Or4+gtjKCroEBDPaNYMGCedjW3InNwy5GwlERzqoCSupZS+8HlmL2a+kcjnEyzSAc5FM/EIMwUYBA408wQINMg0NjSU+eWgQaTca16YXz89WrV4sB1x42DTbjvUw342c0SmQYeCxj5fyMnj7PQSNPT5dhC3p+9OgZKtCZD6SWKSojOCCw0MVwqC+gfoHHaTDAdDcaSbIL3JeiQ5bqPfHEE+VpMpZNnQGvTcEiDQkBCCvzMbzBa5G1ICNCJoOsB0EMsye0UdJGiGwI494EM6TtKZrjffBZkTkha7H6hONRUVEhTEkkFBqVBSDUOtMATUtiimnDwyMvP4f4jBq8f84yFLmMI+Z7xec9XC3kUnnzjp2B7ah0JfZiuOXWf8NA/xA++/lP4dT3nQLPzYjmpLW1Dff85n5ccsllaFgwG9vb+/GHp17D7uYuLJ7fgA+cfhyW1BZh1/ZteGtbI1KMG4jYKivhhpAZhmcz59qAZ4VQXlWG5cccg1BJJV58sxmPvdKEHa19SCGGhFmEmJfAMVUOPnPOKpx63ELEIuq7qCAFvfJ8jXht0PfrxQcaMo1ViCsY4hoPNGiANhYtHTzmIKfefg+bBgiTfapHGkCgbtBGXTiNY+vKEckkMKMsLuN8T1sfsgKQXZSVxLGZIkXHBEtvw6EIEAgjhaUz4qiKRbC3ZRAhI4N5tSVYWFOOrsE02lMO+uGhuc9BwmbdBRul4RBWzi5BrT2E4mgMu3sSaB6yMbs8illFpmIQYGJrXxK7RoBh6cyo1iGGJpj4WGI4WFlbjBmlEQwNjSDkOZhVX4VXG9vx1pCHEcsPabBgg5/uy/C1CIf9TLjJvtmp2H8aIBzkU3ynAEE/eHrtBAg0uozhkgmgh02jz9guRYA0wqR/OVgIFvTCTRqYQkMaWTINDA3w72QIeH6yEjSwNPpUqtMQ07DSQDOEwWsyDs2NIkPS9KT9CTAY3yeTwZRExpEJELgP743nZFneL37xi+LV/+M//qMwFAQvBBak/gk++DuNOs/Dz5gWx58EO7wOPX62Rub9Us/Ac/D7a8PCUAvTPZmrT2DALAWCD343hkp4/2Qy6mfNxF/95RexcsWxanJJ5Ty16cJU0lmPE9lw8fArG2BWV+CseSsQZSTRdakCUG1ydfW0XMc9noXNmlKSQJ6FjZbWNty6/t/kWX7ms1cK+BLNseugfW8Hfvnb+3DRJZdh2YJZSLpAU/cQ9nYMoqGuCg21JSjyVH34jC8i5N0yP8Kh1yJFghyJl5LNSNomGruGsOGNJjz9ejPaB0ykpUsgPZW4AIR58QQ+ccZiXHjmahRHVKyS9+NDA5We6eaFgDmh7T7tiQuYF6Zc7afZljb2hVMoeEwQJASZh/2BlIOcknLYNECY7NM78gBCyLGxsCiFVTMrEMrazJZFGiFsa+oDQhHEQy5qK4rw+t5htGuxoRNF3M2iKpLB8Uvq0NnSjXColJVSRFswszgm4YVB10NZeRxv7U2iM2EjaziIRUIoC3socQcxu6oc3X3D6M8amFtehPpYREqm204GTYks3k64MmdNKyotzVky3PIyKGa2RFkcVUUxuKkUik0HpVXleKOpQ1IxjXAMIxkb/U5U0rRl/us1TEKQE8vkmezbP9D+0wDhQE9onL+/U4CgT0uDSpDAhVRnKVAtTkp97dq14lkHO+rJ4u+XEWW8mJ41jS4NKD1oGm+GDxg2YKz/xz/+saQGMmOA56FR43EEHfxJg0/Pn4aW/+lwB7MUCCi++93vyn1xoBAk8O809AQIBB1kLG6//XZhQKh45z68Lun/r3zlKyKw5O8EK1TgM7uC5yBooQ6BKY5kO3gc9QtMryR4YBiFAIBhDIIBTWXzehRWknlhuIHgiNs1P7haGBZ5Nn5HP42+dZMehvvZrOmPLz+HaE0Fzph3LMKsVOjli1qpAj6sTJjryipmJ5tNI5t1AJOpjK24Zf0dGBjsw6c/8ym8/5TTVLaBZ4N1Cn517/244BJ2c2yQymystGYzLcti8gKFUmQNGHEkMFAev2gmmPHAkq4W0yAtDCSzeGVrM554ZbfQmn2pMDIOqyVS80AQ4aEiksHahWW47NRlWLOwDtGI37RGOAhmZKi+9rphU3A4Byf//qZBIRAIAgw9HvXxwXNqrUzh3w4VOJgGCAezmB1BAEHqEriosEysroug3DLQ0dOPmvpypFn7Ylsr4FiYWRbG7NpSvLZ3CG1uRAwu0yKrLRfL5xTBCFlo3N2JcKQEmWwCdSEHS6rK0DjsoD2VQSwWRs+IiWHbQZZCQ+Yx2AQXNhZWF2Og9/+w9ybQlp1ltehc7e5Of06dqko1aUhHAoj0CW1Qn0gXhCvPoQxU4PJsiIpXx3gPfI53HfeCSKc0UVBR8eETIQF5YMAnKk1MQhLaBEJIX31z2t3v1b0xv+//91p71zmVqqSaU1V7MUJVnbP22mv9a63/m//3zW/OVWSlCi6eraKcdJF0WW6oYl/m4d/3rGK1yw4G7foI0x4myi7GfF2EZFGMqbEKJnwPq50eDna6CMMAW+cncHipjfsWEnRp3GaMoPRd4RwxIimu93SfdRyE4Ql2eNJm/Z7scBIUWatngC5Osvw8SYAk/JETwE4DZhsYPJl+p9EOyw8sA/DPj3/843Is+738rC0hMOXPzgAGd5YemM4n4GCGgbwCruqHU8VcxXNfrugJIngMAgYCAX4fAQ+zDgQ3/F5mI8gbYCaAxyapjdkBEhIZ5C0jntwGfhdBwpvf/GYpQfAa2MHAa+VYsOOCZRWKJvE6+HvyMv7w//rvkn1QsxVlZNsAxdQif0b5UxKwvnTHzahsmsXVOy9HKO1vKsFrLXctQOCYa0YhRbvdRJIF4sPw0K5H8Pef+AfUG7yGFyEMS4i7Pbzsp39KeAafuuEGUVK8/PyLEKdd0aTxRXhFj+Vm1DRggCeoYB2f7P4KOkkXXsieaAd7l5r419t+iJu//wh2rzhoRRQVCuE6mvEIsgjTlRgvfNpF+IlnXoSLpkuYLqsVL9nVGrgJFigbRDGgvPQi17WGUNdjCS9FwLrW508mGFjr+0YZhOO9i2cOQJB3J+1i3EuxrVJC0gMWOz1sP68mc+QDew6hFCfYNlbC5rlxfHN/B7sjXTCw1XX7dBU1r4vdK21pSYxdD24c4fyygyvnx3F/o4t7V9tCViRZkKqMIj+dhVIqmPFiXDwTYuFwHeXxEp68tYa0uYxeN8al523B/c0INz2ygKWogtjlu5rivCDBEzZV0e010OkA3SiDmyYY93xpoGy4HuqNRcxMjcl7u2spRtsJ4bDzR25lMRd6vPf28e8/yiA8xjF8PBmE9SZNWUWmqWQBSOZjcGXgH/ZisDeNK2tmBEj2Y6DmcRm4md4nsY+sfwZZpvK5Ii8CE34PCYIM6GTY8/dcxTPYk+DI7AL1DAgChs+X+w3XnwkKSGyz58ZAxSwFsxbcn9kAlhLYaUGtBGYACAx4jtx4LcwwMJvAcgq7E6yWAo/N8+Q5kqPADAv5BzwGj3Xlk5+kIlLkEtBO2bbTmbY2AgRuAhAcB/9y+82ozs3iORdehpI1qJJWN1U0VIc4o7luNBJYYrj9zrvxgQ9ej06vh2azjTTroVQKkSYOymGI3/j1/w0X7DxPWlVfTnVKqlr6vtxTOaYxeOeEI8ZMSUf11+GBHY9BycdqL8N9exr47Fe+i28/tIzlno+OUxZJVs+nemQDk2kLF8/W8MprfgzPeOJmTJVchJn2ZId+KOUHtcNlqUEBAlu1zoVtBBCO9y6fOQBBuxionJiiTF8D8gtSIKD5UQBUyx6eMjuG7WMeFtsxbtvdxL6eGjkx81BxHXhphE5Wko4GlhfHnBYuKnu4cHYGd610cW890hZHrvYpye0ksjBglnEmSLB9uoLFhaaU8H58+yS2TITCcWKvw10HGvjOoTYafP8ow5wlOL+W4uLzJnGInQ9JgvM2TQLtVbT3H0BYqqG6eSe+9chBrKYuooBus0qoZgZRbdxtmXSUQTjnMgjDF2wBAoMptfLJKWDafT2y13qrNwakYh1YUu1Gk6GYibB/LxLP+DMLABjA1/JiKB6/eDy773CHht2Hx7WiSwPI1Kxm16tRD/tI2HOUlTApByLha2VzjUiv1fUXTSKV001JUkSKf/nGLajOz+HZF1yKckq9Cn0Jc2dBFUtS50GWAzLJitz7o1342F9/XAybSEYkQJicnECvF6HkB/jN696CzXOzuPEz/yiE0YvOv0wzGl4keu0kIzoZ9Q180KKaZGUqtKVuIKuZ1WYXt39/N/7fW76Pew/00EprSAUcMM1JANDCBEsKF27Gsy7dimdeuRNzNbZFtVWu1Qvhi+ue5eir2JDqQ44AwqiL4cgptqiDIO/VOjoIjuliKHZ/DLelFrUeTkaXiOqVxPLu8B1i6l80SxwPSdJE4AGzWYztE+NISwEeXG5jOWbroK7GJUPIYqDDzyWYqmS4ZG4MF04GkpW7bU8dD65ESDwq37Lmz7nEmC6R08MOI36egB8Zpv0U404i3U2d1EfbD9BxQuFD0Lyc31FK2yjTIZLdCFmGHbNTIuw0Faaohh4yP8WX717Cvg7Q8V0kLvlJ3HwpRXLeII+B5cKTMaaPBiePlkGgCLtVJ3004bBH+57H8/uztsSwFkCwIIGraBugH23whpnlReAwvPq3+65FPhuuH/Pf65k1WRBwNMLbo5138ffrgQq7z7BRVf9cjU6BTcT5BizY32uLkB5FiIGOg5tYYmAXw85LUE0BUSeWNL8xsulLAFvdepV3bZPhXG/j4d278Nd/83eS1Xj5y14i5RnfcXHlFZeisbosJkcvfcXLcfHOy5QT4fZk1SP3hUpuXC3Q3Enc40qIEwf7lpu46avfw3/ctQf7ugE6XgVpGspERHGXilPH9kkH1zzlEnjtA/jhnV/DW9/yZszPTcmVsSWSmSZPNDi0pS+XAjp9JKfjeQZOxL6jDMLxjeIwQOB7w3dkWCjpaABBnuuCjoX99/GdyaPvrRmERPQFZN4x3BrVRFXjDtH8SJiT4/KbjCOemGYECH4SMVESowR4Tg9TLrC1HMLxA+xtZ1joUayM7xNLDGrrzLKGgCdm5axtdKq8BqkbOrRm5r4sEjDLZ9qlaSjlkFzuwU0I0F2EKT0ZIkyWM0yWXNA65ZF6gqXIQUwxNKcrfCGqNxK0iNgbtVlOIklxLf0R+zPJFJtbQ0v6Sm8VL9gxi1ftrGEEEI7yzJ6sEoMNbMUUvjzjhZrx8IrfnuZw0Lafs8F1Le5DkUjGzw8DivWyF0WAYVf+FpjY81mrlHKstW97/WsBGR63eK7DsvhFv7kiQGCJgV0MX7zzVpTmZ/HcHZdjjLruhoOgLyPXDZrOsy5/or2XJOilGeIkwe59+/HBD/6FlHd+6fW/iKuufjaclMyBBPse2YdP3fBpvPzaV0r2R8SD6JXgUO1NQYgfpWKwRI2CVprg1nv24gv/+UP8cC/NZSqIoIqQKs/cxXQY4SnbJ/Gy5z0Zm8IIH/2z67Fv3x68773vxNzsOHxXVSM9tyxmT3rNRrLZKBf6J3GCefSp/dTtMQII64+1ZsQGN/vu9Im8QxmE2xY6SMOylO7UYdDE3DU6YE4WMMjPWDOjYpRlvC0oLMYMoJ4/5ZFpTqbvNFfgautNPYMUiRD/uPrn5/VYYUJ3Re0aon6BdemgPL4GfWYOtOuIZT4dATVDE9qhGcDE4YqfjgoJ4pQlAgeRFxvRI9VikXk7MfNK2hY+EQnHPa+MKNEsL/kJMufRfMrjd5gSw0nMIOQAIZ857RzYn3/FZCX/FAAAIABJREFUKNMChDm8aucYJjiWwrfmtZ2eLgvFhccaVU7dPCSIlTpbPDVqvw8rKR5NB+FoHIRisC8G72LAtABhPaBg9y2+zGul6YdZ5vLoG4Mge45rneta2QMLRor7rwcQ1mp9s+DCnntRgGe4XDJcnrCAgcdwKW5iNPkkA2IthdnZIKujFF+841aEm3OAQFlspR/Qjc22Oqqpr12Jx5FaPtNeljoIf3b9X0oHyOt/6Rdx1VXPlpc9iXo4sP+gtG4yg3DJJZcJsOCExFAfESs4EcqcDKRu6eO79z2Aj3/+G7h70ceqM4meUxGpVTftoRLE2Dqe4PlX7MBPPuMS7JyrYf8j9+FPP/gR7Du4gPe8+39i63mzYj+rk6YP3w8hDrgmY8LODa4+mPQ8F7YRQDg6QLCkWxFuY8DvOx2mYmIkkNQBdvcSfOmhVdxqhJIEIBjHR3lXWZoT4ytrH60p/JP9lMn8IKUCNVFjJ48YOMXMdvqImUGkMRdX3dQ/yVzxQtG5QQM7z53ZBF6TF6vcOrJIVuqyn4BpJfoqf4HcKkc6E9TYi6UH9iAFsievmW85cxTsGkopn+5liFxTCqEpHL9Pus+03Vro0lw00P7RVQIxz9fypfjdfHfl5yaCn+yxLbrAUldCFktmYSpE7yRGqdfAC3bO4Ge31zAlHjMKfEYAYei9OxkA4VyYwE/FNa5VC1UDJGqsp7jpjlukxHD1zktQsSWG/onlawStWGr5geAgyzx0k1jcHD90/Z9LJwZbPZ/+jB8TDQT6Juzbvxc33PApvPKVr8L28y+mO7SsZOKMUq+mc0HmK9IHXSwcauBL37gPX/7uHjzYKiMGnSYTTFSBy3dM4uonbcHVl8xhU60CJ0uwa99uvPf91+PwwhLe/553Yn7TtKZT6UVPDxAaNnGx1wcJItbaB0qnYvxP53eMAMLRAYK8B0yvywTmSmmKQQ0MonxG6csBYG8vwb88uIrbD0folgNkBiAIDmVNn8GMwNcBIkO+pazwyQ9i+fVpWSG3BZdn3pQF+nsV2wMLpmz299o+aIia5uRzzxxDVLSVRpM/kNKd/a7h8gqJjSx92O+yttqFSUlBe2ErnONaHA+dLU78Juco3837qO3XtlREgEAip3y3AAHAjVKEcRPP3T6D1+yoYsqAJSFSnkalzXMmg3DiH4Fz84hr1dSKAOFLt9+C0uY5XL3jMtT48A8ROHWlpJuQFZNYpJZXGy384If3Yu/Bw9JqyS4Ktl2yCyTwPDz9x38MnVYTN376H0QVcudFlxkfhFjSn1rPi5C6Lu4/2ECzzfaoWSw1U/zTzd/HDbc+IpoJ2yY9XPXELXj+j12EC7eMYyIgB4JvaoB9ux7Be//kwzi0tIz3/fEfYX5+UiZrztTkH9DuuQgQ7FWc2qn79D13I4DwaAAh0XKUAQhMo6vqpuHgwBOjbQKEmySDECMKQ2TGmlZq6pDst9pEG80ROWZqfANO3+0fffNxjICCGOU5kBwphM+UmRPTCSZ5ERpOcRLUbqxKt4Frzp/Fq7ZXMCb26ZrRGQGEoYEfZRCO40k8xbueaIBAUaLVdhPf/NZ38Lf/9yfEoZGdJlnqYWxiHIHniknMG3759TjvvK34p8/eiFe87Gdw4cWXI00ieI5mH4jEmY7b2+zhxq99H7v2LuA1z78cl19yAR7av4p3fuyLmNs0hZ989qV46gXz2DpRQsA0X9pTudjMx8FdB/HeP/0gDiyxxPBH2Do/JdLMfMvDkC6L+YpI0L8RWjnFt+C0fd0IIBwjQBCLbRXhYYpeTLC5ss1YZvOwP87wxV0NfHUf7Z7L8vzJsyQAoVirVhKdbFT8M6vhk7HiPW0P1Vn6xRYgECSI74MRZHJTMji0g4vtnG7ChY3K7491lvAzl2zBS7ZWUOLCxGQnj+72eXIHcJRBOLnje9Yd/UQDBGYQmr0O7rr7B/jIR/4C9WZHTJuSJBNBKAblSjnEr775jdi0aZPYIL/yZ16BC55wgbCu6bMgr1/mIMp83Hz3Q/h//v1u7D28ip988jx+4dqfEOvoT3zuq3jRVT+OK3bOia6BQwlWkn/IxhYOkIt9uw7hPX/yARxcXMC73/NH2Dw7JcQmpjWDoCTnIhbW2vhpUoj82bkxZY8AwtEBgnVEtMBRQYL6gfCJYWYhSTMsZSG+sr+NL+9aFTGfiGRb2zpsUs+JwQW2X59ZMrudLuW/s24yO6kXlOdJCQ7tpjwIQwiVklIKN3HgxF2clzTxqiu34enTAQIhtQcmg3B6dBpkEXSukBRP6rNwDh38ZAAElhi63Qj3PfAQ9u0/iBtv/CesNhr4yZ96MS688AKEvosrnngJVlaW8OlP34iXvvRnceFFO+CJWiJzcPoGLtd7+Oo378GdDy+iQ1/6bWN46fOfgbGKh/1LTWybGRc7W34kTUvIyCnwmMbjJJ5i767deNf7P4TDC8t49x+/E5s3TWsZw3FUByFgytgCBDURJSN7BBBGbo7a0ljs8VEJ7mGAwFJYEz6+14jx/z20jAeaCdpBSZ7hPrE5cxGR6yJEYGXmyzMqxL7TJw18Dk1zJ+BScy4FCZc0s2OGyE3ZuaFcE/5MOq96XYx3e3jmXAU/8YQp7AyVr8CsJgHFKIMwdDtGJYYT8HyepEOcaIDAEgO7EYTHkLjYtXcfPvTh60VC+nWv+0Vc/dznSC0ucFLs2bsb//jpG/DyV7wGF15IgMCJM29z6nUzHK53xRTGCT3hF8xVy9JlEHm+lAtIFuLEnbF/mq1PnNQpDOO6eODBe/HuP70ei8vLUmJgBoGTtu/4cNlq5dNmNm9nU97DCCCM7J4lkXwEQFD6mTbx5V0I5Ni72Je4+ObBFm5+ZAX7SNQNS0jZJUPHQcPj1wI1pb+H/UtO34ryJE0rZ+FhFSBIpwIVHD3OOWyRjuCnzDp6iFJHWrjHei1cVvVxzYXTuHgixKQby3ikmSfNn6dzATLKIJyFj+bJvKSTARCiuCsBuNNNcGhxCX/9sb8Rv4qfe+1/EcdN6cV2Ezz88AOSXbj22tfivG3zCCjvxtQttdVT5QoklHQUeYSOaMgTrROFd0TtkT3buqqT7ANTfDR2BAWVMnzze3fi3e/5E1QnJ/DBD7xXOifY0iXNWdRAMOcxML5DPgwnc+xP97FHJYb178DaAIH7K0jIQzr3JEjwcDAGbt27glt3L+EgAvTCcfheWbg18GI4LrUF2JNHMSBPsgdrSW4Mt16f7udk9P1aRlA9GV3csGuBSxlqQQiXhA6wcYZy0sFFpQQvunAWl02VMeU6KElbKPlRHgJmjE5jCXMEEEZP83GNwOMFCJzMbCLWig714i66cSJp/Ha3h5u/fgv+5m/+VjwwaC516aWXijIGHR7/8+Zb8fSnPQ3nb98m9K+eNYMy4ixZFkhXgu9lisApxRp34AUVdLo9cZsTuSaP5QkVI4miDAvLdXz2ps9j//59eN0v/CJe9cqXIvDZtU3Uz+4F6iC4A1axmvMdNGo6rsE8w3YeAYT1bxj5MEVhJInr/dozM1Xs51fBcXbbELT24GApCfDdw03c9sgiHui6aHhlOPQg8VLJVqnegC86HIQZGmIGtxFA2IgvkpXkN3JMjs0K0FDKhxslqKYdXDYBPPf8WVw2UUVN5JUJI6gQqYRWkbIfAYShB/4kCCVtxEfoTDynowEEqil+6Y5bEM7PrtnmaIVBrLeD6iAk4rTIoC6W166PpaUV/MuX/hX/8R9fkY4G2c2oijEzIGJFdIRzPe1ASJkZoFhKUaXBwBDTj6yWzCoDy7KErO0M01xU8DwH5WoFz3rGM/ELP/9abJ6fgZPoi0oGucgs+yQ26ovOaZ6nwRLDubKNAMLRAIK2MloeQvFRtKlmySNI+1sCX0pdFPzxsAIfD9Vj3Ll3GfcsNnAo89AJfbE/d1xKGfOZ1e8mqDbWpf2TeTwBpPjG6FNN+Gyf8Mf+ZBePsZZ2ymM/8un55FrjVDyTAYE5jiMVWA1nhB4XYHkzyVCKU4RJD5vKwBPnanjqlglsL/uogeoIqn+h/5MZ6vRcbOFbRxmE034LzqwTeDwZBPsSsRZnH392MUiV1phNpWksa6T6ahP33nc/aM/dbnWR0FpOFNt4BjGylL4IZBBoi6IqqNn2Ieoo6oQtjWNUUyMvQV9ZlXkWf+gQsSiVJSiFHnZs24orrrgcM1MkJ9LZTu9Nxh501xeAwCPabQQQXixWvyMOgtaarRW6Ptt5UCcooLWxbVnk9E+zIT6LFPiiymKHJYcow72NLr5/qIH7V2PUUw9djw6iVC/UoMNyWBEg2PeRyotH29YL+mv9/EQAhIHgWQw4G2C6O9HXJ3NEQa5fjs97bq61izZKCVCNXMy7GS6c9nHFfBUXTYSYpUusFYlyrG0Uiaj8sBGqGkktDz41I5LiBniL1jmFYwEIzCA8d+flIpTEZ38YB3MlpQztVJQUZXJzVVrbvmwy4Rr3S2YPYpNB4CRMARoGeaZfHZFTdRD5nky0PiIgi+n3BpBbIELylDJifoNpYFVjsz3l8jtOvE6m9V/Kv7L7kZwGK/RE7XaRzeWWAwS9Mishq9K4w1uxr12u7QzWXRxlEI7+XlrBMAUIXI3z2dOsFZ8+cTwkj0DKUvq8yzMvtuQQu/R25qCeOHhksYNvH1jAI+0EiylbeHlAHxG9lx1msjT1LJ+0+ggiN5w/hcOZBSXVWv0OA35NMNMXT5/lI0oY66okrjUeBR0He6Ci4uIQWOirIprvz7+7KKd25Pes9a6tde7DwVskmc3hijLza40NQV1fTdIAMCtHrT4UOTDQ8zbnTHM6ZomojpjSjTbDnJdhRy3AlVvmsH0iwLiboiyOE6YEYeYh9ZUkR4FHV22XkdTy0P0fAYQzEyBwEvznO/4T4fwcXrTzcpE1lqwqDVvk7fWMFYu+TuQAuCZ3OuwPkXthaNWW2vDCX3Do1kgg4Kh2O70SHJrFqLsD67Z0aJSXir72RmWRPxfAIf+vAIGf6E+othRhMrjy+pvWMk7MOcyxKwOtKw9vg41uqqde3NQg+szUTRgBhPXfSztnFcKEynQPAQQLKplF62vxS/AxbYwJsw0euq6DhTjDfc0efriwjMP1Nla6KVbgoUN47LIVkt4IvrLjGbAyTVHbTZJkZuPP7fcVsw0ShghQpCefOJ2rV/MP81nSKhVsFIK2sXnOv8HW3PUn8v72gYVao9mt6CtB9cj+ebKbqO85YdoEpRd/8E2TwF3YBjxqhmPJ0L79czNzgV6qnl3xewR8HQUgWMMlgYHivUFnSnYoxCgjQ5BlmHYTbCk5mJ8cx0WbxrGl6mDS9ZgDAk2vOS/K88I5ih0Nrr1/eQbhdIuxjUoMGzcWb8gzO1oGIclSfP5OchDm8OIdl6NClzeaqnCCkRffF+KW6fItAAQDAo7hihVXqwOCvOziNKeyproa4yrJzoz53/S89TOmWKEZDLPZlb598YdryMVTs5/XI+aTZhEcWOb6MBhQrsTpc2c7hiFed5cRQFh/9I5c0dqn3JYfjJqeXSEanpXwcSSIGYBg2nb5aQKAZpqhnmVYaLexv97GvhZwqBVjqRdjJcnQYOeOS/Mfu/pX0SW7wrXB1wLuojmRXU0LedK8MqTl5vvoOQ3bVst7tI4Pg31vFCAo+NB9cxVSASHm3U1dBQgyA5jMnvAgTIpermrIT+FYAIJN88vHi1kVk7qXTCT/z9QRZbFRdNQszAvDjraStTTHZRaTYmrMBFS9BFNuhrlKCfNVH9urLraNlTBRLaHkuAIaqN7KMbJutlqWKoAn1Vx8PK/pCf3sCCCc0OE8+w/2aCWGf77jFpQEIFyKMpXjxHVNJ0tW2LjS14RqKkQtSwI8FqKVrtIKLG7zQucv8GCILq767Z3Jg/tg+1kfEBSNYNa4ncOThYIETQv2U5fm+gY4kzLp6eQwAghn/3tyLFfI94BZN82M5c8us2MapKnbz+KYg8TJ0KXIUpJiqRPhYCfC4XaEg80YKz0HK50I9SgSk7LYZYbBE3dUsVWW5N1gUF+rjGDPoS/pLIRIcivWeK9oRmXT9aINwndcjaqkjCbZQhormcyEtXEWki8zeL4aL8kKWgGB+F1KBkPLiDICReQl5UFVlihudu4oAvcB0jI/Z1P2xQ/2AYF+V9GETUdfswtZyvMquC8mCdyki4qTYarsYTL0MF0KMVcLsLnsY7YUYrYUIPSAULRW2J3KElMqbYtyP8wlHAE+CsubY3mGTvY+I4Bwskf4LDv+0QACJ7sv3H6zmDX9xM7LRU9cdciNXa3UTDkp6IRCFURHarJH7/XNywBKRFSwYfXu8xd7eKgJSJTJYCe4Yl2ziNrz9KudDIeD+3q3URYhUm3Oj6dMcE5jxYnMrvCY4Tj97OTH8liOMgiPZdTW/4w8IQYc8N2xgY/Pk5TQuPiWtmAti0lZgg6PToZO5qCdZmhFDlZ6CVY6PSy2e1joxDjUirDU7qERJ2KjnPC98/ifWjbbjh4FqhqQpcPHNZwGiZb5O6nva77puyEmyya4a4ZQCgkCEAwVmLwiY16VlwLJS1JA7bDdr1+qIMlI+T3KTtKFhFUytd8++F4OApdisNVrzBlA/c6lQqmln+1ICdBYkXREu0D5CDG8mBbRXMhk8vcQEcZKHuZqZcyUfcyUHcyUA0yWQkyWAlQ9oOo6YN8J71+xxCOLJKPKquM9CNHyDM7GyR4okCnmX07s8/+YjzbiIDzmoTvpH3w0gEAOAu2eX7jjUgEI5PfpdGLT+1oO6JO4bDptHSLTERdUXM3Yz8hKxp7ZILnJ8oKllXGd7EC/f12AxGDb4lqvqxzLbCp9a7IDQ6lBe07FaUzbmM7MbQQQTuR9MyUx6X5QCCDQ13ATyBNgUNGVcDHYKNeGZQH7Zon4d5qijQCrUYzFboLlbg8rUYp6B1hu9bDS6aCRxmhnnmiHkPQYpxrkWVZQZi7LFfp2KodHAYl5gQef22I0FhEgJTfaoCsBV4CAhnrwnRGrZheZm5c06HDopq4qnJJLRN0SOQ51H/Qa82Cav2savPTUcrLhcKHHFeKyXILoSejFKEFae6fdrKvvr/AsICUAChuFToYKHIz5HqYqFUxXAoyXUkwHDibLIabKJdScFGXXQ2DOk/dL+B1si3YUdBQJpBak6Hy4NkBYCzycyKfueI81AgjHO2Ln+P5HAwh8tT9/x9dRmZ8XgBCKT4Jl+duBG2wTHKhlHuvYDgf6I1Kgg2epmQRtK9PcgwIKAaKF9jPNNLBDgqRE3dYGCIWacR8gDKdh7RGKTAemGkcA4Vhv89m8Xx9kWv4BV+/ZkatOfQgzJLKfwl0htRn2i63s808+y+T4sETOjARBQDfJ0E4StGOgnqRY7kRY7aRY6bIkkaKVAG3ZJ5V9uzE/R9ASKBBhSZBZB0OuV7Cib0W+CLYlkTzwaWmBnyOBmGUEPX9mGAKSl5ktcB3EJADTTt2sqi2fyJYWBvkGeh7aBWWDb14eIEmQ7aPMHujnzTvJDAAxignk/Dtl08tOinEvReh7KHsZap6HiRIwJRkBD5OBh3HfQdV3UfYchJ4Pz9Hgzy4pfbO1NNIngBbLiwRdskIq8qXMvGLHcBjTDHWZnO53YAQQTvcdOMO+/1gzCC9gBqEAEPJwqZ733NiNwEmE4i9HI+b02x9lctBt8L3S1YkKJVnKj9oq5VsewG0rEX9vV2hkEcukJ0xiTeke2aBpXu6+cU7x29YDCOZ8TdaBKzNZsZ2B2yiDcOJums1oDT7HJtgxa9CvUaea/jaZBE+eHXITGMQ1RKkaiCHqmhbiPjlR0ufkCxg+Q5qiS+8HAL0MaGUZGpFyG9q9FN0oQjNK0YkStOIMnShGm//FkRig9aJEeROScdB2ZTkD0wpMOXMRk5ZVurZjsqwRub6EZ7574jbB3mURE9I2zYArfcEQeUkyf9s1uEspz3REKVfBcgsURMkKPu2Z+SQTqfRq6OufgSt/loJA/gwD/d2YD5R8D7UwQxkuqi5ziC4C10HgOAjZ9mzM3HieHFdeg5YV7UJhsGSYZbFch2d4Fv15hFotct90ril+qkjuPHFP2eM/0gggPP4xPKeO8KgA4fZbUdk8gxfsvFg9zV27GtfKvDYpasavHmVot9siknT0LWdAy+TYX7ooyUmOLJNqbCZWTdVyUqSXQpqppj0NmUQf3VyE53gIxJ8hzX/nMtVI4DAocUowwckuJ00Zhre0QHKu03/bckNxgmZ6lZNQtVKG57E6eWaqL44Awol71VWaWX0Z7GaDv+Jc5QQcuY9ZypsP2T4D1swVOZOYmIcffetM+p+Me74t5uGkbQmBRuIqmBYyJMsVzDxkSopkFqJHUJFQy8FBJ03l373YRbsbI0pSRD2g3cnQimO00ggd6j4kHaSRg16SoRm7aFL11C0hiVl2VODAbw2TLvwkNvbGeT1DwD5PxEnlHQ19X4J6yBo/g7ibouL7KIUhSoGPchggDByEfoYgVB6A7uegzP/gouzyvww+BYlIeRDhKa8PKHyWHMy4ZuZFt2OnPzblDwN0bIhXf5fC4sW0RwoxkXBCMilHkiDtfbffudHKCzqfjTgIJ+6tPweOtB5A0BUN8Pk7/hOlzZvwwh1PQCXJhBzFl9B2Lnim5TF2PKz2MhxY7aJL2eSjEPds0NUJkCsJ/S5Js6rGktT+io8yVznUXYhJDPK0R5zTsfgvOJoepBtkNQxQErY2f64rAp0/7erI2K3yJS/0RSsoGM4g6HpOJwsleQndKo1QKZdQ9pmaNDXfM/BZGQGEE3nTbFtunnnKia7F5tli1oxAOgfTzEX1W/P6LqNFPQK+KQzGqj+iAW5QK0FeqSFxJcmswZdMQR4Wba6CTgG68o/M6l+yBWZiaBugwd93kgwriYPDiYMH6jF+dKCFpVaMjpehlLawxU3w4ku3YUfVQ5ntyQXinmT5+DNTerAjwndXyX4KdqRkRx0IcXZV/qPVgjBXb7IrWv6wx8lLh0qbzlVN9EJUUqoAtIqpHsMZGSZL53NGfk+t0NFw58UgU8oKt+s3biSO0gggnMh3/hw41rEChBdsv0h0EGTVDhKONPjmACHAoXaCH+5bxWpaHpgcjoZZDXda+QNMZ1p1uDhF3OsgS1KEYYjMd5GRtR3HcB21ZFZJYKY0E2RxF+WSj5nxstQXVX6Z8sqeHlemCJPONdmDfs+WhQAm5ahgoVhi0CyHTG5JJPXNucmyrGBEAXJDTQHH/tCOAMKxj9Wj70nBrcECg+0h4IqUIJXPXxEqSMudo9kw7YRRQpyCUiX5ye8MmO2Tb/uBl99pa+d6hsrBsSUM1swtwCUI1+9nn39RJ0R4CaZdT4MpNNOAFM3MwUqcYqkdY7nZw6F6CweXlqWU0XKrWIgZvnvYWXPx/Au34MqJEONMx8to6LWY5sd+gNbAnmcRi8F1oKvB6KHkY1/sLBpO6+e6Kfl4WmaSjm9erLSESOVU6JbrXOhA5t9lO0849ynEsAuk/MyOBAhaqtlI4ECfpVEG4dHf5dEe/RF4VIBw+60It2zC83dcgBpTdvKS+KZmqgCBy5me6+NwB/j+viaWs5q2O5rt0R5JlgRUDEazBpzA2vVVfPdbd2Dp0CE88YrLMD42KTLLiwtL2DSzCb4fwi+F6PV6iOMe6iuL2DI3jW3zM6j4maYj2S/tB4hiwAtCOB4dHK2kib7qdnIYfiSKE6jNQEgGgVKrWYxNkyUBClRRO2s4CM97EWrMiQjwsu2eG2sFtJFf3UGAoBwCbnnZgU+KpqmtTTkEIAyCAwsEWLbQjFqxbVhLarqPARAFDo8FCMoFUFVGXT0zAGqYtKBej0AipGozkHeQZK6QIFfjBIdaPexabmGBbZadBL2kh1rZx6bxMjbXxlBPXfzgwALGEOPqC7bg8qkSJthOaIIuv0lBEQGL7WBgit6AmaNETx2zYR4QA+5gU3EfUJgsQBEEFMdeyKAFiKL8h6ImRN5hIqdlygj2GFy4UCWWZaO1AMLgczmsuLpx2qBHAGEjzyAb6NwG1zryBucBXZjTmnb8/J23obR5Fs/fcTEqWWzSfaav2Ykkl8AVTtfxcaAN/HB/G3VUj5gBjgYSpB1McpqZpBaDOMHqwgHc8tUvY+HAAZy/Yzv27d9j3CFdTE5MYHGpjpm5Tej2YuEhMLPwtKc8GZddfCGQdNBZXZbe52ptHPV6HeOT07L/xPikTNiD4kaFtLAAm5zX0K81ckUhKyOgnPaweaqMisvx4E/yLokTeYuL98i2WA72jeffZgVsZJVwjHaygxmEB/HK571YAIJkhkzGxB632AW38dZFJ3LUH8+x8sS/HsWKgBmZ38K96cfGfsbAvjIaqKzIkSUzKgw1xD8T2K3bqQ1oEtcMMOeZKLHQltjM8Y34keUoRI6Hbgo04hQrnS4WOzH2rrZxaLUuJEf2Pky6DjZN1bBlbhxT1QqqoYeS66AeA/fvP4xttSp2TtZQLvi0EIYXn9W+JoT8sMAEKATitUa+eIzh0klxf+2G4JYH48F+oyOPruUc/ZRyQwyxuZDhKAIQ2c8UQgY1UYaPrfNHsZ3z8TxVJ/KzI4BwIkfzLD7WQAnOTCbDymOUWv7CnbcIB+F5Oy5GiXbJJDuzU0ECI9m9XBm46EEBwr0HOqinFTNyR0+wyVQhpCrdnX3FUotMI9SXl3D3t+6U1c54pYT77v0+GvUVzJ+3DcsrdfR6McYmpjA+OSntZOQmXHHpE3DxtnmknSY6zRXESYKgXEGr1UIQlnHJ5U9EGHDNzwlhsEaqpEhH2dyS7M1Jivy3JiD5/2RHR9g8UULVVf7DqQYIdqIsAoHHChA6AL794H24b/cQQOi3qSnBzkrt6hS80RKnG+NFHdDm0KdMnqRhMC7PmjxkJiANyBwTTDCom+eP2iNWPtgqfFp7877mCMMVo7Nj2iddJRYBAAAgAElEQVQL48GVtdnfyqKzfNBKUqxGGZZ7KRabXRxutLG0WherdjfwMVYuY7Zaw3mTYzivFmDcIyGQX6FlPS0skPDI9kJm0jTLYXkO5OawhGK3PtCR6xoECDoUOha6qrfzgf20HtteRw6aisA+39f+TTMtw1mIfGwGAYL+vJiBGPB26R9USaUc8fXAej+zUyBfb4wndFRi2Cj3YUOfx1plheKLaV8pAoQv3nkrwk0zeN7Oy8W4xHETuFkg5Dz+3VodURL2QNuVDMJqZgDCWjrGQyNjuwOUWKSTA4Nzp93D8soiaqUQaa+Dg3t3AUmEoFxGnLmgW/RYdUwkZ6MsRRSn2Dw7hovmJuFHLSRxD5FXEkIjaVhRkmF2brMpkZgJaCDOaYum1mJtPVIBgZuaXnU5twRhFmHzZBljruUfnJwUoq618vBiKZNrAYRi2jb3n1/7MbRH5LEJEL7z0P340a6H8EpTYrDT5AAAkYwSyWRnrjnVyX4piwBhEBQc+XxIe98RmZ685KXcAn0X1gIYNqgqP8EEV7FDt9kHPZb2GWnHQrMXo07PB0o6NxpYavXQ7LGLwYHrB5iohZipQJQFN9VqmBJtAYjEunB++hNHXj7REoKtzevZ2ucvLyusDSjzQH+0O3O0d2sw+OvpKXzNIcha+9iMaZ5ByAGIfp/em/XAxbG878OshJP99B3b8UcZhGMbp3N2r+HMQRHha3DW1ihuBAg33UGzJrV7JknRySI4DjuLlSSoGQSgAwd7uwoQVixAKK40h5UV+wQslT+1L6UFDEkWmxWDSffHGXy2fInUswtqswRuYKRhmcxNMB4Am6s+ai55EQliN4Arfc/GyNHz+2Yukn7tZy7y/m9Z1fXJUbrS81KVXpZzc2jk0sPmiQrGCJYM8fFkPFBrMaWPDBdKuKIm/DCgWO+citNelxmEh+7Dj3Y9jGsJEBwWjYwG/xrzunZtjDIIa42tKgVaUqBdj1pYl7fM2s/a+6BUOg1WfBfkETQ7Fdn3qiugmgQS/CUS2vfVZCsEJPB59cF7S1Cw0O7iUKMjXg8LzR463Ri+aAV4mKkGmB4rY6qiEsMTvocKxYOQIJB33UocK+ExVynVNkx1UTVZt2MsbZ2Md2V0zGMbgRFAOLZxOmf3Wg8gFAdEiEsm1XfTt26DOzeFq3dchrGMQToW8pPovJtAygDcczzs72S4+wAlYCuFlOCjBZMi7lfsn7m0yCUfITE6By6STgwvdeH47I1mKjIXJ9K0Zopa6GKu6mnqnz3fVEqz1tRFjVlDmhquEUo+oC+MYFOhnNg1raiTcoLSKQIIxZqrPX1V4NMVjgULxXrnsa3K9G5z39hx8K0H78MP9zyMa69+IcapuFdIy9pjW1lZbfV8tHt6br5evB8GvhaIiQpQrSWzyipbQKDr3Rz0GYMkqwVimyD5vhkBJQvI+UwSyKnSorLxCQraiYMWWxFbHexfaeBwo4XVdhudbg+lUgUTYzXM1sqYrVUwWQ4wEbio+JAyATt3QqoWimaBeilo6YKs/RwgSPthYXVtBZTOzbt+Zl31CCCcWffrlJ/t8QKEbzxyLx5YPowXPfHpmA0CBFkCUSsXVUUGilhkVRPHx/5Whu8faglAKJKFbCmyX2e09X1jvkKm9ZH1PE6i2gKWxQl2P/SwTKXMWlSCQDiVgV+SVX036iGKOkKk2jYzjhoRBM/A81GplE0wtGnDtTsX9NyKqcMcIKhHvKkXOylKhRKDBOtHMad6rDfZBo58Dbr2kSwhzf5Wg/j6mz0e/+QIEyD8YO/DePVVL8SkUcsbkuYfONixkiAf63WfqZ+zAMHqE+S0OS1FSRnPGiL1WwBNbb2vOGgcUU2CWzII1uXUaCbwHZZGRceVElEn1fLBSjvGgaVlHF5pyb8pjOT4HmYmxrFpPMRshYZEZUwGLkrS5cPsmIIUlo5YEhBwIIqkiYBl28/Ct1731GZhSeEZoHqmupmeqc/Z4znvEUB4PKN3Dnx2Lf7B8GXbiY5/Hoya+No930Mt9XDlhRdhfmIM5awER+ry7NVWL3TWTA+0UvzgEEsM2vynm6bvj1QVU/JUsbc79283mQQj2BLFbfzg+9+F6zpYOHxQfeESoFoZk0ms2Wqh21zFtq3zuGTHVjFe8V0PTuBjbutWOOJ4dyRAWDvQ2UyBJSma8oPpYiBACdDD/GQZNXPtawGEtXgCx/t4iXiNENZyOVgRjSl0nAiAMl0nOtqPTiIsBv8OUtz50AO4d8/D+C/PeSHGC5bbNr3MVaq9nhEH4WjASzMIck/kgYsle2BpikqaM3wBu59oExxpF8wygWZqmFXQdL56MgSiXVrPqE3Qw95mDwdaMfatdtDs9hC6GcYCF3NlH9umxjFfDTEeeqj4rrTkeq5mKaRd0NxrPr/iVigtj+oEKXCZiQSTLCo2vurbqeDdtv0d77M92v/0jMAIIJyecT+rvtWuXJkl6CDBoU4L9zx0Pw4vHcbU7DjO33I+5sdnUHZ8mXTISODEcrAd4579bTSFg5CvYemLoPPMEGFIfpibPWkQUuc5a8hEJnSaxVhaOixgoNfpwmNzZZQhCALhC0QxZWA7mBmvYMvsFEo0YvEDaYusjU+oSE3fkMacSV/TYfDW0WdeAI3vqb48z6gvZUs2P7sYEsyMs4tBbWDXYjMPgw+b+rd/Fn9vv2f4MxaoKUEs77qQQFMoNZAr0r++Naxn13s4RR2PHISH78ePdj+In73qGoxTb57OdeICaIKdiuBpQBiVGNYZzkGhpCJFrQ+Qi58Uq+dBfgKf/YTtdpJyM1wGgj9KIgNoATjcjLFvqYGFRguHV1fQaHUQBB6mJycxN1nD3MQYZio+Jj1ycTJUqVQogdw81yYLx+DP46pZlL3R+Tvbb3O1YFSsoy3wyUmKI4BwZk39I4BwZt2vDXm2RSKcuMilCepOij2NJdy3737sfmQfmodXsH1yDtc87dk4b25OWhUPR8Dug3U0E5NBEJ5AXtToB0CTTtUgp2UDqWrKRGVYxNRtL5QiuK9ViEMWwE0yeF4gcsuOWtWgFgCTlbJkDwgcJLCmCVzX195ydmFQt91T/kLCJRm/JSVpyxdAQCEonkZCjweWQORPS8Ji9M0QOjEmqmVUmYAl05EAaB2C1nqZhCK/YC3woshEZ+71av7CGBefCRXf6XMSjoEsJuPBEoPjSJvjvbsfxquf+yJUMypPmrZG4ShoS5vWnQ2b/Qx2sDx5L5wGTZtDMGvwnLsi98hkD4zGiOXw9MtbmSvjLUfJMvQcB104WO6meOTQKh7YdxiHW21xavQ8F/NTU7ho6zy2TbqY8lxM0qrYjdWZUMiDRp+Rts8GYDoibW7KHULUNQ6N1tDMmK0xLSVnK1glz/TxB5bELNkRAYxnplnZyXsWNu6RRwBh496bM/LMIsQyWaUOg2yCXtoRo5eeMYoZ9ysiOcy0dZ310J7asw6uqjVNL4Y2mYNu1EHU7UlQ9j0HacQJj8FeJxoJ2AEDuSPmTL2E5YgSehF9GLicjaTE4Li+BnS2G7opAg+yv1RK+TNpAdN2spitkFEXK4tLaDQaAhImJiYwOTktKzAJsjw2MwhmRWVbn5r1JlZXV+Vz45PjmN80jVoYiv21dn4EAiSazSYOHjyIWq2G+fn5fktlPxMhpQ4T0Hneprd7PWKhlA7MudjJ3j5EWp7RtDD/TrAjkzWPO9wXt86Tx+O3HbY5/ggP7XkYr7jqRajQpY/tpC5NbxSskWMyuPgdkRSHh7Tv5kiDMcNn6QM2Qit2whhfpSJojMFWYYICB93MRyeDAILFHnCo0cXehWWsLNclWJeDFDNVDzs3zWHL1CRmQhcVmh2x1JWRR2AAL82VpISQCs+geLeEYVCoMeX8AZvzyLN8xfO0xzAMhIEM1iB354yc5s6Zkx4BhHPmVp+aCyVA4OYnChAyN0ZMq1mz2mf6na1ZmZtIJwPT+lLjHG5rNKfLFP5DDz2AQ4cOSYmg2+lId0KpNiGkwla3gyjqYXKqhtnZWYxPTGG53kO752DPniXMzo0jCIHDBxcwPT0LP2QrY4Kp8RC1UoBut0sLBoQlHy4DJwMoux/cDEuHD+PLX/4ybrrpJmzZsgXXXvsq/PiPPx2lUoAg8OUzxAiScTBZjqWlJXzt3/8Dy8vLeGT3bmzfuQ3XXnstpiYnxRRK1oWOhyiK8J3vfAcf+chH8MxnPhNveMMbBAAVA/rRyH15H3Z+X6063DDp0Kpcsr+91YvQTiJQTz/nCRwdIch+xnei66S4d9dDWDm8iFc85/kCEHhVgVkdrkWQHHUxHPnuqZuj/bkGWeUhaOZAEmKmg0EFi1jF98TToB1nWIkSLDYjLDW6WKy3sVJvIEtijI9VMcvOg4kKNk/UMFFSC+OyESvSVbxyfKQs4JhnXqSNmf3J+/rt6WnXD9tiCUsKZYWCHwHPt196MHyEQSKvOe4om3RqJuIT9C0jgHCCBnJ0GB0BTnysibqpCZpuIsIrWr0E3EQVFVNPGc9pQiGl3AwlD5DKeuZq+kf3/VDkjxv1Fg4fOoBKWIJfrqmoS8rWxhgTU+M477zzMD23GcsrEQ4stbB3/zLm52ZRqXpYXFjA2NgYymWWFCJMj4eYmaii10lMS1cI308QRTwnD9VaiF63g9tuuwXvfOc78cynPRPXXfebmJubQy+JEIbseKAeHMQciroKnMa/fec38alPfhov/V9+GhddeglaURc7duxAOQhlha0KhjpZ3nvvvXjPe96DK6+8Em95y1uUI2HV4Qocgn7wsKDJ9JoXyw6yT2Hpl2vHa9aXqeiVbgv3PPyAmOdEPnX0VQPeut+t9wwXvydy1KL7vIkZXPOUp4mtLreAX+6qMh4hg2175fH5742znRpBmkcjnVoNikGSIlsc9ScMtmKvjAzd1EUzSrHa7WF/o4eDyy0RL2pGmu2aKIfYMlHF3JiP2UqI6VqAskPmDTVDFBD0uS+SLTA2x6QKCxBJpTqlmQnNyhWfCS3X9cWPSU3MnRSNxJBmDc0cIEBDVBr6x7KZBP5gIz0NG+e53JhnMgIIG/O+nLFnZQGCTUVG9Hgjqz4zACH1ha3N/mxqJkm6u0/cKxAVDd+AA7G6siKSzUzZEygEYRWxqfnLyj1LZPU9OTaJSm0SvShFO3ZQb3bUq4F92TG5Ba4owDlujGrJw3glRByTtJiJmVOWioGtnFOpVEIctXH77bfjD//wD3H1c56D3/rNtwog2bt3L847bwvanSbqy3Xs2H4+pman0Giu4nOf+xy+8NnP4dU/+7N4wQtfiKlNs+h1Y8mAMK1fCjxs3bwF1WoVDz/8MN7//vdj+/bteM1rXiPXNjk5ia1bt2q2pNvF4cOHJSDznJgh4e/pI8HSBPcnYOF18d/zWzZjZmZGywZiYZ0L5LC80EkiNFpNdOKkb9kr+1kr63WeOmlfk5Y78j5ShHAxGVYwVarK+DKkSVnBAASCBSl3mGCwUQCCChMVORrDbapHDoCWZvL9WGnPfS4K6fVCaWcYuNmj2uPoEYy4mLFM5rnxPSGUprRxJ3Wx1O3hcLcn5keHVztYaTQl48ZM1FQ5kDbd82YmMVHyUaWKocvilclAmD+pUyAGTMaqXETArCqjtknkPJ6iXLYZKQnoBkT0R8dR3RH9neoe6JaXHbQTw7RcFlqCR+DgzJraRwDhzLpfG/5sbepULWvJBdBVjgYYozcgadQEiJWBreuNwVq4qsCpha3W5G2Q4urUK0xK4isnK6EkcdBpZYgSB145FLIUJ9SEeMScgxD13BRh4KDic8XOOrxJ7bNX28QCP+DaN8ad37gNb3/72/Hc5z4X1133W/jWd76Hv/u7T+Daa1+BVruBW75+C5585VPw5l/9r9i9dy/+4R/+AV/80j/jZS/5Gbz4xS/GxMQU7vzWtwQQMHDfd+892LZ1O172spdJ8H/ve98r5/jUpz5VMgrcXve61+GSSy7B1772NQFF/OyePXsENFxzzTUCEr7+9a/jC1/4Al7wghdgamoKt912G1778/+rfK5fqigABF4/V/VWLNZ6MWjW4dGkYK1AtuUY0MDbBB3DVrdH4OrUAgRbbtgoJQYLEOxLpIGvoHMxrMPfb+EctPGxn5COGSO6ZVfP4jkivBTT0VLwBIgdK2DEFL8GWD69zO6Qp9OKgcUoxkInxoFWhOVWE/VmG4gT1EplTJfLmBkrYX6ihsmyh3HfQcl1FRSwM0XW7Kp3IF09FCoTBVNLdjSqiv3rJCLQRtfh9+9ouhZ9w6J+F1Ee9pVAXOw+UsXOPpl4w89goxMsjsAIIIyehxM8AlavQENR0QaZk6GsOhCrjwLVCxMG9+IEZUOYWZEUJzOTRhfngyxUS1iHJC8P5Cp02in27F1Bs5PA8TL4lUBq/c1GTxZKXkhyYIJq2cXEeFVWvZ7jS+Bl+T+KuxLEmXHg7303xTdv/wb+j7e/Dc973vNw3W/+Nm6++Rb84f94B6677jfwrGc8DZ/65I245eb/xGc/9xnJcnz+ps/jk5/8JN74y7+Cq69+Hj574z/hrrvuwnW/9RbJADCo/+1ffxy//du/jSc84QlSYiAB8rWvfS0WFhbwV3/1V3jyk5+Mn/u5n8MHPvABvPGNbxTw8O1vfxt///d/j2c961l49atfLeDigx/8oIAnlla4z4tefE0fHGiro97a4mSvU7WSFY81cA8zFIZJbHpPzXcVVP2KPz/BD9ljOtwwQNCDWGBKJcDBtlqaesk1GIGuI2WxiiNjTY7URbHfUWPHxcnEoIzH1OwKSwfAKv0Ouj2sNHo4UG9isR2jk2Xouo64IG4aq2C+HGC+TOGikoACIaCabhF7P4sQZv2i0eD1DQ7iIEg8uv7JIAAYPM5a3/FoAPQx3c7Rh07BCIwAwikY5HPrK0wNtS/aYghYzBnIspV170SCF2FCzNZBUVtUaVadkfUz/QxowU5ZtOU5/2b0VbCtYiTceei0E+zatYxmp4dW1EZYKaHXi9Btavq2XC2h22lgbLyEuZlJZFFPWhypgeD5mm1gMAg9H7NzU/CR4M7b78Db3v6/47nPewF+93d/F9/+7l1429t+H+96xzvx7Oc8U8DAn1//Z1JaGJuo4Itf/KJkEd70pjfhisuvxDv+6F3SoXDdddehNj6OPbt24Zdf/0t4xjOegV//9V/H+973Plx00UX4jd/4DSkdvOMd78BXv/pVySJ85jOfwYc//GFccMEF2LdvH66//nrZ53d+53eklMD9CCLIcSDQYFnEBrS1nrmjkR7PjWe0UBIwDnv5T4ZXvVqO4Fa0Tea/pVY/lCu3IkEEAEVwxv21RTRBz/XRzYDFbox9jbp6HbQSrDS6olRcEVdEX8yP5sdDTIU+JgMf1YBapLoGpz7BMLCzwkmj+3tuPMWn8ipHAOFUjvY58V0WIBRd2pT/LLVq6XJg37b6MSRU2MmigVaqvr2BGa9iGx5XSkztsp6ryozkIDB16yJOHbQ75BQk6CYxXLYjRgncxJEuCpYNer2uEgxLJWF9lzxtc6Sds0zmZGs5KcrlEG6a4Jt3aInhquc+D7/zu/8N3/vu3fLvP37XO/H0pz8TN9z4WXz4g9fjszd+GtPT4/jiTTcJQHjjm96EJ1x6Gf77H/4PTE1My2dYGlhZWsCb3vBGWfUTcBAgXHzxxQIQmL340Ic+hM9//vN4yUteIgDhL//yL3HppZdKdoF/Z5fEW9/6VgEd3/rWtwQgsDTxsY99DJdddtmA++Tw43auBxBmnFLyX7Sw1E+t94mCVqrbPnd9Nr53RCuototah8VcpMjW5pnmJ1joOJBWxHoPOLjSwP7lBhZbbTQ7XSHv1ipVTI/XMFetYLZawmTJw4TnoOxDCKBixlTQ95BWXKOzYcGLXs9oG43AiR+BEUA48WN6jh8xb9myAUnNnHQK8zgJp1yBOWggQLOrK7W1iF0KFExWwaZ7TUVT/0lZYa109+usqQgrS8BncoI6B16iugbUROi39kmaFij7qoEgn08cpJSWla9MRTSJHIS3/Z+/LxyEt/6338Fdd30fv/+2t+Nd73qXZAE+fQNX+X+GT3/qk5iZnMCXbvoi/vEf/xFveNN/xVOf8XR84AMfwh2334a/+uhfCDnx8MH9+M23XCetjyxbECCw1PBrv/ZrMg4kLZKceNVVVwmA4Pf81E/9lJAQP/GJT0jHxOtf/3rJdpCHwPP+6Ec/is2bN+Pd7363ZBbW2851gKCSPT0DEBRU9hUIyQYYkqTOx2uNFDl5BsyEsfzAsoEQNB05ei8DGkkiVsmHGm3sX27i0EobMZ/NNBVL8k1T46KuOVv1MBkEGPNdUTL0Sb5NE1HmtIwRPuoExZKZEB6PFhQkc9Av253j087o8k/KCIwAwkkZ1nP5oGsBBG1/k95rAxAi18NS5OGRhTbaxn1urVHLswc6SXPStAIyIrtMwmPqIUtjdDpt+JmLUhjAC7TPv8fT8UvInEidF9NMDGdIpCv5kJSu72XiFSFAI43gG0XC1eUl/PuXvyyr9CuuuAJveNOb8OCDD+JDH7peVvwkIf7Nx/8KN9xwA97/vvfgwp0X4rM3fgZfuOmf8fO/8Dr89Mtfivvuuxcf++if48XPewGuef7VuP9HP8Ld37tL2hrZnUAdBP5JwEC+BLkGBATUXSA4ID+Cv1tZWZFMwXOe8xxceOGF+Ld/+zfJKrzyla/Erbfeil/91V/F7/3e7+FXfuVXMD09vWYmYQQQSNKzpkE0KFZ9B/JYSJPN+TLKIpCujb4dc+68WNTsIBm3xwKCC6z0Ehxo97Cf/9Xb2L/SQjfKUA59TFVCzNd87Jwax6aKhzHXVUdEincJn0C1LUk2ZFePEFqKm5ThCGRVVtxuo8zBuTzXnvxrHwGEkz/G59A3KKdbPOgKGv9qH6PubwGhQpag65bErOm+gx00E3oxWJJXzkHgwNmgZidlSeGaAG4d5FgQ7rZbePCeHyKJY4xVKyhXfOE1pF6I2HMxMzuJVquBuNcDInY29DBZDbF9yxxKIZXraOiUIo3iPnGRq3QG+IcefBDlSkUCc6fTwUMPPSKtiewYuOsH38bB/QfwxCc+EZs3bcWP7r0fe/btxc4LzpeUf7UaYs9DD2Bx9yPYOj8jfAcehyUCAoL7778fDzzwgJAL2a3A0sPOnTvl3+QdfPe73xVuATUcGPjJN2i1Wvje976H8fFx+V6KMpEDQVDBTAezCMNg4FwFB0Wy3SBJsdhSy0yAih1L7kh6+k3HhukG0MyT2iVTJbQHBy0kaKYuDjZi7F1cxaGVVazW63Jfy5UQm2ZmMD85jumxsvgdjAHiilgS2EFQokRS0wAsEEFsmNn6axQNpZmHcsbmQuQ8h8HDOTTDjC711I7ACCCc2vE+679NAYIKqdiNAEFLDBRkId8gQdcJsa+T4d59BAhVWDuAoq+DbU20fdiiA29aq8xUrh4K7GBoruLb37wT+3ftEdLjprkZcZjNXF9UFy+4cBsOLy1i+dACep0Wkl4X81NjeNITL0YYcCUHMXbiiq5cGkOSZhJwq1VO66YXnMINBrTw9/oPS2ZTNjxTwORHiHIkV6ZZgqoTY45dEXHHEAkHU9ZMO5N8yG4GSSP329JMK1wc90WUJItiRJTE12G0HfMIECDwf3YFriUF7ZqxfALx7xBHUS1HWedN+awLtFMXdQc41I5w/95D2HV4CfUeu3E81MIyts2N4YL5cWyu+JgIXEy4HnwnEi4BTcrs8SVLALaLqndFLmfMd0TzF7mvo3qDaAshz3jkZXDMN3204+MagRFAeFzDN/rw8AhYgMDaqEIE9oorQFAfAmYQUsROgIOdBD/a30IzLUtK1Zq6SBC0BzbBcEBPITWBVEgKqoEQRx0sHz6ERp0OD5AVN1f78Mrwg4r5d0u6GJwkkVrvVDXE1s2TYAKBK7pWu4lqpQbXL4uAUm18DJ7RSOCkzfNWgKCkSyOLKMFFwEvK/gxmOIyCnIg5RSgjwux4BVVPW9TWWwEOuzQeTY2vCCRGT+GxjYACBCUp5uZI+owyfS/qjwIaGLIDESzqOhnqSYqlToSDnQj72I641EST5SykokcwX61g28wktkxWMR44KDmueBoEokOgZS3tbNDymOhzWEljA1GsEqc1NJJ3R/ZXvoEVOuKZjQDCsd3v0V6PfwRGAOHxj+HoCEMjYMVjrNgRf80JUV3ljVc9qBSXYPdCA21ZVvlqs4wAidGKF0Bh+vlt6pX1WqYGHDGONtkKBm4nRpYmyKjUKOpuxpaWHgLWqtl1pIwgqzkHCN0M49UAgc/Vf4Yk7cILdLVGy2nXCyXVbOVoJSmQCxT27W8VvKyxqiNwcFJJKU+MVRA4KmSz1gRfBAPrKfHJ9RoiXV8t8Sx9+o7Wh/9oMsbFIbHZFh07Gh0ZCW/pMtBvUaKrcgx6mY9mAjTjFCvtRFQMFxpNLDfraHS6UvqZGKtiqlrB1oka5sfLmPLpdUBQoBmBvsoEHRIJDjJjtCWOocOqEsSZ+v26Ge2FgjeJ9djgb5VWOcognKWP/Ya7rBFA2HC35Mw/IWtiq5DA6iBAFRANB5tggOpxq+0eIrGRDZGkqg7cibmSMyleo0TH9Ds9F5D1hOOQRC4qYQVxRs5AgiCgnbOHXsdBFKsQjRPSgIltkBE8tyRdDdKdIFbEWpogo5xWuJKJ8PifTtRRzBZKX87Jo3QxbaCtuY20nnmIUso4s0Nd68ac/K01NIGMAAt2T7hAaNopfeOeaMsnw8HsWO/+2Z5BOBkAwTpZWl8BPiNi/p1BQMFqN8ZCN8bhegMHV1todiPEsS+gYGaihOmxEJsqAeZqIaaDAFUCgkz9DtSGXLNmfQ4DCYV81ggQ+B4Id0afP1EJNRmpfn2tX5YbLB0NY4oRB+FY35LRfo93BEYA4fGO4OjzR4xADhC0pNhSGuwAACAASURBVKArfa7gyNPW4Mwpk33gFEriJM0Ve5q5aLZ62HvwMDo9fs6F7wdSnw/DQBQOe0kPrU4XvW4mPgRp0gXSLqamykLaO3RgFYtLdTBFUB2riesNuQW16gSa7RZKISd8D1G3LT+fn5tBOQwQJ11Ux0ooU1XRBZYbLaSZh26USNCnNa44RzuOkNDoCkkZ3HIYateDkyLwHTVwcq2NtAIiu4q1QX3Ym8CChWLmYC0AURzojQoQiuvjYbKqPX/1N9CgKmtm6wFQ4JcUfz/4gGnwzEW08t9KeC60KhYVJK2kFtsQCQyYVWrHKRY7EQ51YuxvOTiw0kCr3YXv9DAZepiu+pifmsDsWBVjobYiWldEAQb97JaeQ/+eSUlBybTs3un7IAhttk+FlHNVd8/j60UYZRBGk+6pGoERQDhVI32OfI/tYtDLLWQQCl4M/A2llsUnQfTsc1LYymobD+7ai8WVFhw3gB+WZQKtlkP4noskiSTQO1kZ4xM1ETtyshgTE2VMT47h0MFlNNsdRLS+nZ7BynIDvR5/PyGtgrVKGWEpQLNZh5Mlok3AwJ4kXTle2fdFL4GmRmyRbDa68NxAJZh9LTdwwncDF+1uR1rUSj5/78D3HFSqAcqBb9oMDSmN6RI3k0wEN99kUuwjUQQDxZR4EVwUg2u/s+M4A8vJfgSHk+fWkMg6Sxa/n2l1yznxjcKmoin1K9C0uqz5B05bZblzuWgrciSaADZg930O8iAdAWjHCZbjBKu9BAuNHhYbPdTbMRqdnnQVTpZLmK2FmK2VMDtWwUTJQc0hpyCXNhZ3xH5HgRJKB5951Syw10BuQS5rbWWY7btB4CxuCbp//1oH5Yrt70d+Bif7CR4df3gERgBh9Eyc0BEYXEGqpHI/uJnWMduVwFUcA7nGT7YaZuj2Yqw021hYbksjmFeqIKDcbOghS3p9OWTXDWRlLwRBMhJCggg6IPboAYVenMAPymi2I8RpIuqJSRRLdoAbsxJM91drZckMcAtCDyVmC+Cg0W2q3W47gkP/Qpf6CmpiKwDBpXS0OkkGdIl0HPFuCIK8E6HYQ08g4Xv+WV1DLpYFikGz6ICYPw0KEPg7LUUReJFL4g9kB4rEVSucZTMO4oDIEaV8N6kp5jniql3uHVUMEwfL7Q5W2j0sNZtSPqjHCXppAPghJis1zNUCbCq78t9MuWRIqwz+ajzFTEFxKwIEDex5cNfunbysNgxw1ioXHAmscpnnYrvwo5tqndBXeXSw0QiQmzUkH7YBBsW+cDy1tgN89XvfFmncJ134BEx6gab2zEs7nFY83nTdBrjcs/YU1nu07D0iQOjFXNuZVZlpHewlKZYbHWRuiKBUkvsdUOGQAUF6xNX9kUGeQkLCQucK3c/Q6XWRpZ7s06h3US4HCEKd4H0TfGRSN4x1yxkQwZteB2ECjI1X0ep1UW+z290XTgOPTQOnDBG6nUj4DJWK6jcgi1H2AlV7cJV7YK/RBjjhxRM8CGHt7CeZ2W6WPjgUbQFV/rM5AP2dTf6bckOxQda6KdpaAUmmct9o0mVUDE2LIL8vZvkHDtqZiwPtNvYt1sX8aLkZiYEX7/V4xcVExRNtgtlKWfwOxgMXVVMWsiUAdQglr0AljEbbaATOxREYAYRz8a6foms+FoDADIIN2NKgkDlo9WLsPbiAKPXg+2UJ3K3VFanvO26IKGM6v4yFxUMYH6+KdfNYzcPEZAWry3XUV1todV0sHm5jaraGSi2D74dwUg/tdle+r1wuS2ZB7aAz+G4o1sqbZ8YwN12FVypj975D6PZcLC3Wxcdh85YZwE1kvyTJUB2bANIe3DTGprkpVOnxUA4ReGxpI8mxONApSmFoevDPDf0CzRHo/bWbtr+atHzfLZHhPecWDD+exa4F8laslbJyCQJ0mPFJMyx2E+xdamBfvYGVdgfdbiRdBXNjNWyaHMdUrYqpcoCxAKh5DqqUNnYSIRlmQjBUi2Rmg8QDQciEzAiNAMIpmjJGX7PBRmAEEDbYDTnbTmctkNBfXSea/s/3oZaAAoQHH9mPejtCEFaEFNjttIWEyKjbi8gZyLCysoCJ8Yoo4E/PjGHH9s1YWlrGwqE66o0IyysRZmbH4JdiVMvjWFmpo9noyHEmJsYke9Fut+C6nnQ5EFzs2DqBbVsn4AQB9uw5jAMHGlhaacP3XUxO1QBHz5mtlGGlLAAhcDJs2TyLTdOTYv4kTREmzax/U9JaGDDLcO4EnCJA0Dp6sdqe+2Ko+VCeV8jT8HktPqa3Blz1OgDEFbERp6i3ImOCtIqldhud1IEflDBZq2Iz2xClfEDRIh9lWn6z1COtq7FpSdQSgQoYMbOkfAPtQCFY8EcA4WyblEbXc8wjMAIIxzxUox0fywgUAcLgiprqxrGQDrUD3TDT2RCWumiLOp22PzKlzBWdzNquj5jaBhl1DxgqMrQaTYS+i5mpaRErigg8KMaUcHcPnqrToFVvoBsnmBqfEE4CWyStxTNXiVmcoFRiII8kKHS6GXo9H7ERZiLHMHMjSYJr0FfyIdPdpCeUPNarVWZaN7XTEU0F39EshpQfzo0VqQAEY3/cF/vppxLyzAK1LyyQGsw0cBWvRl+R46DlODhEq+RmD/ubXeypd7CywvwBMFF2MFMLsXmigh1TVcyxbECCIbkloGOnQjabfWCWQEoIRidD76UhCwrxUG/iSJjosbz1o8+cLSMwAghny53c4NeRt7bpiVrgQIDAYC7h1BDNdAeKHdk2QSVt2ZVdkgWyIidwUAElD5DOABcLS3XUWx1Mz00JOIijBGNjLC8AUU/9FkhGlA4EahLIit5BqQT9d0ypW62La3cBl5Ze3+GxKAXdP09j9EM1RkKHgRa8wnWwn16VFI+vrW2D39p1T28AHJp7ZTs2Br0OlIciIMGhBRdVNT10CP6QYTXNsGehKwqGC8sraDabiOMepqcmsG1mBrMTNcxRsKjkoiLEQoC0E6oj5h4GOubsKhBPkIF7YO6HGDcZo6YCNetcuV9n6nM2Ou+TNwIjgHDyxnZ0ZDMCRdJpcVAYQDjR53bNChQssU9AQD+W6spclORSrvDoeaAdBaJfR+GlKMXuvQvYf3AZblDG3n2HEJZ8VCoBkjRG4ANT42MSoBcWViR9TOJat9dGEnfg+w7Gy5O4+OKLMTsVwnFJeVPlhrx/3aSjmX6W2jWBia8WvYakaAEQe9zVg0LXr7Rq5t88081xtjwgFggMZ4hEYdK0hfJe8bJlNAV0sYOB5kQEBBliR9sBu1mITqLyxntWu3jw4CIO1tvoJg7cJEOt7OOSzXPYPlPGdOhjgtoTBAMkGbI80JfC1s4C3gPbWaBFDFUt1GJH3neh4kZ6RyRRVXRMPEcyPmfL8zi6jhM3AiOAcOLGcnSkdUbArrptj7/tIBAwkESiaGj7yXUK14lb+ufNpK1yuKwda0ub9Ms7qXQ1SLxBjChJsFpnm2MZ+/Yv4e4fPIKp6Ul0krYQGOdnJkXjIEtc0UdYXW0pl6DkY2ZyDL1eA/XVJq684nLMz5cROOJBqfK3Ri7XhBAVP2KnPkGKq6TEYuaAPRcqgqOZDQZLn8Y9LgGC9vqfLZuVL+57DfQvTE2QiiBO1QZTgMDQcdGFi0bmYCnJcLjdxWI7xaF6B0vLq+hGsehSTISu+BzsmJkQFcOq64hMNjMEgZHC7h/Xfjd9DArOn/pjPlm8p2rubIWLxaXRSDD3AQIzDKaL4lwpCZ0tz+PoOk7cCJwhAOE7qJTCUZvjibvvp/RIVuJ2LRGgXqyKiXYCL56Y/FTSvmwlVNEhWQEKQqB3g5YCZCUvqWO2TbKXLgAFl5qtVNwT47SLcilEKSC/IUYaO+h16dtA1rojfAS2QqZJjHavi7HJMYxVta3SE/Za2D8tASzmnAgKpM7uekpFMAtSEflxKAVlmPnGDIhBjW6RZ1vbXG6jrMZC/RhtfQ9opc1sCseE2gQUoIoS1OMMC+1IMgSLnQ5Wmi1kUQfVMMTMeBVzY1XMj41hthqg4jkISfSUFb4KcMkIi7CSi9Rlhsm4bUpuwLhrskzk2KxUDj0FfhYFCArPkrY2WgBxSl+V0ZeNRmBDjcAIIGyo27ERT6aoVffYzq+YQSiCBOoY1HsdRClX4LpW5yZ8d9Gwt5K6uooXURyPGQO7pwIEARj94BBoQJDSAzMTLjziC5YEmD2Q/dgtoYx1WxMXHwWXLPkUKVURnRhuyuwGQ5LhQkiNPD9LT0ocIvmXWzRbqGP4i7wQBrRauYSyr0ZNBAlnwzasIDgADkxmh+t1lhDYdbBKEaxOV0DBgdUOVhpddBPNAIWUNh4fw+aaJ4BgulTCdOAhRAxfOCrKF7HkUOF6sKwjXAILHg12tM9RgWeghQUiySGfAyEk8pmgkZbpszhHtCrOhmdwdA0ndwRGAOHkju8Zf/Ti6lCCtzWYMXK4eoHFSdcQDvua87rHcBaBAZvti4vtFnqJbXmzBD5bYtDP8is1e6C69WLANAAS8tWiAAkGJ5fOfKS6MSirRDJr4BagxGLFrKv83HyX9XD9nsBNtPQhAYWrUNaotaSRcyYskBkkHZKNIEcRG2kFCNMT4yh5Wts+XoCgNf5hXQX7aOX6AWs5BRbvzYC6ofAn8sdTtQkGlS9l7M24Fx/kopQwfy6cEWNlzLtv1Q+iOMNynGGx2cKhdhcH2xEWmg1EUYKyG2Ii9DBfK2OraBSUUKPXgUdpKln/qx6BcUe0YMACAjk3My7FZ9B2iVgHRF4TczbalaCKjQoS8mc2c2xHheEmjADCGT9vjS7gxIzAhgcIZDF/9e7vStpxpKR4Ym768RxF5Wx1ahWTISHjMc2vVC/r0GiDCX9Hstgw83uY/W+JbXTS4xETJ5J2QMdhy1ts1AjJZlewQIDATACDxlqbyvBaIGGAhdkx/0RxjasBop9llhSzBg8Vy7G/MQFYuiaKpEndVxX3it87eFxZ32ap8A/Y5SB0x+MkvQ0ChOGMzpDAkPAmTJveEYGwAAjM5SVDYk5SJBAQqBkdlgWE+2FBj45yn3yYuEoyJBTrpSQXJliNUiy1Yxxq9LDS7KLR7gjXxC+5mKyWMc12xNoYpssBJj0HZfpcuLbt0HgqGBfPvmIqMz9iq225ASxX5PbJCuS4aRlDeQ/qmkiQKJke3iveR0GbxoLZZp5chRCq1pDrMhzPuzLadzQCZ9sIjADC2XZHT/D1MCXPIMIA73PizCLpTWfPOGliytKXJC8STtjK6T8ilbveadlVbCTejgwSFKYh9NCJWoGF1UnQYEWtgWPZTPHhWHY9ofsUYYiOjd0M0XIou3K0L8+B1fBR7adsh3/xOwa/9cjja/eHhHqWYCSA5vr/RGPinyRZE2nMlGsQIl+mHSMC6pCgkzkCCJbpddDu4dBqA8v1DtrMCnkeKoGH6VoFs+MlTJc9TJcCjPsOqp76HPQBnwnw1vdg2L+B3BELUiwQsK2og2CUT6IBc2LBbbQNCPoKPgnDvJcjDbDODbXLE/rgjw521o3ACCCcdbf0xF6Q1RqwE6q2/YmRr67CZGJnyp+EPUM4JJ9AiF7rb8XgLRLLXPnK0k9Xhly58htEIIkgwWEtWwGCNgtu3G0t+DLYVHds527BgY4Vx9eGxiPBgrEtEpClwMqmBvRvBAEM6ZoZEEqnAX3UJ1Sypv7ON5kSNVHKtxRUM+xlPnqOIwTDA/Um9q+0pPNgsdkRa2z6TcxWS8Ij2FSriGVyNchQCVxxRQz4DWKAJPpSBmjmuhjMrgx3eRS7Xuz5WIAj2hVDWSW7f1GieZggW7wDG9Ud89iektFeoxE4eSMwAggnb2zPkiNrgcEqy+X94gwrnjgwMnQzZgtfgaJCx5lCF4DAAGZJiW5sUtsECGZlewYBhBN144tlmaK3g4K0fJNSgNL3DBgIzB75fdOmy3yzpRtW55kSsLV5ArM+MJFUPYWsUwEFq3GKA60Yu5bqWFhtoNGJhE9Q831snpzCHLMEJBjS74B8AteabGmNX2ydJeuv95pcDFE2FKRgskTCGFBlxWEwQHOvYTAg7Y1rAATuK99VyCDkhNTBMtUIIJyoJ3Z0nLNtBEYA4Wy7oyf8ehgu8vQzzZS0vZCr0kBr0YhkhW/JeccjT2tT2xYgyIFdXeHqd2jtmJtU1zNXet/PhW2QhFe4YsuXMD9SgKCcASH3DQ2OPQ6Bm83/aFlBZYytxLBkFTLHZAqAVpah0QNW2l3sX1zE/oVVrMYxUjcQF8258XFsnR3HfDnAdOiqAZKTSnjP0ljcM60dM79P3ByNYyfPlDLXDOS+T9FMFcJy6H2wBkDguXY6NGDqYmJiQh8TskALIKAIKIoqjvz5WhkEAgMLOtYCGufCMza6xtEIHG0ERgBh9HwcdQS0iyHnAEgHeqFn3ErmFtennOL1f/m2HmuA4EJCm5FKJhyRIGaEkVR8yAAS42MwWIs+e2+gjoXtCik0bgjXwxLv9Pptt0Fs7pc0BRZa+qwWQF+bwXQxMEPAwE1HDJINW2mKhVaEfc0O9jZj7FtsoF5vSwfG3MQENtdCbJut4bzxKmpehpLIVKgIlAA63iMpNekddwoFoXa7if3792NmZkYMs+6991757+Uvf6m0oApAIINlKAOlipsxvvKVr+Bf//Vf8Qd/8Afixrneyt+WGOi6ec899+BJT3qS6GGwa6bVaolNNwHOMMA4VknlYuni7H36Rlc2GgHOOcNQewOMim3H4qmNuhhO7w0pAoQi50C6G0hiKygMcnWvUrdrdxqsdSVWG5816ZQ98SbQqNcCI4YyylVmWVPMZ5vQ0Hp3WPX9NHvDco5l6muwV4VCYd6T7yEtmQoUaF2sTP5ERabMxgyBZehrhsZHM0vQSiFWySwd7F9aRbPRRbPThu8Am2ansG12Ev9/e18CZUdVrvtVnbHnOZ3ORCYIECEBAsiYCA9QRvEiguLAVbnqRd9FltMVl7673rpyB8F7Fz6viiOiwGV2IERFHoOgIg9kSEKAJJCx00mPZz5V9db37/pPV1dOd7qhk3RCFSt09zlVe+/6a9f+v/0P399Sk0ZHXRp1jCcARO0zHVEPzeYQ8EZ+CB9WEqSYcTpYu3o1vv1f38KJJ56Iiy66CCsf/A2+/vXr8b2bf4Sjjz5anq38C6BJVfYvvPCCAIP29nb827/9G1jXgkqfP0ebbwQfX/3qV/Gf//mfaGtrw7p167Bq1SosX75cQIPGLwSXQFooCEYIZJ566ik8++yzOPzww2W8tFwEQclE5vn+fYuj3iMJvDEJRADhjcntLXPVcIodFRKVEd0KhkGwLArILNCycxQFRca8wG53D5Iq+gosEcj1Z5aEBsi5VlJKOzNwLWYXJZDRtoaZDQ/mBxEsl6yMgbxfh+4cjwDNxIfYnl2RvwSD2PyeD4TBnia+gzq37NFSYAlpUcEBBnIFbO0fxOvdvejNFlBkgKAdR1tDHWZ3NqGzLoFWyTqwpSoiHRQxz4SKmhBUQyUtNRcqMQSaecJxch4QNLoo5LO47557cNvtP8MnPvEJnHLq6ejt68eqVb/FnLnzMX/hAtnZd7S0IhEzRFIKDjZs2ICvfOUr+Mtf/oLzzz9f5ttzzz2HK6+8Epdccokoev4L73UIKr7xjW8IQKitrRWFf+utt+J973sf3v72t1euUUVPi8MNN9yAp59+Glu3bsX27dtlTJ/+9Kfx7ne/uzKmjo4OAScRQDiY377o3sQCeGBYEJ5FbTIV8SDshzmrAIFZBhLMxmp3Sm0si7jh1ifNccmNIVO2kOH3o2XljXIPtDkk4aE27aImTqXHBuJwJM4hBlEZdkayHGyLe9iD/6DidS0Ws6InP2nqT/gH3QEQgh9DMSx1KyStLy6xGrzGxBNYKLgWMo4rVoJd2RJ6+G8oj75sTsBeQyqG1hpTKrmzuR5NqbgEGKZ9imjJgKjwEpjnbywThgNC7UVi+ZM4B/OJWCwkINHFS+vW4Oc/vQXJRALLjjtBfP/bundg/caN2L5jm5y7aNEiXHHZ5Zg5bUblPnt7e/Gd73wHt99+u+zgr7rqKpxwwgm47rrrcO655+LDH/5wVUXN9qnov/vd7+JrX/saOjs78eSTTwpAuOyyywQg0M0gi6B/b8ViEddff71cN336dLz22mvy84orrsDLL78sn7O41+c+9znMnz8/AggH/yv4lr/DKQsQZAcBDxnPxSMvRABhf83U4Xz5ogEIfh0CJdGh5UBcQS7wSncJf1qfxcZB3z0QorXVmgpmVTYIQkzRYpW20BYfxCmLGjG3rQ5xNy8KQUiISJAk6Ww5MbXHZD978B8GIJT9OARyUJi6A8ID4Rr3AYGZuBOEbdJGWRgkbeQdpiI66M+76MnmsWsoj/5cTgL9GEDYxBTEujq01KfR2ViL5nQCaQu+pcA4CCh7tQxp4GjcSvqBjsOxKSNJqiQvwvBYuKZCYn9/L+6++26sfXE1jj3mGORyOax+cS16e/vhsPiWDZxx1hniPlh2zDK0t3ZUggo3b94sO//f/e538pPg4LOf/Sz+9V//FSeffDLe//73V3b2uqPfuXMnNm7cKNfccccd+Kd/+iccc8wxeOihh3DnnXfijDPOkL/pdpg9ezbq6uoq1octW7bgmmuuEQBAkEHQQHcELQp0N9By8M///M+YO3duBBAO/lfwLX+HEUB4y0+BsQWgAKFslSppjWq6ZukcmpzJhvhqbwG3/H4LHnnZwZZcnYle340QSFWHD//8egnCceCVMb+2Gx9Z3o5DmpLo3bYNy445Al1NScSZesdge2ZLgEosfdA+tZG5+wYEMLVUCh15MXEr0Pdv+CFMZgcBQcG2kHWA/mIJvZkcejMF7CQoyObhWAnEYjYaa+LoaKhFa42NtnRSSIvSMUjOgCSt+r7/oKnegBG/MIaYHI0Lw1gITHyECXw0bA3KuaC1MXL5PH7/yP/FTTfdhJpkCh//+Mcl3uDhhx/B+vXrQWXO4MFrr/msKF1zDGcnqJL+9re/LfEDK1asEAvAv/zLv+D0008Xd0E4aJDBjD/60Y9AZf/iiy+Ki4DH6tWrRckff/zxlSBHuikIAGgZYDt9fX3ixli8eDG6urokqJFWBH63du1avOMd78DFF18sLovIxXDQvobRjfkSOKAAwlHzFqAxlgDZ1iRFKVQFIBjcFL28kzPHTcCohMQZsh2XdMPGt11GQpwAmbKLe/74Gr7/aA4bs60oWE1S52D4COcwBIIYaR6wSLFUxvz06/jIihZJl3v0sRexbOlheOeyLnQ2xKUfMacL85/myRvK3+Ch0fySQ+GzBfL78c6HMCW0abu6vyQ834yiMlS/ygQYrPAYfiLmu+G2g7UR9Fy9XooeMSi0wkhh4ghyHtCbd7A9k0F3toj+fAlDg8ZK0JCOoykdR3tDPaY11qM5FUdt3EbSNgGGrHNAoCEmdlX+8tO4LCpj8E3w8rfQG/vshDJ6pjL6GQu0OJAF0w+WpHJ/9dVX8fOf344NG15FoVzCpZdeKkqWO3kq7+zgkAQaXnrJe8UioAAh+LwYNPj9738fDz/8sFx7yCGH4OabbxZw8N73vrcSq6DPmcGIv/rVryTQ8N5778XZZ58twGDmzJnykxYEAgJaBa699losW7asktFAlwbbPPLIIzFt2jS0tLSIe+K2227D4OAg/vEf/xGnnnqqjHm0Y7xzbXLe0KiVSAJ7TwJTEiDo7XLhGYSLx543LoYlcxegIZGscK3HQvnwsmf1FUb0kk7OpFGAIIuvKmPZ1bJ+gqmi2Ffy8M37nsW9zzeiB11wrJREy4vpuRJFP8wDGKyo59qmKh9Vzdz0q7hiRSNS8RTufnAtGhrbcfFJnThzcRPa0jYsqetsFLCMB2UhUjIkPzHJeAgXF5rofNgdIIweTGF88WpqpwvABO6NBhCUcqrCVSCcAIH2/Z25PjlyFAhXgWAtV4IMc66L/qIn/7ZnC+gZymEoX0C+YKwrzSkb7bU1aG6oRVNNAk3pFOoZT0BQYA2TFRm66vC9KajbHXhpMKKCBH2GDErdHfgYt4fEGWzrFksBrQSP/eEPOOmkk8S8f9ddd0mKo1suo7GxHied+HaxCJjgP5JtaQEviJl/5cqVeOKJJ8T6QP4EpjsSIFC5DwwMiHuCqZN0RfX39+PRRx+VuAWCkL//+7/HLbfcIgCBgY7vec97pH26Wz71qU9V4gk4XsYdfPKTn8RRRx0lbREoHHrooQJQaJFgsCJjH2hd0DTJIMdCxKcwOetO1MrUkMABARAefe4Z1CfTWDL/MNQlTL41d7RkZuPyxLQuPdRMGgGEyZlgBhNIbeQRDWpePXV2d9HBDXc/h/vWtKAPnWLS3h0gBC4PxCYQIHCBjbslzE2vx+VnNCIWT+PWBzehv9yIY2YA7z+tEyctqEeDMPA4pkiP1IVwEKvw7RuK4ZG7cOVvGD0VLiyl4eqV/n37KZYSUS/1CQI76wBHw+6cD8OKU3fUMm8DhazYpvAWEuT4pnu6UvipEh/lpFSyi0ze0BnvyhawrT+D/lwedPqQ2rixJon2+jphMWxPWWhOJpCO0+pCSmNmHpj6GDoOk4o4koo5WDGiusXEL0KlxY38MsvVZ5nWejBkSLzPl15eJ0qdwYH8+5577hFZ0lT/yCMP46jFb8PVV1+NefPmBQopeWAGA3f7VM5si1YBxhfwPLokdu3aVXE9nHnmmfL3Aw88IPEHmgrJwEamO7IvWhcIEDKZjMQe0OVBCwHHxKyH+++/X36ecsopku7Ig+fxd2Yv/PnPfxYQQ6CzZMkS+UznhKZNRmvP5Kw9USv7XwIHHEBIJ1gyyCir4dS6YZBgmPfMMf5s/P3/IKb2CPyAQh8kGPcO9+9U0AQIHm646znct7YJ/dZ0AQiSbTDCguDfYThw0U9ns60c5qY24v3vaAYSKfxw1XZsKU1D/zB++AAAIABJREFUcyyDU2blcdU5c3BUZw2SltkpmwgHv26A7LyV3dHUiOCCr4yPCWYAjPNw/TiHyvzheP37NpwDI2fV8A7asBYY+GrmHlkHTCyGr35d3xrgcwOMMNcLVwDrPVooWaQ39tCXJ1HRALYP5rBrqCwBh2XbRn1dDVrr42irszA9nRZq45pYDKkYU0BZXhoSt6GlkjWIcIQ1RdwK5j3aW7wSmqbIPkhYxNgAuhG6u7slW4ABh3PmzJEsg+OOO06yFbjL1+P111/Hj3/8Y3EJ0IrAlEMqfVoByKXAYEcqdwIPXkdXAq0VjE+glYI7/1deeUUAAV0SBBYMfKWyp+vjrLPOkgyF5uZmsXb84he/EEBCEDNjxgxJpdyxY4dYEWbNmiXuht///vf4+c9/LhkQS5cuFSsGXRHyzMnR4bM7jnO6RadFEpjSEpiSAEH3qpUshueeQW06jaPnHYZaHyBwsQsCBC1bG6wGFwGEyZp7ewIIDm646wXcv6YJffZ0eIwRqAIEqo6G1gCXVoESDklvFBeDHa/Djx7cjtdKneJWmIY+nD4P+NS5szGv1UIKzKiQsj9iPRLXg1+miBwKUs3XPyQSf9y8CcNVDnm5uiuGg/bU/+4H0fm+dp6rvAOm8qFJ9DP0QBV4ECoL7ef5S6BhDHkLGHKAvpKFrQNZbNnVj96hPEqFAlyvKGWSZ7Q0Y3pjg8QWNCTiSMctYTIk/NFbZnqopDz6lTWNaExVw9F2thOtnTHeWaUAQQP8/uC7GMikyFRBKnMqfVoFaLon14GmHlJhE1D87Gc/w9/93d+J9YApigQSCxcuFIVO0HHOOeegvr5ehkQFzqBCKn9aHZjBwL9JsMTgQ8YQ0A1BgEJLwBFHHCEghayMPPg5ZUTAQPfDI488Iv0w7oHWByp/tkGgQUIlXkdLBu8hKN/IgjDeGRKdN9UlcEAAhEeffxY1KcODUJ9ImZ2RAgSfNY4LdJDF761Cx7tvJlh1gMAds3ExGAvC/Wsa0GfPkPA32TOPByRIqh6j9UuYk3wNHzyjCbFYjQCEzcXpcJBE0iqjDT24+G0ePnzOPMysdyDpdrxMAIKJA+DvlSJEPi3zxHbIw64Uk9NvGAgELFSsJ1T7BpBI0KYfEzHMUqhuDXOOASs+oKB1wC99ZbIPgIwDqYa4I5PD5h296MlkUXYcKWSUqq1BV0sTuppT6EjH0BS30Ggx66BslL1PT60KXupdyn0P++9lZztGXI5RZnuntoXKjD9pAQjSHDM2gAqZO3UqWCp5KvjgDpzERT09PWLG566fO3y6D+hGoMJnmiJdBwQNuoPXe6cC526fcQ6MKQhyHrAtAgBaI5LJ5IhYArZDUEAgwKBIjo0WDA1KFOuZa4CkgoIRbqcxgNi+eVejXiIJTJ4EDgCAUMbjzz+LRKoGR85biKZE0vhWhc3PLOKVXO2ACThC8ZM3SdR8H0wn4x55d4BAC8I0Y0EYJ0BwbBr1XYknmZ9cjw+c0Qg3mcStD2zHlsJ00F5Aw30SQ5gd68bfvL0Rl62YifYEkLBc2K5xJ9CKwF2z50fRM9vBc43BfyJmX8cjMVH4IAeD0bLGdVGJ1jTtV5SycSlIDQUfGEiRIt+awKsYU8CCR91DJWzJFLF1sIAtvVnkC0U0pBlLkMCsxiQOaW/EtNokaukAoFXAc5GQIE0DQMimaPomcZSFmHTi+BkJgUDOAFjQd8LEbwzHlOytdyXoYlCJ7uaioWvF/1eN+liv07lHkEHLAa0EVPLMKGBWQ5BJMQiQwv3pd8HAQgUXwadOEMDASh4KLqrdQ7ivvSXLyXybo7YiCYxXAlMeIGS9Mv7w4nOwEkksnjcfLYkaJLhzJNlvzCy+BAganKg52pEFYbxTYDznjdeCMA6AEKpESNcQAULCs7AwsREfekc9ErU2frLyZWzO04JAgJCA7Tqo8zKYXdODK85ZiHOXtqHRdpGgGcFLCECgUjZxAPTFW28AIBCsmMC0kQdnE60FvivD33XTamBKS+n809gHKnCbjhCpVZFxHAy4LnoyJWzdlcHO/n5kGGToFJFKJNDZ3ozOlia016XRnLTREIsJ0wMT6RjHINYKF4gz46MSOTBcPVPdGlT6GlVg4kSMm2MYxGiExEgq7L2p1FT5V8BJoPzyeGZeGCBUU9JBZR/kcJD7rkLBHAS6QUtA+PNg30EXQriU9GjgZyL3F50bSWAqSmDKA4QcHDyz4RUM5PM49JBD0JmsRw0LBHmAk1B6FiBO67BfqMYEsI2sJjgVhX/gjGlvAATTJsGBZB+4ZcyJb8flJ9XiyIW1eOLZzXipp4wy2QO9uLAEUknWun04pCmLj517HGY0M/yQD56VAYzfvSw7bA9xoYTWegHjjUYx1ozgobNohKL1N9/DFRJNDABBgaQiOh6yZDIslbEzV8K2XYPY2teHglOGZSeRjCfQ1liDGW116GC9g0QM9TETS8B/YpHwsxqk2qLYYzS2wMxtOfzMCvOHGTfP4n90uQV3txqbU1FmgaSUvQkQDpw5Ho00kkAkgbAEpiRAkLXP3/0QIGwa6MPz69fhkBmzsLC9C/VuzNC4Unf4ayXdDlwUpby9BIopr1v00N+8BMYPEJjF4DKLQR5iyLe9GyeCKzTKkn4XB2qcQRzWkMW5xzbiiHl1SNYHGPVY8hcW0p6LRpQwtzGO+jSZBakOy7LbJskvSwnxp5kBJPExKX7jPUq+Cd8oTUNLRPO+xjYYpavmfQiLJC0FLJM8VPawK1dGT66EnVkHOwazyBcLSMdtNKZiaKuNoaulGW11adQnYkjaEEuB7XH8PhGVgFs/hkPAjyGIkoO7YVOVwsRcBJR8tXgJnqXKX0GzfObfmYKKvZXFMF6ZR+dFEogkMDUlsM8BQjCbfqxlWwFCAS4GPQcvvLoOmWwWh8+dj676lhGJa7oIaq56BBAme7KNHyCMmcXgF/gxSso3gAvdMrP+BeIh5WUwM5XFobPq0NySgCVERKoSHSS9ElqsHM5b0o7D57RWqgiSaZGuBUObZAIIyfLHYyIAQcbi15eo1Ivw6x1IFUUhfOY/S5T/rhKws+CgN1vErsEcMrkSnFIJaRtorkuhtSGN1toatDXWCo8DyySzciVdIOoaMDE0fnCjxNUQNflshbQEyGcmZYLFkAhagum8GmQYtH0EzeUVAjG/TUomSAgVAYTJfl+i9iIJHBwS2K8AQXczo4mSixir1hVBkpiMWBEc18WieQswraEZaQlWNMtjkCwpsh5M9uScTIBgag2yyJDx7Bdkh+zSImTTLeAi6RWQkGJBjNYvGSuRxyJNrhRxao334/MXL8DypR0CFGOuKWDEQEK2TgVINToWQAj7qnW3LURJZDj0ayAwQ8DMQSAPW6wEO7Ml7MxnBRCQvChXKksJ6mQyjuaaFKbX14q1oCUZR2OSqYgW4poF4bsQ2J9H/ga/HLI+MYMDlP6Y7hctfczCTcMUzubdMUWXzWHqIQT4KkdkJwRpnY1rxAAvideoUFdP9ryJ2oskEEngQJbAlAYIFCxBAl0HeXjozvRj9cZXUXTKmDtjFmY1tqEukRLzrCgbEpWMktZVTSFM5MGFU8eqXRuOaB5vn0EfcHDnF+5jtPaCFpTRxiUKKUB0FPy7opxCJEDDbe0ZIPz73c/hF2sMUZLJYmCKXyDVkRkH5P0XcqUyElYR9TU20lYZSTgoWoYoSPb9bhG2bzkglbLDXbOXlODUGApoig/iE+ctwMlHNkomQ5wAgSYn2wAEMgtIkGKFpEhLIRuOguBh3AW+/77CYmhqHpRcG3nQdQDsyufRM5hDX6aI3mwJA/ki7FgKbTVAR62Ntrp6tDfUoD4ZR8qykIzRcmEj7gMh0+9I9T0SFBiQq+4LqTeiNbPF8qJREEG7m4nFkcN33yjvgnkPwumL/nOMAMJEXv231Ll7WmPejDDCbY+VbfJm+hnt2tHWv70ZgzNa4Ove7HMyZbdfAcJ4PMOSVuZbEkgm05sbwvotm7Crvw+NdfXobO9Aa30jmpI1spsUc3IVYpjg5Kym7MOR0Bq1PF4lL2t0OP88oHCr9c9oaOZkM8c6mIoXjJjWh63R4OH0rKByH+0eq72I4XN1/NUn1+gAgefvKHr4BnkQ1jZgAIYHgWCAAEHqNfiKn4RItueg2e7DomllnLK0FS1pA+rICUAlx+toEZAxk0xYOBLiKLlxxGwTb5CIFbF4BkmD4ohbJrWP5aJpk5Ddt5AjWQI6+B2DG5nlUJOwkEDR33er8uTPsuzOi15cWAyHyg4GCiVxHWwfKmLHUA7ZYknIemgNaGU6YlMtWtI1aE3baE7GTK0DmxECZlZzDApYjUzNuMIFmXYv5hS0CfjRAiGa67EWgGD7owEEAYdBMqkK/+NkLi1RWweiBDRDI7ieVVuPJnpve1pH95bC3FO/4XVvrA3aG7nn0drbW/c70THu6fx9DhD2NKDw9wIOSExCvU+FAw+5UhHdg33Y0tONgVwGqXgCdTX1aK2vR1NdPWrTNUjYMVmsWaCGZlTuMEW5+ou0poGZxdx8rg+NzG5kXNM68XtCunypWAWONK7hnOnw/eiE4c/t27cLFeyCBQukpKxO1rEAwmjyC4OTMHKlciO7nKZ9hQHC2IvAeAGCUi3HkHBM7H1JqWelbkIJNV4ey+Z4OP/ttUjGPOzcmUO+ZPz6hATMRgHLO7NmgZAfFcSUXiYhUdwW8Ef3QcLj86V/nmmJxisvQYnCjWBAQ5mnyy4+hlSihAXT4jhqdh2aaizJFCjzHPbiWcg4LnbmXfRks+gZzGPnQB/yhbK4PerSNWisq0VbQw3a0nFxHTQlbNTaTKdkXIRJHwy/9FEmzUTf9uj8/S2BIAmUrhHKT/FmxrYnRb23FGZwvQ2CnuD7Ws0COxnj4ZpbrZ3JAFxv5llM5NopDxDo/9XUMy3ORB1S8DwMOAXsyg1hZ2YAA1nu8nIo5PgvD9v10JCsweIFh+KQtg6Qf5FAwBixjdtCSJYsmmmHAQJfkG9+85tSJY4FW8IkO0HLgk4+csJ/97vflfN5XTVloQ+F7bNNWg7I9U46WXLCk+99NICg1gNeS5pXssuRJpZFY1h9jmCGrHIEAMFDx8e+Hn/8cemX4yNFbPil4LWjvxTjBwi99nSUrQRSZQMQHIuG9rIwJcbcLObW5fE3pzWjOT6AlX/pw9beJArlOJyYAQgJF3BtC2VhGqIlgRYEug7orjepi7QwGGpl5iwYoh0SIylIikvgfxnlhIlDIBdBre1gflMWF5/UgVPf1oZ4wkPGsySeYNvOPvQMZrEj66G/kBOLTkdjHaY1JNFRk0J7TUoAQV3MFrIiYyUwoJUwJeab8seyIE3kpYzOjSSwPySg64z2HbRWToRsrNrYq1lAg+/Lm21/NHlNJkCo5i4YC0gErTHB8UUAYRJnN9POqNA1M0EjzPlJgcx5tiX55UXPETrXoXwOxbIxB9NqMK2pFS21tcLUVyFT4vLul9blQ1y3di22bNosRVqoKMn9/rGPfUwUfljphlEoJw3LzV5zzTVSeOa6666rXDPW5KHSfvrpp/HQQw9J+dhFixbJdVRO4QkUBCKkjyVIYGlc8sPfeeedUgJ3xYoVQhvLI4zWFcDMnj1buOt5UFYcA++fNLe0llS7V/MoJwAQrJlCj2xC+2wx3ScduhuKiHs7cfp8B+87rRN/ePJ5/PalegyWm0Tp1rhZ2DGGoxK8MVqf1qI4ylZaKJX5nG3HQtlLomxLWUekrQziyKHoJRC3LNR4RQEUdGVQiZeYaxCzUUAa2WIcLYkCTjm0Bpe/cw4KXhZrtvWjN5eFVyog6Xlob27C7PYGtNUm0FBTg9q4jaTFfizJPpCYAD8Tgx4RqSjKioqV1MORsp+MXcgkvkpRU5EExpRAWJny5KDlcbziC68/CgTGsiLsTYAwVr/BDV9YiYfvtxpA0HOqvetha4yeEwGE8c6kcZxX2e37tRaEIdE1u38p0GQH8tJ964ApmWuoZ7WSXcKvWx9+yNu6u/Ff/+f/YLB/AF/84hdlRKwff8EFF4jSPvbYY0co3vCEYnt8icgtT5cBz2c9eu7qWZSmmnmO12gxGCp4uhjIN0+lz0I04Wt4PhU6i9uQj559sW1aHZ555hmcd955UlCG4CJoFlTxktP+hhtuEMDDqne/+tWvpEAO/23atAl/+7d/i0suuURAQvVjvAChAf2YCcdKmmfjxwOkCBBQRtLqwdmHF3DxqV34xcoX8dDGNrhWLZYtbMOc+ixSyKAcK8NzjOUh4yTxytYSuvsyWHjINDiZPF7anMWg1cjyRjikrYyZbSmseT2LaU0pHNGVljoFSYIE9uix1xgGnVo89FyfMC4eNdPCJy6YhkJpF9ZtG0Rdcx1mtTZjZmMSLXGgIWYJIDDzxvAQSM0FP55EDBtSf8FwI9B9wcqJ6tIPu27GMcWjUyIJTAkJ6NwN73wn6mLYkzuh2iZmfwIEFb5aTEYD9uF3e0/vOuXIf0FAcCCBA9kMe+N5mvtx+jp+zYUgUqOBWSwLgUArUzjHLwMcYLrj7Ymx26dc5d8aBkZXBBXur1c+gOWnnS715alwv/Wtb0mRFlaYu/baa9HU1DSiOItOcHK1cxfO2vIsE/vXv/5VrALc4XOn/sEPflAqwwUPfkcrABUzz33sscfEEsDytP/wD/+A0047raqrYMuWLbjnnnukzj156C+99FLMnz9fateznC3Hy/K2wReNk5NA5OWXX8aNN94obgkWx6G7geCCbbJULgve0IoxevzEeAFCEwbAcs+MEvADFC0XaVoqJLehB+ccmcW7T5uFux9Yi8c3Nkuhpr95x0ws6ciiLZ5HV2ezKOTXtvdjUyaNJ1aXsG79Npx0XBeOnNuAn618Ca8MNqMzVcSFK2bAKmfxi8d6sWhuPc5ckkaNm8eCrmY0Nabx/IZuDBbj2J5P4Vu/3IGcU4Mls2P4wvkdmNtiFHxtMoaYbSHpMZaAYIDJlD5Bk18lslIuWbgLlABqZIZAcFEJgtD9+OpEXUcSmJAE1A2gO35ufFjumuWsR7cuVu+C66JAbL+wFa9ne9zo8KcqT/4tLr2OjjFcnMN9yHoeULqjKXM9R69knxwT1zhdI9XdyzaC9NnVLB6q2DWuINjGaEqfBcW4LrNPbVPHu7cA0YQe+DhOnvIAgYbqMFLTpVlK7PqHVnKUhLBQOp/wJATO1R0868rf+B//gV09PTjy8CPEYnDbbbdh8+bNoqwJDLi7586eDzbI685qbz/84Q+xdu1abN26VawHjAfo6uoS6wOLyNDfT0tCcHJQOVMhE1RQQRNksCY968pTwXMXH548PIf9EMxw988qeNzx88VicCRfPn5GEBCsTc/P/vu//xv333+/gIoLL7xQgiEZ98CDFgmCoE996lMCHN68i6EB/fY08fvHnRjKVlwCBY0FgbvtnTh3cRbvPn067n5gNR59tQ0Fuw5NaQdNdh9mpntw/mlzELMTuPfhl7G10IahfB2KRRftdXl86MJZ2Li5Fw//aS2WzpuG499+BO757Sb8ZZuFdDKJjsQAmEfxgbMW4PB5Tfj3nz6PzdkUhqw0ujNtEpdw3KwSrrtgGo6arlRKQeouEzcx2mGKMvkBicHLqgQojuPdi06JJDClJBC2HFB50xrK+CYqRt1hc93h36osuW4oIKCbk79zPeS1vIYKkhZPFtqiNZN/qyuVbTC4mwBB173wnlWttLyebbINxlFx80X3qAZfqzC5NhPYsE9W9WSsFsdFhc3P+DfvlbFc/J398+C5HDvb48aK5yuI4DkcswIm6gYeCnjUPRzUEQxA53qsOiD4sCOAMElTX10MbE6UtN9uEBwEPw8DBOVFCKJjWiVWr12Lm3/wfTz4wEoMDQzgA5e/HyeffLKY71m3/qKLLsKvf/1r+fmBD3xghNmfbTHugAqZk4iThA+c177rXe+S+IXgxA32zfN53rPPPiuBjZyUBBMf+chHxD3BCRtEpJygLG9700034cknn8Tq1avxtre9TUAIa9rTasEX573vfS++9KUvVdwhbIN9rVq1Skrkvv766/jQhz4klgu2x7gEWg9oIWFswtKlS8X9UP0YrwXBAARGAKTKzCKIo2jHkXTLEleQwA6cd2QW7zltOu5cuRq/39CBjN0uOXcxL4+56U24fEU77GQcP31wCzYVOgVsMCixzhrCGYtLWH7sDLz49FNYdtzReGq9gzseH0CP1SJxCSk3h2ZvF64+bzqOWliLr3zvNWzI1SBrpxErNSGJQRw7O4+vXNCOo6ezXoOfekiHhO+C2tO0NTTIJvNFS0xHTIR7klr0/YEgAd3tc6xU3NzAcF2jIubvPKjcqcypXLnJ4d8s061rIDdIXO+4rmk1TFWeXHuoZAk4+JNKmAcVaBgcBAMYeR43O1znqKi5tmqgN39yDOxDrQM8n2Pj7p1rHcEBf+eYOzs7ZY3l5/ybGyNV4LwH9kPwwfN5DzzYNmXD73gw1ozfqzWDgIXX8jq9D46F4+WhpcLZBq3F/HuiFpn9NX+mvAVBlSsFpLnbnDwKEPiZ5r3znDAVTSXP3C8pq+30DQzgoYd/L0F+61avwYnHnyATna4C7rZpTeBkZDwCy8lysuvuXvp3HJmEVNhU9py0tA7QEkCFr0dwovN3IlS6Be69916ZpJxEnKSccAw0pPLnJArGOnDyPfXUU/jNb34jCp99HXXUUTLJODk5kb/whS+IBSLYHyckrRvsi24N1rWnu4EypfWEKJ+uBd7nO9/5zhHjHjkhJwAQrBlSipjcA67FRMQ4Em5RzPkJ9OH8Iwbx7tNn4I6Va/Hb11qQtaYJn1/cLWFeaiPev6IVdjKBn6zcjo3FGUIx7NoECUUsrN2FK8/oxJIZFrozFm68az1eys5E3quFG2fZ4wKa3T5cfV4Hjj40jS9/7zVsytShjBrYZco0gyWzc/jSRW1YOt1F2g9+NYmSw3wNvHd1KwSfY3B+eRET4f5as6J+95IEggCBu3AqdCp8Kj1aValcqWy5xlBZcs3iTpoKT5XnrFmzKtZarnVcu6iQeQ4tllSi3FXzO7pbuaZqH7I2h6y/PI/ghGscz2Nb8n7adsWCwbWZoIBt8Xu1bqhS52f8joCAFgSev3PnTgEG7e3tFdeqWirYJ9tQSwfb5lrJ7zl2jcnQbDB1nVAfKCigXBjjRVmpi4HjoQWX63tkQZikSSzlciZQuz7Ikxc0FgeBBh9arlAQ//+dd9whZisCBL4AP/3pT2UyXnnllViyZIn46rn75sPWHb7sIH1SpCeeeAI/+clPZBJzInzta1/D4sWL5e7D/jFOJCroRx55RPrgJPnjH/8ooICTkJ/xd+7mCUoUpRJI8Dy6CjgOTkwqdL607J+BjQQIfIH04P3SHLZy5Urcdddd8iLQ5UHrBXcAd9xxhwCDz3zmM3LdYYcdNjkWBD9I0bWLsElu5FJxs+QWLQj9uHBRDhcsn447HlyN321oRcbqhIUU4k4e89MbcPkZjYjF6vCTB7djo8PCTwxGTcAulzGj3I3LT0rj8rNm4TdP9+CmX21Ed/xQuF4KZfItWA4avAF8+rxGHHNoCtd9byNeH2pGCbWwyynY9iCOmpPDly/swDGdBiCQytiwL5osBaFspkNESicPz6DdfZ3DMy2iKp6klz1qZr9KQNdItZByPeJun4qPCpIxT9yUUAkSEHD9oMLl+VyL+JPWSFX06qIgqKDC5OaLaxrb5NrEdW3evHm78c0E3zUqdf4j8KBi5TX8nmsgraAaWK2B4TyH/fIajofnsD+1GvA6gh+OiWuiWmwVHPEaAgiew7Z4PjdhtMbSksLxsy+u3bw+GOvA9V2tJtQFdDnzvtWywGsIlNS9sl8f9jg7n/IWBC0qU03xh6vZBXd4ev8mY94gUwUaEuRYKuEvf34Kv/zlL+Xhn3nmmZLmSD8//f2f//znBe3xJeHOnQ+bQYd8KcIvEuMCyJ1AE/3FF18sAYpBpMmxEJU+//zzYrGggiboYD98aU444QScffbZYlmgwmewJN0d3PHzZfjTn/4kwII/eR1fyssuu0zG9oMf/EDABF0Fxx9/fCVWgoCDVoNbbrlFRMF74UTnOHgdf2c7fOFo8bjqqqvEglL9qG5BKPulkYaZFJski6FkJQGrKPwAcceGZ+dQtjykvAGcf3gWFwlAWIOH1k/HEKbBshKIOznMr3kFH1jRDDvWgB8/2I0N5U44MZPymHYKODTZiyv+RxsWdQHdOQv/dd8mrB3qQBl1KDM2wPJQh0H8z3ObcMzCBL74/Q3YONSKolUv40hiAEvn5PHFC6bh2Ok2zF7EpCvKrkQzFyrgzgAEM2/I4ugXUPIzGExRKNZDGMk/Mc53LzotksCUkoCua8Hoe/XH06VKRctDTf5UflwzuEbR2qAAQZUm11hexzZ4LnftVJxUsoydopLWIG5eqztzBQj8jOseQQA3b+oWoGKmkuXfXNf0d7ZLq4AGjXOd5Xf8jAc/Zx9q6udY+LsGUHJN5L3xfI6bip3/eA5BB4ERx8KfvIZrPAGIpoIqaOG5HAvb4KExENrv2JwzU2pKTP0sBime49e5D4pumCjX8OyHKWzDYlaQoAGLnAi/eXCV+OG54+eOnCiVCvjmm2+Wzw4//HBBzswe4Ivwuc99TlAjJyYBA5EkkfSaNWtkEhBh0z3BicCsBF7PScrv+HLcd999MkmZqUATPyc/22E8AT/jOYwz4MvDScrgSCpxujGIaAkeHn74YRknAw55Dl0InLAcNwECrR4EGJygdEvQJcGJyolMIMGXj9YDxkoQIdP68dGPfhRXX3115UXafYqaHbUeEvUrNEWmdmJ30cMNdz2L+9c2odeaXeFBoJvBBP2VUbYcpLAT75Ishhm488E1eHh9FwbtdhNn4JWxMPkqPry8EVa8Dj9Y1Y3+Krt0AAASjUlEQVQNziw4JEbySmiM9+KsBSWceswsrHl+NZYddxj+vGYQ9/85g51uC0oWS3c5qMEgrjm3BcctTOHaH6zHhkyrBEImS6wUOYRls8v40kXTcPR08hcwBsEQMQmTJrkZmSIrxEuBFJlAuoxYjmjVoDwsUzUyAghTa1GLRvPGJBAECFwvuG6of547co0loCLkpopKXxU8Lahc92hBoKLl9fybGxIqZbpFCRioPAWUO458zjb5GRUv2wq+dxzPunXrBBxwY8Z1kH1SMXPN4xiUgZbj43rG77nGcl1mrIBYi3O5ioLXOAVer2uaxiUoQGA7XG85Jt6rgiL2wfWf13LsXNvZNvtjP+yblhHeD8EUdQc/1yBIyoJ9hYMq39jT2jdXHQAWBC33Wz26XPj3qgAEtS4YZTYy5Fx8TaWyKFUqe05qZSLkQ6QSpt+eO21OBk4MKvBPfvKTorD5MtBqwNgDxg+ceOKJQlbEiUVXwHe+8x25huYzWhNoCeBEoxmOQIMTiZORaY4at0ATP8fFyUXwwnHwGrZJ0MHASY0f4GecaLQ80GrB87/+9a9L+7wXciKwX7bHa3k/fCH5GeVx/fXXy8vF73l/X/7yl7F8+fKqgTPDwGA4ukM4AITMyHxGC4IBCORBmA0x3ttF4Qsg/XGcC4VVQtrtwXlH5nDe8i7cvmoNHnulE5lYq1AeW14Sh8bX48rl9XASCfzwt9vwWmmGuA9qUMLsul587JxWbOrO4XdPvobjFqWw7NhDcc9vt+GPW2uRs1qRdMpIW334zPm0IKR8C0IbilYdLC8vpErLZgFfPb8dS7qAmBSP0mDDmFSMpLVit0gWv7ZHACFVSicZCDSeqiL75oWOeokk8EYloO86FTsVH5UkAQLXFyo+jTegkuX6QcXH9YzXcU3kT25eFFxo5gOVKZUtNz4ECdy86KE7evbD9sIxVLSwEhDwem7EuL5x/SN44dpFJc3xaXwB22D/3LxxbJreyJ9c6zX7gNdwHFTWBC/KIaPn8975PcfHMVMX8Byey3vnwTVYrQv8m2OnnLghZN8ENDyHwIebP7ZNd27kYnijM/RNXhfe5QabC37Hz4NoWU1bej4nGM3/RKF86JyQVMT8x4fLCUN0yN07ESz/0VzGNjkRqPTpTuCkYpokFTavDQamsA1OIPIu0L3BF0uP4A5WlThfQE5aTjABPa4rk5AgghOPYIfj5cQn2CHg4JjYj4IBRei0XnDsnMj8jNYSvjjVAmfIUxA+TLlg46Pn+HpKLm64i9Uc69BrdcHyalGKF32yqiRSDoshlZH0duD8RUVctGImbnvwBTyyoR1DVjNcOwHLTWBOYhs+uKIJ5ZSFW1dtxZbCNFhIoy6WwVnL0jh+bgL3rFqPdbtSmFE/gPPPOBwDmTxuf8JBb64ecXIZ2IP4+HmNWLowjf9182ZsGmxG0U0BiQLiyOCEGR6+dm4nlnSRwMQHjpVIVtJN02UwrPDHmlNvcrpGl0cSmFIS0LkeXBu51qjPnWuN7vipCKnU1cXAzQkPrnO8XtMeda3ldQxK5JrDXXhwrWEf/Fs/C7oYuMEhQND4AwIAts11jmuxWme5zqklgOCB6zA3c/ydip7/OGblW+DazPEHuV84brbL9ZQ6gP84Fq6j3LgRHPB8tsmxsj8eGrDOc9XywPWULmPKg2ss9QXHHQGEKTXlhwcTBghBZRwGEnzQSuahyDDoN2JbmjPMz/WFUjTMycQJyHM4iflihSci2+VkpCWBk15pkoMmtuDvQb+gjjf4Imnf6v8Lgx5eo99plC8/G43euSIflETRi4+QvnbSW5MOWf6fMKCo5Eo1R5Z77rU64JFJ0S7Jbpy6N+kIr6EAhPOO8HDxaV24+4Fn8NBrrRi0O029Bg9otXpxWHsZbjKGF7cCQ+UWkAEzbe3EorkxJEsxrHk9g0G7RYo+zW7LobnZwvNbGtGfrzXVH1HE22a4aG/w8NSrcQwUmcWQgGUXUVPehRO7SvjKRbNx9AxTu8EUYTZ3w4O0yZHLYIq+xNGw9qoEwgBBld9LL70kGxiuFVzLqIxpDaDC5D++R2pBCGYkhDc8zGKgoqaSHk+aX3BHToDAjQ43QbyWyp0KnOsn21S+Ac1u0LWOFggqaAIJWhl4Hn+n9YFrrgYp6vpIEMP1WN0I7EetuupOUYDAe2U/HAOtEzxX4xR4LgPCeQ6BCoPLKTdanCMLwl6dxm+s8dEAgiLc8GSeSC/adjjSPfjCKdAI/gxfV60dNbkFv6t2Xdh3F+wneI/hMVYbV/DeXQIEAiIpTGTIhUz1RFoRbHEj0MVw411/xf1rGtFrMfMgJZkL5BbgeYY0iSyFvTh9noX3nd6Kxx9/AQ++1ICd1kyUrRRKLismOEKV7NjsNS4RBSzeFPeY8ZGHGyMwS8JxErBjDHrMIG6XkLNqkbeS8FzGK9ioQQG2W0TJrkVJ3AYcQxYdiT4snw9c/c65mNcGqfQ5TIxEd0MUdDiReR+de3BJQDc+wY0Hd75U/oyn0k0PFSg3GcE1kwqQCpcKMLz26PqjWQwawD3aWhhc37iJ0hgFdX1oNoAy2RK0aPpleB3UXbxmMVBZq2WV/fN3tVxQudONy9gFdUHQIkBrBEENx62gRS0ItArw3ikbWhQIYgiaCBDIUUNgRQBDCwvHoIR0UZrjFHt3xgIIYZCgf6ty5s+gbyx8a9UU+0SU/55EVU35jwUSgi6K0V7WaqCh2qSlvWA4+sCF7bGKoQEIxoNvCUAwFoQG9LFYk5VGDAQIBBExxFzyIZA+aQjzG/K47LRWNCeK+OUTW/FSdxFZLwHbSqDsitOiEttA6wOLLrGCI8FByfJgO54U3SLvgeXwOweO7ZhsB0mrpDWCVR5pHWFxJ95BUcDHglYXly6fgzMWt6AlYdwIJtzSVGfkvUlVSLAYVHREEnhrSSBoGeWdM/iOcVYMbuZOmDtnWg6oKNWszh09FTf/5nl0H1Rbr6hwGZBNxRkECJpFUG094ng0dZA/g7ELGgAZpE4Obqb4O5U3lTQ5baic1W3Az+ka4XpH8EHrBK0StHCwXSp1jlf5GzgODSzkOGiJ4EHXMgEElT/dumyH8uE9MmaC1XoJGig3tkfgQdeD6pMDYXZN+SDFyRKiugGq7aC1j2BOa9j3PNYOPXidKuRqgGQ0xT0WeBnLKhEeUxjE6PfBz6vdh465mmyqAwTWyzJWBar0HUULN9zzV9y/uh67rC64VtqQI7GsNVLiPrBdF0kvhzp3ACcvcPCe01vgFkp4bdt2FFwCjTo4XGhsDxaDAqmwJTZA6Y+TKNEawT5dB8xqjHkEA6wY6cC1WVjJRpyVpWnYsEjvbOwDDEaM2R4O7arDCQunoTlhGA7M/RrLgUdwINmMEUCYrHcuaufAkoC6TbkeMe6AqYtUwMzOUgplKlkqag0M5O9UtuqC1U2Grrc8j20pbTF98sqcGNyAVZNUsA3u7pXWOMg1oFwGuobxHribp8mffXO85ImhG0CzCjheDa5kLBaVOO+TMWEMgtQsDWVSDN4TrQMawEigQ4BEIEVwxPPEFev/pIuBYCOYyqngYCw9NJVmzVsKIKjgqz0cRc/6cPc0eatZEd7sQ9+T6yBo+gvey1hgJHxNGCAEQUv18VPRGseCLWmBpkoja2S4kltqo6cEfOPuZ3HP6joM2KRrTkvaIl0MtBvYngXbLUsmgWWX0GTvwuHTPJy8tBML5lhIJY1VQFNVtVgS++PBvwkaCEj4WcryMKuhBi3pOJJSWdFwXBgXgRkTq0lyjCy9xIqLvDblOUh7BB60GZC7wM+Mscom5ckzcQlab2EqvajRWCIJ7AsJqFKmYqWC1MA87TvoNtW1I6hAw2sId+tU7vzJHbmSBlVba6qtb2pZ0HYIDoKxXUF6Yx2bEjRxt08wwnOoxNkGd/bqjlCXhbIzEshwh8/PdcxhmRNI0EqgHBCUE/ul9SB4cJy0LNA1oWROwbU2cjHsi9kc9bEPJCDlsob74Y6d4ECqbpsaBjuKDm6886+4/6Um9GE64CWFkZCHY9nCpmi5DHYsopwgGCgj5WTQkXZQm8oikcgj7lJdxySOgAWeyIpIZkNR4ZIuaZR53MujIT6Ej569CKceNh1p13d22GVYtgN4caFupo2gaBEgEDgYsCDfKBDxDBBQwCO4R67dnQFzHwg56iKSQCSBKhIIb3707+oZV8PrlBaSUtChVt7RNof8XAmPgpbX4JA0UFwLOoUDLYOWWo6TIEEDEoMbzsjFEE31g0QCUipLghJFT/u7c/EN+gF+/H1nESZI8aUG9Hos95yglhVLg9TJcOOAS0IiF+WYCW6i20H5Eaj7hXCIStuNo2Q7kvVAiwCBA/kJYLNDVoQcQGd8F7544Uycs6QDNYxDoAWBfVVcBuzKVJKUcRPM+BYQxjQ4/j2JZUNsDMZCwoPAJspiOEimb3QbB7wEwgBhLCvtaJbUoBB0Fx92x4Y3BlXdra47otS0tlutLf0u7FbWzyMLwgE/NaMboFpVgGAggm++r9gU6K930VsAvnnX/8P9q+uwy5qOklWDMtM/SaQklgAqbJPxYFoxAYFwY3Btcx7jDaScsse4BaZTsoRSGTGSYNECIaCjiITXj45YD75y8Uycc3QL0i5TFMsm1NBOCr+jtCPIwEcItgm0FLJkcUmYWvXmHNZiMEyc6qKIAEI09yMJTA0JvFmAEAYHY91VEBRUAwjBzI3wudXcw0GQEAQgkQVhasytaBSTIAEhShLuAx5G4Q4nOtIF4KGvZOPWh9bjZ38qYkuxTaiNHZtcCI4o/7hrQ/CAXz0x5hE08EqTLUDXAOMIJNrAjfmBhy5c248toGXBo3ovIe0NoCu+A//7g4fhxHk1kgxpWSV4LgFCyrcFmHRFiPvBmCsMYyIjHFnUKcityTgJQ/pE14chSopqK0zC1ImaiCSwTyUwVrC37AV8CvWwMg9+pwMezYJQ7drRrBGjjScCCPt0WkSd7W0JECSYAMJhGmKCBKYYUvFmYePZLQV874FNeGaThwG3VsiPpK4BAYKTEAXu2gXfMsCshiRcJMxu3yb3gTmXyQgJl5kJJm6gbNP1wNgDB3HPQ4s9iBPmpvDZSxagq8ESpc60RnlJkZQgRo8pDiMYDkwmA4FBBdUH8iNMsSablRj8QMUIIOztORW1H0lgsiUw1i4+3FdQeQeDI0eLP5CNkTtck2as88JAJNj3WNdNtjwmo723TBbDZAjrrdiGhv0o80FQBkrDXLRiyJQ9vLAhg1VPv46Xey04gawE7v4FpfsuB2P6N+4KHjQeSD0kP2bBBA5q3IOcAVod4rEYFnckcPaxM3DErDrEGLvg0oqh8QcmC0FeZn+gWsGDAY8jxl6lfIK4QuT66nU/3orPP7rnSAIHiwSCoGC02AC919GCGUeuf6GibhMQ1FixFBNoZq+fGgGEvS7iA7uDEWWu/LoMnNxqpPeYycBsBQ8ousCObAH9jimgpcfIUlm7y6Pay6oFFIVDwU9jZCBjc8pGezqOhG12+VT8MXK5BwsmBSsxaqzBgf0YotFHEogkMEkSqGY9mGjT1VwNE23jQDg/AggHwlPaj2MMKvfhWH+/2JWURqa1wGzHyyyb7DqwTZ3n3Y5qn4r3Xy0I/hWGo8BEOlj0G/o7e8nRZr4DAxZ9TgaCFZMEadguh4/hOANzRnREEogkEEkgksBEJBABhIlI6y147lgAwRFq4mGAwOJMdDtwxz8eE9pYQTzqJOA5Jk7B5Csy6gEECEyb9DkLRgMIw6GVUUzBW3DqRrccSSCSwJuUQAQQ3qQAD/bLRwIE3q0J1NF//ERSBENmfTmzip8/KC8FCFICSqwRuzsjxEIQqMpMpS8ERwxK9M/Xas12yFAQAYSDfXZG9xdJIJLA3pRABBD2pnQPgrb3BBA0ZUeUtQQhGkcEXQN6jMeaUF1Uwxo/6PPToEcBJ4F+wgBh+JrIgnAQTMXoFiIJRBLYxxKIAMI+FviB391wqs9u9+LzC4wGEKoZFKoFMBrORB7VYweqAQQDVEYLh4xiEA78eRfdQSSBSAL7WgIRQNjXEj/g+zOhhqORjWjBpfBtas2D8OdhlT4CRPjFk3bvazSFXz04MkpbPOAnXXQDkQQiCewHCUQAYT8IPeoykkAkgUgCkQQiCUx1CUQAYao/oWh8kQQiCUQSiCQQSWA/SCACCPtB6FGXkQQiCUQSiCQQSWCqSyACCFP9CUXjiyQQSSCSQCSBSAL7QQIRQNgPQo+6jCQQSSCSQCSBSAJTXQIRQJjqTygaXySBSAKRBCIJRBLYDxKIAMJ+EHrUZSSBSAKRBCIJRBKY6hL4//wp+qil4K6aAAAAAElFTkSuQmCC;" vertex="1" parent="1">
          <mxGeometry x="850" y="280" width="659.82" height="420" as="geometry" />
        </mxCell>
      </root>
    </mxGraphModel>
  </diagram>
</mxfile>
